<?xml version="1.0" standalone="no"?>
<!DOCTYPE svg PUBLIC "-//W3C//DTD SVG 20010904//EN"
 "http://www.w3.org/TR/2001/REC-SVG-20010904/DTD/svg10.dtd">
<svg version="1.0" xmlns="http://www.w3.org/2000/svg"
 width="150.000000pt" height="47.000000pt" viewBox="0 0 150.000000 47.000000"
 preserveAspectRatio="xMidYMid meet">

<g transform="translate(0.000000,47.000000) scale(0.100000,-0.100000)"
fill="#000000" stroke="none">
<path d="M256 420 c-54 -27 -71 -45 -96 -98 -63 -134 34 -281 186 -282 53 0
68 4 110 33 80 54 112 147 79 233 -43 114 -173 166 -279 114z m122 -63 c28
-22 54 -95 42 -116 -14 -28 -13 -30 16 -25 22 4 25 2 19 -15 -4 -14 1 -26 14
-38 12 -10 21 -23 21 -30 0 -23 -69 -65 -116 -71 l-47 -5 5 31 c2 17 1 29 -3
27 -4 -3 -12 2 -19 10 -10 12 -10 15 1 15 11 0 11 2 -1 10 -20 13 -4 13 22 -1
23 -12 78 5 78 25 0 6 4 5 9 -3 7 -10 9 -7 8 12 -2 24 -3 25 -22 9 -19 -16
-19 -16 -6 1 16 21 3 22 -23 2 -11 -8 -25 -15 -30 -15 -6 0 6 11 25 25 46 31
52 48 34 92 -14 33 -17 35 -51 30 -44 -7 -104 -51 -104 -76 0 -27 39 -71 62
-71 12 0 19 -3 15 -6 -14 -14 -57 8 -76 40 -51 82 -4 174 83 161 16 -3 36 -11
44 -18z m-3 -47 c3 -6 -1 -7 -9 -4 -18 7 -21 14 -7 14 6 0 13 -4 16 -10z
m-165 -80 c0 -5 -6 -10 -12 -10 -10 0 -10 -2 -1 -8 17 -11 20 -44 4 -50 -8 -3
-11 0 -7 7 5 7 -1 11 -13 11 -12 0 -21 5 -21 10 0 6 5 10 11 10 8 0 8 4 0 14
-10 11 -8 15 6 19 30 8 33 7 33 -3z m305 -20 c9 -14 -6 -61 -17 -54 -5 3 -7
13 -4 21 4 11 2 13 -9 9 -10 -4 -15 1 -15 14 0 21 34 29 45 10z m-271 -52 c1
-15 -6 -31 -16 -37 -21 -13 -24 -1 -5 18 10 10 8 11 -8 5 -19 -7 -19 -7 -2 13
9 11 14 23 10 28 -5 4 -2 6 6 3 8 -2 15 -16 15 -30z m131 12 c-3 -5 -14 -10
-23 -10 -15 0 -15 2 -2 10 20 13 33 13 25 0z m-67 -76 c2 -14 1 -16 -6 -5 -6
8 -12 10 -16 3 -4 -6 2 -15 11 -21 20 -11 4 -15 -21 -5 -19 7 -21 25 -4 42 16
16 32 10 36 -14z"/>
<path d="M375 135 c-16 -8 -23 -14 -15 -14 8 0 26 6 40 14 32 18 15 18 -25 0z"/>
<path d="M971 356 c-7 -8 -10 -24 -6 -36 8 -25 62 -28 72 -4 14 38 -41 71 -66
40z"/>
<path d="M1080 250 l0 -120 35 0 35 0 0 120 0 120 -35 0 -35 0 0 -120z"/>
<path d="M586 325 c-15 -14 -26 -35 -26 -50 0 -32 33 -65 66 -65 16 0 24 -5
21 -12 -4 -13 -17 -14 -53 -3 -17 5 -23 1 -32 -23 -9 -27 -8 -31 11 -36 12 -3
41 -6 65 -6 49 0 92 33 92 72 0 33 -11 45 -53 63 -46 19 -48 29 -3 22 30 -5
35 -3 41 20 8 33 -7 43 -61 43 -30 0 -48 -7 -68 -25z"/>
<path d="M842 274 c-12 -8 -22 -10 -22 -5 0 6 -16 11 -35 11 l-36 0 3 -107 3
-108 35 0 c33 0 35 2 38 36 3 33 5 35 33 31 54 -8 88 48 67 110 -9 26 -34 48
-55 48 -5 0 -19 -7 -31 -16z m13 -69 c0 -10 -6 -20 -12 -22 -8 -3 -13 5 -13
22 0 17 5 25 13 23 6 -3 12 -13 12 -23z"/>
<path d="M970 205 l0 -75 35 0 35 0 0 75 0 75 -35 0 -35 0 0 -75z"/>
<path d="M1195 213 l33 -68 -19 -36 c-21 -42 -17 -49 23 -49 27 0 33 7 79 105
27 58 49 108 49 110 0 3 -18 5 -39 5 -39 0 -40 -1 -49 -42 l-9 -43 -8 43 c-8
42 -8 42 -50 42 l-43 0 33 -67z"/>
</g>
</svg>
