<svg version="1.1" id="Bar-Chart--Streamline-Noto-Emoji.svg" xmlns="http://www.w3.org/2000/svg" xmlns:xlink="http://www.w3.org/1999/xlink" x="0" y="0" viewBox="0 0 512 512" xml:space="preserve" enable-background="new 0 0 128 128" height="512" width="512"><desc>Bar Chart Streamline Emoji: https://streamlinehq.com</desc><g><path d="M16 16h480v480H16Z" fill="#FFFFFF" stroke-width="1"></path><g><path d="m496 97.4 -473.72 0" fill="none" stroke="#B0BEC5" stroke-width="1" stroke-miterlimit="10"></path><path d="m496 174.68 -474.12 0" fill="none" stroke="#B0BEC5" stroke-width="1" stroke-miterlimit="10"></path><path d="m496 251.96 -474.56 0" fill="none" stroke="#B0BEC5" stroke-width="1" stroke-miterlimit="10"></path><path d="m496 329.24 -474.96 0" fill="none" stroke="#B0BEC5" stroke-width="1" stroke-miterlimit="10"></path><path d="m496 406.56 -475.4 0" fill="none" stroke="#B0BEC5" stroke-width="1" stroke-miterlimit="10"></path></g><path d="M154.88 487.64H87.56V221.52c0 -5.44 4.4 -9.84 9.84 -9.84h47.64c5.44 0 9.84 4.4 9.84 9.84v266.12z" fill="#9CCC65" stroke-width="1"></path><path d="M289.68 487.64H222.32V299.36c0 -5.44 4.4 -9.84 9.84 -9.84h47.64c5.44 0 9.84 4.4 9.84 9.84v188.28z" fill="#F44336" stroke-width="1"></path><path d="M414.56 487.64H366.92c-5.44 0 -9.84 -4.4 -9.84 -9.84V103.44c0 -5.44 4.4 -9.84 9.84 -9.84h47.64c5.44 0 9.84 4.4 9.84 9.84v374.36c0 5.44 -4.4 9.84 -9.84 9.84z" fill="#0091EA" stroke-width="1"></path><path d="M496 480 32 480 32 16 16 16l0 480 480 0z" fill="#B0BEC5" stroke-width="1"></path><g><path d="M488 24v464H24V24h464m8 -8H16v480h480V16z" fill="#B0BEC5" stroke-width="1"></path></g></g></svg>