<svg version="1.1" id="Briefcase--Streamline-Noto-Emoji.svg" xmlns="http://www.w3.org/2000/svg" xmlns:xlink="http://www.w3.org/1999/xlink" x="0" y="0" viewBox="0 0 512 512" xml:space="preserve" enable-background="new 0 0 128 128" height="512" width="512"><desc>Briefcase Streamline Emoji: https://streamlinehq.com</desc><g><g><path d="M182.2008 75.2996h15.8496v33.6224h-15.8496Z" fill="#7A442C" stroke-width="1"></path><path d="M329.948 75.2996h15.8492v33.6224H329.948Z" fill="#7A442C" stroke-width="1"></path><path d="M479.284 479.8996H32.6136c-15.8912 0 -19.2784 -19.2784 -19.2784 -19.2784 -18.484 -132.5248 0 -328.4896 0 -328.4896 0 -16.184 13.1312 -29.3152 29.3152 -29.3152h426.5132c16.184 0 29.3152 13.1312 29.3152 29.3152 0 0 18.9024 226.2416 0 328.4896 0.084 0 -5.7708 19.2784 -19.1948 19.2784Z" fill="#7A442C" stroke-width="1"></path><path d="M479.284 479.8996H32.6136c-15.8912 0 -19.2784 -19.2784 -19.2784 -19.2784 -18.484 -132.5248 0 -328.4896 0 -328.4896 0 -16.184 13.1312 -29.3152 29.3152 -29.3152h426.5132c16.184 0 29.3152 13.1312 29.3152 29.3152 0 0 18.9024 226.2416 0 328.4896 0.084 0 -5.7708 19.2784 -19.1948 19.2784Z" fill="#7A442C" stroke-width="1"></path><path d="M494.506 157.8504c-2.1324 -15.3892 1.6312 -34.1244 -11.4164 -45.3736 -5.06 -4.5164 -11.7096 -7.2348 -18.986 -7.2348H47.836c-29.19 0.7528 -29.566 29.5244 -30.6116 52.6084h1.338c0.2928 90.3296 13.3824 143.858 237.9092 143.858 237.4072 0 237.9508 -47.5484 237.9508 -143.858h0.0836Z" fill="#7A442C" stroke-width="1"></path><path d="M42.692 102.8164c-34.5008 2.4256 -22.8748 35.0444 -24.046 50.5596 0 0 7.1512 -19.906 22.9588 -19.906h431.1136c15.9332 0 21.4116 19.906 21.4116 19.906 -1.0876 -15.4316 10.9984 -47.0468 -24.9244 -50.5596H42.692Z" fill="#A65F3E" stroke-width="1"></path><g><path d="M498.27 128.1588c-0.0836 -0.7528 -0.2092 -1.4636 -0.3764 -2.2164 -0.042 -0.2928 -0.1672 -0.5852 -0.2092 -0.878 -0.1672 -0.7112 -0.3764 -1.422 -0.5856 -2.0912l-0.2508 -0.7528c-0.2508 -0.7108 -0.5436 -1.4216 -0.8364 -2.1324 -0.0836 -0.2092 -0.1672 -0.3764 -0.2928 -0.544 -0.3344 -0.7524 -0.7108 -1.4636 -1.1288 -2.1744l-0.2512 -0.3764c-0.46 -0.7528 -0.92 -1.4636 -1.4636 -2.1744 -0.0416 -0.084 -0.1256 -0.1676 -0.1672 -0.2092 -0.5856 -0.7528 -1.1708 -1.4636 -1.7984 -2.1748l-0.0836 -0.0836c-0.6692 -0.7108 -1.38 -1.4216 -2.1328 -2.0908 1.84 9.4928 3.0112 18.1496 3.0112 23.586v22.9168h8.6148v-1.0036c-0.042 -0.6272 -0.084 -1.2128 -0.1256 -1.84 -0.0836 -1.0872 -0.1672 -2.2164 -0.2508 -3.262 -0.042 -0.5856 -0.0836 -1.0872 -0.1256 -1.6728 -0.0836 -1.0036 -0.1256 -2.0072 -0.2092 -2.9272 -0.0416 -0.6272 -0.0836 -1.2128 -0.1252 -1.7984 -0.042 -0.8364 -0.1256 -1.6728 -0.1672 -2.4252 -0.042 -0.3764 -0.042 -0.6692 -0.084 -1.004 -0.0416 -0.7944 -0.1252 -1.6308 -0.1672 -2.3416 -0.0416 -0.6692 -0.0836 -1.2128 -0.1252 -1.7984 -0.042 -0.2928 -0.042 -0.6272 -0.0836 -0.92 -0.084 -1.2128 -0.1676 -2.0492 -0.2092 -2.6344 -0.042 -0.5856 -0.0836 -1.004 -0.0836 -1.004 0 -1.0452 -0.042 -2.0908 -0.1672 -3.1364 -0.042 -0.2508 -0.084 -0.5436 -0.1256 -0.8364Z" fill="#A06841" stroke-width="1"></path><path d="M13.126 134.5572c-0.0416 0.46 -0.0836 0.962 -0.1252 1.5472 -0.042 0.3348 -0.084 0.7528 -0.084 1.1712 -0.0416 0.5436 -0.0836 1.1288 -0.1672 1.7564 0 0.1672 -0.0416 0.3344 -0.0416 0.5016v17.2296h8.6148v-22.9168c0 -5.604 1.2964 -14.804 3.2616 -24.7152 -2.5508 2.0072 -4.7256 4.3908 -6.482 7.1092 -0.0836 0.1256 -0.1252 0.2092 -0.2088 0.3344 -0.46 0.7528 -0.92 1.5056 -1.3384 2.3004 -0.1252 0.2508 -0.2508 0.5016 -0.3344 0.7108 -0.3348 0.6692 -0.6272 1.38 -0.8784 2.0908 -0.1252 0.2928 -0.2508 0.6272 -0.3344 0.92 -0.2508 0.6692 -0.4184 1.38 -0.6272 2.0492 -0.0836 0.3348 -0.2092 0.6692 -0.2512 1.0456 -0.1672 0.7108 -0.2924 1.4636 -0.376 2.2164 -0.042 0.3344 -0.1256 0.6692 -0.1676 0.9616 -0.1252 1.0876 -0.2088 2.1328 -0.2088 3.262 0 0 -0.042 0.6272 -0.1676 1.7984 -0.0416 0.1672 -0.0416 0.418 -0.0836 0.6272Z" fill="#A06841" stroke-width="1"></path></g><path d="M495.3008 180.0984c-0.042 44.1192 -6.3984 65.9068 -32.5352 87.0256 -29.9008 24.1712 -94.0512 34.9608 -207.9248 34.9608 -107.2244 0 -172.0024 -12.086 -203.8684 -38.0556 -27.1408 -22.0804 -32.9116 -44.4956 -33.288 -83.9308H12.7496c0.8364 89.4928 17.8988 142.3524 243.764 142.3524 239.08 0 243.722 -47.0468 243.8056 -142.3524h-5.0184Z" fill="#3E2723" stroke-width="1"></path><path d="M499.8592 155.7176c-1.0456 -14.804 -1.7564 -23.586 -1.7564 -23.586 0 -8.74 -3.8476 -16.5184 -9.8696 -21.9132 1.84 9.4932 3.0112 18.1496 3.0112 23.586v22.248c0 47.8828 0 82.5088 -27.266 104.5476 -29.9008 24.1716 -94.0516 34.9608 -207.9248 34.9608 -107.2244 0 -172.0024 -12.0856 -203.8684 -38.0552 -29.0224 -23.628 -31.3224 -59.676 -31.3224 -104.3388v-19.3204c0 -5.604 1.2964 -14.804 3.2616 -24.7152 -6.8164 5.3528 -11.2076 13.6748 -11.2076 23.0424 0 0 -0.2508 2.5928 -0.6272 7.36v13.6332c0 94.7204 10.7476 151.0088 243.8056 151.0088 244.0568 0 243.8056 -49.054 243.764 -148.458Z" fill="#A06841" stroke-width="1"></path><path d="M8.3588 412.5708c1.0452 11.2496 3.5544 37.47 5.018 48.0504 0 0 3.3456 19.2784 19.2788 19.2784h446.6704c13.4236 0 19.2784 -19.2784 19.2784 -19.2784 1.84 -9.9112 4.3912 -34.3756 5.7292 -47.4648 0 0 -7.3184 10.5384 -43.6172 18.7348 -36.2572 8.1548 -108.27 2.2164 -183.4608 2.1328 -100.0312 -0.1252 -205.0808 3.0948 -233.1832 -4.0144 -23.7952 -5.9804 -35.7136 -17.4388 -35.7136 -17.4388Z" fill="#603C24" stroke-width="1"></path><path d="M265.4208 69.5704c17.0204 0.1252 33.1628 3.0528 46.0012 7.3184 4.5164 1.5052 23.1676 13.1728 29.7752 11.7928 3.5128 -0.8364 11.124 -3.7636 9.3256 -13.382 -2.0072 -10.7896 -17.6892 -11.9184 -29.7332 -16.3512 -17.0204 -6.2312 -36.6336 -8.4896 -55.3688 -8.4896 -18.024 0 -36.7172 2.0912 -53.2356 7.6948 -12.2948 4.182 -35.6716 10.162 -33.2464 21.4532 2.3004 10.8312 14.7624 9.8276 17.8152 8.322 8.8656 -4.3492 15.9332 -8.0292 25.844 -11.6256 12.7552 -4.642 28.3536 -6.8164 42.8228 -6.7328Z" fill="#7A442C" stroke-width="1"></path><path d="M264.9192 54.9336c38.1388 0 54.2392 11.542 63.0212 17.6896 21.4116 14.9712 22.8752 6.44 22.5824 2.6764 -1.1292 -14.7624 -16.184 -25.7608 -28.5204 -31.7408 -17.3968 -8.4476 -37.512 -11.4584 -56.7068 -11.4584 -18.4424 0 -37.5536 2.802 -54.4904 10.4548 -12.5876 5.6456 -34.8356 19.8224 -32.3264 35.2536 2.0076 12.1276 17.9404 0.3344 21.0352 -1.7148 9.1164 -5.8548 25.7604 -21.1604 65.4052 -21.1604Z" fill="#A65F3E" stroke-width="1"></path><path d="M183.4972 75.2996c-3.3456 -6.1892 4.0564 -14.0512 7.2764 -16.7276 6.4404 -5.3112 13.7168 -9.8696 21.4532 -13.006 3.9728 -1.5892 15.5568 -4.0144 16.1424 2.2164 0.5856 6.3148 -15.3476 12.5876 -19.3624 14.5532 -14.302 6.9836 -22.3312 18.9024 -25.5096 12.964Z" opacity=".68" fill="#E6A467" stroke-width="1"></path></g><path d="M281.396 358.9168H230.7112c-3.262 0 -5.9384 -2.6344 -5.9384 -5.9384v-32.5352c0 -3.2616 2.6344 -5.9384 5.9384 -5.9384h50.6428c3.262 0 5.9384 2.6348 5.9384 5.9384v32.5352c0 3.304 -2.6348 5.9384 -5.8964 5.9384Z" fill="#3E2723" stroke-width="1"></path><g><path d="M285.1596 304.3012H226.9472c-2.4672 0 -4.4744 -2.0076 -4.4744 -4.4748v-17.6056c0 -2.4676 2.0072 -4.4748 4.4744 -4.4748h58.2544c2.4672 0 4.4744 2.0072 4.4744 4.4748v17.6056c-0.0416 2.4672 -2.0492 4.4748 -4.5164 4.4748Z" fill="#E6A467" stroke-width="1"></path><path d="M281.4376 350.4696H230.6692c-2.342 0 -4.2656 -1.924 -4.2656 -4.2656v-28.3116c0 -2.342 1.9236 -4.2656 4.2656 -4.2656h50.8104c2.3416 0 4.2656 1.9236 4.2656 4.2656v28.3116c-0.042 2.3416 -1.924 4.2656 -4.3076 4.2656Z" fill="#E6A467" stroke-width="1"></path><path d="M234.182 291.0028c0 9.6184 -1.4636 10.6636 -4.642 10.6636s-3.68 -3.0944 -3.68 -10.7476 0.5436 -10.2872 3.9312 -10.2872 4.3908 0.7528 4.3908 10.3712Z" fill="#FFF59D" stroke-width="1"></path><path d="M239.5348 331.2744c0 9.2004 0.1672 14.6368 -4.2656 14.6368 -4.4744 0 -4.8928 -5.1856 -4.8928 -14.8876 0 -6.984 0 -12.7132 4.642 -12.7132 4.6 -0.0416 4.5164 3.722 4.5164 12.964Z" fill="#FFF59D" stroke-width="1"></path></g></g></svg>