<svg version="1.1" id="Bullseye--Streamline-Noto-Emoji.svg" xmlns="http://www.w3.org/2000/svg" xmlns:xlink="http://www.w3.org/1999/xlink" x="0" y="0" viewBox="0 0 512 512" xml:space="preserve" enable-background="new 0 0 128 128" height="512" width="512"><desc>Bullseye Streamline Emoji: https://streamlinehq.com</desc><path d="M235.3004 21.4076C124.7424 18.8872 2.8012 110.5848 5.1536 259.1152c2.058 130.5944 100.1824 229.4328 227.3324 231.4912 127.15 2.058 239.808 -81.9944 240.48 -232.1632 0.7144 -151.3448 -116.0604 -234.2632 -237.6656 -237.0356Z" fill="#FF2A23" stroke-width="1"></path><path d="M235.6364 74.418c-87.7072 2.9824 -176.212 68.4268 -178.2704 183.8152 -2.0584 115.3884 98.7964 179.6564 178.2704 179.6564 100.8968 0 185.2012 -79.474 183.1008 -185.2012 -2.058 -105.6852 -81.532 -181.7148 -183.1008 -178.2704Z" fill="#FFFDFE" stroke-width="1"></path><path d="M237.6948 119.3636c-79.474 -1.806 -138.1976 68.4268 -138.9116 135.4252 -0.672 68.4264 42.1312 138.1972 137.5252 141.6416S376.564 323.8872 377.9504 259.6192c1.428 -64.268 -49.7344 -138.1972 -140.2556 -140.2556Z" fill="#FF2A23" stroke-width="1"></path><path d="M146.8372 257.3092c-0.672 60.1092 42.1312 94.6796 93.966 94.6796 47.0876 0 93.2936 -29.6976 93.2936 -92.5796 0 -56.6652 -42.8456 -90.5212 -90.5216 -92.5796 -47.6756 -2.1 -96.066 32.47 -96.738 90.4796Z" fill="#FFFFFF" stroke-width="1"></path><path d="M189.3464 256.8468c-2.562 35.8308 26.5896 52.9688 52.8428 52.9688 24.8672 0 49.3984 -16.34 50.1124 -49.524 0.63 -31.168 -23.8172 -50.1964 -50.1124 -51.1204 -27.1352 -0.9244 -50.7844 18.566 -52.8428 47.6756Z" fill="#FB2B22" stroke-width="1"></path><path d="m250.8424 259.6612 -14.072 7.8132 26.8416 38.1828s20.7504 1.596 25.5392 -3.8228 -0.63 -21.3804 -0.63 -21.3804l-37.6788 -20.7928Z" fill="#CC1935" stroke-width="1"></path><path d="M337.7092 218.16c-3.7804 -7.8128 -7.6448 -14.0716 -17.8944 -12.1396 -10.2072 1.9324 -29.0676 12.7696 -32.596 17.8944 -3.2344 4.7048 -6.3848 10.5432 -6.3848 10.5432s-36.1244 19.7428 -41.8372 22.9772c-8.9472 5.1244 -2.7724 15.5416 3.5284 14.3656 8.6112 -1.596 47.088 -17.264 47.088 -17.264s8.1492 1.932 12.9376 1.932c4.7888 0 32.092 -13.4836 35.7884 -15.962 6.0908 -4.1584 3.1924 -14.3656 -0.63 -22.3468Z" fill="#ACB1B5" stroke-width="1"></path><path d="M288.3948 280.37s-2.016 7.1408 -9.3668 14.5336c-7.6452 7.6452 -15.5 10.6696 -15.5 10.6696l24.2368 35.5364s18.0204 1.302 31.126 -11.4676 7.3928 -29.4876 7.3928 -29.4876l-37.8888 -19.7844Z" fill="#C8C8C8" stroke-width="1"></path><path d="m312.422 378.4524 -24.6992 -37.3848s4.1168 -2.1844 9.5352 -5.8808c9.9552 -6.8048 15.5 -12.2236 22.5988 -23.3128 3.8648 -5.9648 6.3428 -11.7616 6.3428 -11.7616l38.1828 18.8604s-0.84 29.4876 -13.3156 43.8536 -38.6448 15.626 -38.6448 15.626Z" fill="#CC1935" stroke-width="1"></path><path d="m312.422 378.4524 21.2128 31.798s27.6812 2.73 50.364 -24.4472 16.6344 -49.5244 16.6344 -49.5244l-36.2508 -17.348s-7.0568 16.97 -21.0864 33.268 -30.874 26.2536 -30.874 26.2536Z" fill="#C8C8C8" stroke-width="1"></path><path d="m365.0548 457.254 -31.378 -46.9616s23.6488 -13.82 40.4508 -33.6884c17.4324 -20.6248 26.5476 -40.2412 26.5476 -40.2412l50.7844 25.2452s-11.4256 29.53 -36.7548 56.2032c-24.7832 26.0012 -49.65 39.4428 -49.65 39.4428Z" fill="#CC1935" stroke-width="1"></path><path d="M313.304 230.5936c4.7468 8.8632 12.6016 8.9472 20.9188 5.4188 8.3172 -3.5284 47.592 -31.294 47.592 -31.294s53.3468 26.8412 87.8328 13.3996c34.4864 -13.3996 33.5204 -49.818 33.5204 -49.818l-20.4148 -12.9376s14.87 -7.7292 19.6588 -10.5856c2.352 -1.428 5.8384 -6.7208 3.9064 -11.4672 -1.5124 -3.6968 -7.3088 -4.9568 -12.0976 -3.0244 -4.7884 1.932 -18.6084 6.2588 -18.6084 6.2588s5.5028 -22.8928 4.5368 -24.1532c-0.9664 -1.26 -10.8796 -6.3848 -10.8796 -6.3848s-32.26 0 -36.4184 1.5964c-4.1584 1.596 -36.0824 33.226 -36.0824 33.226l-15.332 31.294 -6.5528 13.9456s-44.7356 20.0368 -51.4564 22.8928c-6.6792 2.8984 -15.962 10.8376 -10.1236 21.6328Z" fill="#006CA9" stroke-width="1"></path><path d="M384.4192 182.2036s18.818 -13.6096 32.218 -20.3304 38.2668 -14.912 45.6176 -15.794c7.3508 -0.8824 10.3752 1.092 11.6776 4.5364 1.302 3.4444 -3.0244 7.7708 -6.7208 9.7452 -3.6548 1.9324 -23.1452 10.7956 -44.7356 22.2628s-31.84 19.8684 -40.5772 21.8428c-4.4108 1.008 -10.0812 -2.9404 -10.4172 -9.5352 -0.2524 -5.1248 0.756 -9.4092 4.1164 -19.2384 4.1164 -12.0976 13.1476 -30.286 20.7504 -42.1312 11.2576 -17.5164 27.4716 -29.4036 45.408 -32.638 17.936 -3.2344 32.638 1.302 36.3344 4.3264 3.6544 3.0244 3.4444 6.1328 2.1424 7.1828 -1.3024 1.0504 -3.2344 1.8904 -12.9796 -1.554 -6.7632 -2.3944 -28.3116 -2.3944 -43.4336 8.8632 -15.29 11.3412 -19.0284 18.356 -25.7072 30.7056s-13.6936 31.756 -13.6936 31.756Z" fill="#1F87FD" stroke-width="1"></path></svg>