<svg version="1.1" id="Busts-In-Silhouette--Streamline-Noto-Emoji.svg" xmlns="http://www.w3.org/2000/svg" xmlns:xlink="http://www.w3.org/1999/xlink" x="0" y="0" viewBox="0 0 512 512" xml:space="preserve" enable-background="new 0 0 128 128" height="512" width="512"><desc>Busts In Silhouette Streamline Emoji: https://streamlinehq.com</desc><g><path d="M379.8848 52.6908h0.4176Z" fill="#1798F3" stroke-width="1"></path><path d="M124.6424 52.6908h0.4172Z" fill="#1976D2" stroke-width="1"></path><path d="M487.1752 375.3972c-8.7668 -3.34 -18.3688 -5.8448 -28.388 -7.932 -15.0292 -3.34 -31.3104 -5.4272 -47.592 -6.6796l-0.4172 0.4176v-3.7572c16.6988 -5.01 32.5628 -14.1944 45.5044 -27.136 11.6892 -11.6892 21.2912 -26.718 27.5532 -45.0868 1.6696 -0.4176 2.9224 -1.67 4.1748 -2.9224 11.6892 -11.6892 17.9512 -49.6792 14.194 -55.1064 1.6696 -10.4368 7.5144 -58.0288 -8.3496 -100.6108 -0.4176 -0.8348 -0.8348 -2.0872 -1.2524 -2.9224 -0.8348 -2.0872 -1.67 -3.7572 -2.5048 -5.8444 -2.0872 -4.5924 -4.5924 -9.1844 -7.0972 -13.7768 -0.4172 -0.8348 -1.2524 -1.67 -1.6696 -2.9224 -2.5048 -3.3396 -5.01 -7.0968 -7.5148 -10.0192 -1.2524 -1.67 -2.922 -3.3396 -4.1744 -5.0096 -18.7448 -19.5796 -47.0912 -33.356 -89.548 -33.398 -42.4152 0.042 -62.454 13.8184 -81.1984 33.398 -1.2524 1.67 -2.9224 3.3396 -4.1748 5.0096 -2.5048 2.9224 -5.0096 6.6796 -7.5144 10.0192 -0.4176 1.2524 -1.2524 2.0876 -1.67 2.9224 -2.5048 4.5924 -5.0096 9.1844 -7.0968 13.7768 -0.8352 2.0872 -1.67 3.7572 -2.5048 5.8444 -0.4176 0.8352 -0.8352 2.0876 -1.2524 2.9224 -15.864 42.582 -10.0196 90.174 -8.3496 100.6108 -3.7572 5.4272 2.5048 43.4172 14.194 55.1064 1.2524 1.2524 2.5048 2.5048 4.1748 2.9224 6.262 18.3688 15.864 33.3976 27.5532 45.0868 12.9416 12.9416 20.456 22.126 37.1548 27.136v3.7572c-35.9024 2.8804 -69.7596 10.8124 -95.5176 23.754 -11.3968 5.7192 -21.2076 12.3988 -28.8888 20.0804 -11.272 11.2716 -17.9516 24.6308 -17.9516 40.4948v13.7768H506.88V383.7884c-6.1788 -3.0896 -12.7748 -5.8864 -19.7048 -8.3912Z" fill="#1798F3" stroke-width="1"></path></g><path d="M253.85 384.9572c-6.7632 -3.5484 -14.1104 -6.7632 -21.9592 -9.56 -8.7668 -3.34 -18.3688 -5.8448 -28.388 -7.932 -15.0288 -3.34 -31.3104 -5.4272 -47.5916 -6.6796l-0.4176 0.4176v-3.7572c16.6988 -5.01 32.5628 -14.1944 45.5044 -27.136 11.6892 -11.6892 21.2912 -26.718 27.5532 -45.0868 1.67 -0.4176 2.9224 -1.67 4.1748 -2.9224 11.6892 -11.6892 17.9512 -49.6792 14.194 -55.1064 1.67 -10.4368 7.5144 -58.0288 -8.3496 -100.6108 -0.4172 -0.8348 -0.8348 -2.0872 -1.2524 -2.9224 -0.8348 -2.0872 -1.6696 -3.7572 -2.5048 -5.8444 -2.0872 -4.5924 -4.592 -9.1844 -7.0968 -13.7768 -0.4176 -0.8348 -1.2524 -1.67 -1.67 -2.9224 -2.5048 -3.3396 -5.0096 -7.0968 -7.5144 -10.0192 -1.2524 -1.67 -2.9224 -3.3396 -4.1748 -5.0096 -18.7448 -19.5796 -47.0908 -33.356 -89.548 -33.398 -42.4152 0.042 -62.4536 13.8184 -81.1984 33.398 -1.2524 1.67 -2.922 3.3396 -4.1744 5.0096 -2.5052 2.9224 -5.01 6.6796 -7.5148 10.0192 -0.4172 1.2524 -1.2524 2.0876 -1.6696 2.9224 -2.5052 4.5924 -5.01 9.1844 -7.0972 13.7768 -0.8348 2.0872 -1.67 3.7572 -2.5048 5.8444 -0.4176 0.8352 -0.8352 2.0876 -1.2524 2.9224C3.5336 169.1656 9.3784 216.7576 11.048 227.1944c-3.7572 5.4272 2.5048 43.4172 14.194 55.1064 1.2524 1.2524 2.5048 2.5048 4.1748 2.9224 6.262 18.3688 15.864 33.3976 27.5532 45.0868 12.9416 12.9416 20.456 22.126 37.1552 27.136v3.7572c-32.9388 2.6716 -64.2072 9.56 -89.0052 20.6648v77.4412h292.7316v-13.7768c0.0416 -26.9268 -17.492 -46.6732 -44.0016 -60.5752Z" fill="#1976D2" stroke-width="1"></path></svg>