<svg version="1.1" id="Card-File-Box--Streamline-Noto-Emoji.svg" xmlns="http://www.w3.org/2000/svg" xmlns:xlink="http://www.w3.org/1999/xlink" x="0" y="0" viewBox="0 0 512 512" xml:space="preserve" enable-background="new 0 0 128 128" height="512" width="512"><desc>Card File Box Streamline Emoji: https://streamlinehq.com</desc><g><path d="M479.3256 157.7316H39.6052l24.3652 -77.5604h382.9108Z" fill="#37474F" stroke-width="1"></path><path d="m506.3272 198.5952 -45.8812 -111.918c-2.5088 -7.0584 -9.1848 -11.7784 -16.6688 -11.7784H68.3076c-7.4836 0 -14.1596 4.72 -16.6684 11.7784L5.6728 198.5952c-1.7436 5.1452 2.0836 10.5032 7.5264 10.5032h485.6016c5.4428 0 9.27 -5.358 7.5264 -10.5032Zm-31.4236 -6.4208H37.0964c-5.5704 0 -9.4824 -5.4852 -7.6964 -10.758l36.314 -83.8108c1.786 -4.9752 6.5056 -8.292 11.7784 -8.292h357.1c5.2728 0 9.9928 3.3168 11.7788 8.292l36.3136 83.8108c1.7436 5.2728 -2.2112 10.758 -7.7812 10.758Z" fill="#82AEC0" stroke-width="1"></path><path d="M5.12 201.9544v278.1792c0 5.8256 4.6776 10.5032 10.4604 10.5032h480.7968c5.7828 0 10.5028 -4.6776 10.5028 -10.5032v-279.072l-501.76 0.8928Z" fill="#37474F" stroke-width="1"></path><path d="M437.6968 201.912V66.3092c0 -3.912 -3.1892 -7.1012 -7.1012 -7.1012V32.2916c0 -6.038 -4.89 -10.928 -10.9284 -10.928H345.934c-6.038 0 -10.928 4.89 -10.928 10.928v7.484c0 10.7156 -8.7172 19.4324 -19.4328 19.4324h-230.852c-5.7404 0 -10.418 4.6776 -10.418 10.418v132.2436h363.3936Z" fill="#F3AB47" stroke-width="1"></path><path d="M430.638 59.2504V32.334c0 -6.038 -4.89 -10.928 -10.928 -10.928h-73.776c-6.038 0 -10.928 4.89 -10.928 10.928v7.484c0 7.8664 -5.4004 16.7112 -17.094 19.4324h112.726Z" fill="#7CB342" stroke-width="1"></path><path d="M74.3032 80.1716h363.436v22.1536h-363.436Z" opacity=".75" fill="#DE7340" stroke-width="1"></path><path d="M461.6364 201.274V103.0908c0 -6.506 -5.2724 -11.8212 -11.8208 -11.8212H332.072c-12.1616 0 -21.984 -9.8652 -21.984 -21.984V60.824c0 -6.846 -5.528 -12.374 -12.374 -12.374h-83.428c-6.846 0 -12.374 5.528 -12.374 12.374v8.4616c0 12.1616 -9.8652 21.984 -21.984 21.984H62.1844c-6.5056 0 -11.8208 5.2728 -11.8208 11.8212v98.1832h411.2728Z" fill="#FFCA28" stroke-width="1"></path><path d="M310.088 69.2856V60.824c0 -6.846 -5.528 -12.374 -12.374 -12.374h-83.428c-6.846 0 -12.374 5.528 -12.374 12.374v8.4616c0 12.1616 -9.8652 21.984 -21.984 21.984h152.1864c-12.1612 0 -22.0264 -9.8652 -22.0264 -21.984Z" fill="#0288D1" stroke-width="1"></path><path d="M37.7768 125.33h423.8596v22.1536H37.7768Z" fill="#F3AB47" stroke-width="1"></path><path d="M483.0676 201.274v-51.664c0 -7.1864 -5.8256 -13.0544 -13.0544 -13.0544H181.544c-13.3944 0 -24.28 -10.8856 -24.28 -24.28v-9.3548c0 -7.5264 -6.1232 -13.6496 -13.6496 -13.6496H51.4692c-7.5264 0 -13.6496 6.1232 -13.6496 13.6496v33.6348c-4.89 0 -8.8448 3.9544 -8.8448 8.8448v55.8312h454.0928Z" fill="#FFE36C" stroke-width="1"></path><path d="M157.264 112.2756v-9.3548c0 -7.5264 -6.1232 -13.6496 -13.6496 -13.6496H51.4692c-7.5264 0 -13.6496 6.1232 -13.6496 13.6496v33.6348h143.7668c-13.4368 0 -24.3224 -10.8432 -24.3224 -24.28Z" fill="#F44336" stroke-width="1"></path><path d="M483.0676 181.374c1.0632 9.7376 -2.5936 10.758 -8.164 10.758H37.0964c-5.5704 0 -9.3972 0.4252 -8.164 -9.8228l-16.7964 0.5528 -6.4632 15.7332c-1.7436 5.1452 2.0836 10.5032 7.5264 10.5032h485.6016c5.4428 0 9.27 -5.358 7.5264 -10.5032l-7.4412 -18.242 -15.8184 1.0208Z" fill="#82AEC0" stroke-width="1"></path><path d="M181.544 315.1908h141.9384v73.9884H181.544Z" fill="#FAFAFA" stroke-width="1"></path><path d="M311.3212 330.6688s-5.7404 11.5232 -5.868 26.6612c-0.1276 17.3064 6.8036 32.5292 6.8036 32.5292l-119.6148 -1.318s7.5264 -11.6512 7.952 -28.2772c0.4252 -15.7332 -6.0808 -29.5952 -6.0808 -29.5952h116.808ZM318.72 313.66H187.8372c-7.4412 0 -13.4796 6.038 -13.4796 13.4792v66.2496c0 7.4412 6.0384 13.4792 13.4796 13.4792H318.72c7.4412 0 13.4796 -6.038 13.4796 -13.4792V327.1392c-0.0428 -7.4412 -6.0384 -13.4792 -13.4796 -13.4792Z" fill="#263238" stroke-width="1"></path><path d="M315.148 322.8872s-7.9088 12.374 -7.9088 27.5116 7.9088 31.6364 7.9088 31.6364H191.3664s7.6116 -15.3504 7.6116 -29.5952 -7.6116 -29.5952 -7.6116 -29.5952H315.148Zm3.572 -17.0088H187.8372c-7.4412 0 -13.4796 6.038 -13.4796 13.4796v66.2492c0 7.4412 6.0384 13.4796 13.4796 13.4796H318.72c7.4412 0 13.4796 -6.0384 13.4796 -13.4796V319.358c-0.0428 -7.4416 -6.0384 -13.4796 -13.4796 -13.4796Z" fill="#9E9E9E" stroke-width="1"></path><path d="M187.8372 311.7464h51.792" fill="none" stroke="#C9E3E6" stroke-width="1" stroke-linecap="round" stroke-miterlimit="10"></path></g></svg>