<svg version="1.1" id="Chart-Decreasing--Streamline-Noto-Emoji.svg" xmlns="http://www.w3.org/2000/svg" xmlns:xlink="http://www.w3.org/1999/xlink" x="0" y="0" viewBox="0 0 512 512" xml:space="preserve" enable-background="new 0 0 128 128" height="512" width="512"><desc>Chart Decreasing Streamline Emoji: https://streamlinehq.com</desc><g><g><path d="M16 16h480v480H16Z" fill="#FFFFFF" stroke-width="1"></path></g><g><path d="m98.8 16.8 0 478.4" fill="none" stroke="#B0BEC5" stroke-width="1" stroke-miterlimit="10"></path><path d="m177.4 16.8 0 478.4" fill="none" stroke="#B0BEC5" stroke-width="1" stroke-miterlimit="10"></path><path d="m256 16.8 0 478.4" fill="none" stroke="#B0BEC5" stroke-width="1" stroke-miterlimit="10"></path><path d="m334.6 16.8 0 478.4" fill="none" stroke="#B0BEC5" stroke-width="1" stroke-miterlimit="10"></path><path d="m413.2 16.8 0 478.4" fill="none" stroke="#B0BEC5" stroke-width="1" stroke-miterlimit="10"></path></g><g><path d="m495.2 98.64 -478.6 0" fill="none" stroke="#B0BEC5" stroke-width="1" stroke-miterlimit="10"></path><path d="m495.24 177.32 -478.6 0" fill="none" stroke="#B0BEC5" stroke-width="1" stroke-miterlimit="10"></path><path d="M495.32 256 16.68 256" fill="none" stroke="#B0BEC5" stroke-width="1" stroke-miterlimit="10"></path><path d="m495.36 334.68 -478.6 0" fill="none" stroke="#B0BEC5" stroke-width="1" stroke-miterlimit="10"></path><path d="m495.4 413.36 -478.6 0" fill="none" stroke="#B0BEC5" stroke-width="1" stroke-miterlimit="10"></path></g><g><path d="m20.4 20.56 -0.32 24.68 107.68 194.04 94.8 -87.64 255.12 340.4 13.96 0 0.56 -20.64 -266.4 -355.44 -92.08 85.12L33.8 20.44z" fill="#0B88CF" stroke-width="1"></path></g><g><path d="M488.04 23.96V488H23.96V23.96h464.08M496 16H16v480h480V16z" fill="#B0BEC5" stroke-width="1"></path></g></g></svg>