<svg version="1.1" id="Classical-Building--Streamline-Noto-Emoji.svg" xmlns="http://www.w3.org/2000/svg" xmlns:xlink="http://www.w3.org/1999/xlink" x="0" y="0" viewBox="0 0 512 512" xml:space="preserve" enable-background="new 0 0 128 128" height="512" width="512"><desc>Classical Building Streamline Emoji: https://streamlinehq.com</desc><path d="M255.32 16.24C248.4 15.56 32.24 142.48 26.2 145.76c-9.8 5.28 -9.52 18.4 1.28 19.68s27.28 1.28 27.28 1.28l195.52 17.76 202.48 -17.12s15.24 0.4 20.32 0c8.24 -0.64 15.84 -8.96 3.8 -20.96 -14.12 -14.08 -215.2 -129.52 -221.56 -130.16z" fill="#97AEC0" stroke-width="1"></path><path d="M37.56 460.96s-0.12 -15.24 0 -20.52c0.12 -4.68 3.32 -4.44 9.28 -4.6 6.04 -0.16 9.48 0 9.48 0l206.76 -61.12 187.52 61.12s8.36 0.28 13.04 0.28c4.64 0 8.2 0.6 8.2 5.72l0 18.64 15.36 0c3.24 0 3.72 2.32 3.72 7.44l0 22.36c0 3.24 -1.88 5.12 -7.44 5.12l-456.12 0c-4.64 0 -7.44 -1.88 -7.44 -6.52l0 -22.36c0 -4.64 2.32 -5.12 6.52 -5.12s11.12 -0.44 11.12 -0.44z" fill="#97AEC0" stroke-width="1"></path><path d="m19.88 470.84 471 -0.2s0.12 -3.84 0.04 -6.76c-0.08 -3.68 -2.92 -3.48 -5.32 -3.52 -5.48 -0.12 -13.8 -0.12 -13.8 -0.12l-0.04 -4.8 -434.24 -0.08 0.04 5.6s-7.84 0.2 -14.56 0.32c-2.12 0.04 -3.08 2 -3.2 4.24 -0.12 2.48 0.08 5.32 0.08 5.32z" fill="#647584" stroke-width="1"></path><path d="m48.56 166.6 0 32.24 409.36 1.04 0.12 -32.52 -200.08 -1.84z" fill="#647584" stroke-width="1"></path><path d="M31.24 155.04c0.88 2.4 112.4 1.76 224.32 1.6 109.36 -0.16 214.12 1.6 214.88 -0.24 1 -2.44 -49.44 -35.2 -103.96 -67.28S257.44 25.48 255 26.08c-4.84 1.2 -225.4 124.52 -223.76 128.96z" fill="#CDDFEE" stroke-width="1"></path><path d="M255.24 50.96c-1.76 -0.44 -151.4 81.44 -150.6 83.44 0.4 1.04 77.88 0.28 152.88 0.16 70.92 -0.12 142.12 0.6 142.68 -0.4 1.24 -2.04 -143.32 -82.8 -144.96 -83.2z" fill="#97AEC0" stroke-width="1"></path><path d="m48.56 195.84 0.2 18.96 12.68 7.32s-1.2 10.52 1.6 17.4 5.64 8.48 7.68 10.12 2.04 3.64 2.04 3.64l-0.6 153.48s-10.32 9.4 -13.52 15.48c-3.24 6.08 -2.44 13.76 -2.44 13.76h394.48s1.2 -8.08 -0.8 -13.76c-2.04 -5.64 -10.52 -8.08 -10.52 -8.08V249.6s8.48 -6.08 9.72 -12.52c1.2 -6.48 0.4 -18.6 0.4 -18.6l8.64 -4.36 -0.08 -17.76 -409.48 -0.52z" fill="#CDDFEE" stroke-width="1"></path><path d="m98.76 172.52 -31.36 0.04 -0.12 16.16 31.48 0.12z" fill="#97AEC0" stroke-width="1"></path><path d="m145.24 171.92 -30.28 0.56 0 16.44 30.28 -0.44z" fill="#97AEC0" stroke-width="1"></path><path d="m188.48 172.36 -28.12 0.04 0 16.64 28.12 0.08z" fill="#97AEC0" stroke-width="1"></path><path d="m302.92 172.2 -91.24 0.16 0 16.8 90.88 0.28z" fill="#97AEC0" stroke-width="1"></path><path d="m351.48 172.16 -29.24 0.04 -0.68 17.28 29.28 0.08z" fill="#97AEC0" stroke-width="1"></path><g><path d="m400.16 172.08 -29.72 0.04 -0.32 17.52 29.76 0.08z" fill="#97AEC0" stroke-width="1"></path><path d="m416.76 172.04 -0.6 17.72 27.36 0.08 0 -17.84z" fill="#97AEC0" stroke-width="1"></path></g><path d="m65.36 244.2 379.36 0.4s-0.08 3.68 -2.8 6.2c-2.28 2.08 -2.56 4.44 -2.56 4.44l-366.64 0.56s-0.72 -2.52 -3.4 -5.64c-1.84 -2.16 -3.96 -5.96 -3.96 -5.96z" fill="#97AEC0" stroke-width="1"></path><path d="M48.68 213.12s-0.92 5 2.32 7.76c3.24 2.76 6 2.92 14.6 2.68s382.12 -0.2 386.44 -0.64c4.32 -0.44 5.84 -3.8 5.92 -5.2 0.08 -1.08 0.12 -4.8 0.12 -4.8l-409.4 0.2z" fill="#97AEC0" stroke-width="1"></path><path d="M72.04 403.92s-2.56 2.84 -4.12 4.88 -4 6.2 -4 6.2l380 1.04s-2.64 -3.32 -3.64 -5.6c-1.08 -2.44 -0.96 -5.04 -0.96 -5.04l-367.28 -1.48z" fill="#97AEC0" stroke-width="1"></path><path d="M135 223.32s0.12 12.72 -2.36 18.04c-2.48 5.24 -5.84 8.4 -5.84 8.4l0.32 158.4s7.8 8.28 9.56 13.24c1.76 4.96 1.48 14.6 1.48 14.6h26.44s-0.68 -12.12 2.84 -17.76c3.52 -5.64 8.12 -10.24 8.12 -10.24l-0.36 -157.52s-4.24 -6.36 -5.64 -11.64c-1.44 -5.28 -1.56 -15.44 -1.56 -15.44l-33 -0.08z" fill="#54636E" stroke-width="1"></path><g><path d="M238.72 223.36s0.36 11.96 -2.12 17.6c-2.48 5.64 -5.64 9.44 -5.64 9.44l-1.44 153.72s8.48 7.76 10.96 13.08c2.48 5.28 2.16 18.76 2.16 18.76l28.76 0.04s-0.2 -13.52 1.92 -18.84 9.2 -10.6 9.2 -10.6l-0.68 -155.44s-5.68 -3.84 -7.44 -11.24c-1.76 -7.4 -1.4 -16.68 -1.4 -16.68l-34.28 0.16z" fill="#54636E" stroke-width="1"></path></g><path d="m345.04 223.28 31.52 -0.2s-0.48 9.04 2 16.8c2.48 7.76 8.12 12.28 8.12 12.28l-0.32 154.76s-4.96 2.84 -8.48 9.2c-3.52 6.36 -2.96 19.84 -2.96 19.84h-27.96s1.32 -13.76 -1.56 -20.2c-1.6 -3.6 -8.84 -9.52 -8.84 -9.52l0.44 -154.28s5.92 -7.48 6.96 -12.76c1.08 -5.28 1.08 -15.92 1.08 -15.92z" fill="#54636E" stroke-width="1"></path></svg>