<svg version="1.1" id="Convenience-Store--Streamline-Noto-Emoji.svg" xmlns="http://www.w3.org/2000/svg" xmlns:xlink="http://www.w3.org/1999/xlink" x="0" y="0" viewBox="0 0 512 512" xml:space="preserve" enable-background="new 0 0 128 128" height="512" width="512"><desc>Convenience Store Streamline Emoji: https://streamlinehq.com</desc><path d="M64.84 183.08h26.64v39.64h-26.64Z" fill="#5C6567" stroke-width="1"></path><path d="M228 187.6h27.6v36.64H228Z" fill="#5C6567" stroke-width="1"></path><path d="M44.12 294.92h425.56v182.48H44.12Z" fill="#E1E1E1" stroke-width="1"></path><path d="M27.88 490.88c0 3.6 2.04 4.64 8.72 4.64s437.4 -0.52 441 -0.52 7.2 -3.08 7.2 -7.72 1.2 -14.72 -0.48 -18.88c-1.68 -4.16 -15.44 -9.4 -15.44 -9.4H42.8s-11.64 5.84 -13.88 10.28 -1.04 17.48 -1.04 21.6z" fill="#9A9A9A" stroke-width="1"></path><path d="M186.16 299.44s-7.32 2.36 -7.72 7.08c-0.4 4.72 0 146.48 0 148.84s1.2 5.52 6.08 5.52l145.36 0c2.44 0 5.28 -2.36 5.28 -5.12l0 -149.64c0 -3.16 -4.88 -6.32 -7.72 -6.68 -2.8 -0.36 -141.28 0 -141.28 0z" fill="#00C1EC" stroke-width="1"></path><path d="M178.04 381.08H335.6v15.04H178.04Z" fill="#178BFD" stroke-width="1"></path><path d="M178.04 368.92h157.52v13.4H178.04Z" fill="#00AA46" stroke-width="1"></path><path d="M250.32 299.04h14.6v161.88h-14.6Z" fill="#B0E4FF" stroke-width="1"></path><path d="M258.96 238.88 24.08 288.36s0.8 9.56 7.04 12.84c3.48 1.84 12.96 1.28 12.96 1.28l436.76 0c2.92 0 6.76 -3.28 7.12 -7.48 0.36 -4.2 0 -8.4 0 -8.4L258.96 238.88z" fill="#016DA7" stroke-width="1"></path><path d="m24.08 288.4 -0.12 -18.52L34 255.2l454.24 16.64 -0.08 16.36S24.92 287.52 24.08 288.4z" fill="#178BFD" stroke-width="1"></path><path d="M23.96 269.88v-26.88l221.32 -14.4 243.16 14.4 -0.2 28.8c0 0.04 -463.96 -1.6 -464.28 -1.92z" fill="#E1E1E1" stroke-width="1"></path><path d="m23.96 243 0 -15.68c0 -5.4 2.52 -10.8 10.8 -10.8l442.56 0c5.72 0 11.4 2.88 11.4 7.96s-0.28 18.52 -0.28 18.52H23.96z" fill="#02AB46" stroke-width="1"></path><path d="m44.4 17.12 227.96 -0.2c5.44 0 9.88 4.4 9.88 9.88v159.2c0 6.72 -5.44 12.12 -12.12 12.12H45.88c-5.64 0 -10.2 -4.52 -10.28 -10.12L35 26.64c-0.08 -5.24 4.16 -9.52 9.4 -9.52z" fill="#ED6D30" stroke-width="1"></path><path d="M87.96 86.2c3.08 -1.4 10.6 -13.72 20 -13s9.56 13.04 1.68 23.36c-7.72 10.12 -14.92 18.08 -27 34.44 -12.28 16.68 -12.28 32.76 -10.12 35.4 2.16 2.64 7.24 2.16 20 2.4 12.76 0.24 50.12 0.24 51.8 -1.2 1.68 -1.44 0.96 -18.8 0.96 -20.96s-2.88 -5.8 -6.28 -5.8c-3.36 0 -29.64 0.24 -29.64 0.24s8 -10.92 16.4 -22.88c12.52 -17.84 21.16 -34.4 19.76 -46.48 -2.4 -20.96 -16.16 -32.04 -41.44 -28.92 -21.84 2.72 -35.64 26.24 -34.44 29.16 2.36 5.64 15.2 15.68 18.32 14.24z" fill="#FFFFFF" stroke-width="1"></path><path d="M241.64 114.64c-0.16 -2.16 -4.8 -2.16 -8.44 -2.16 -3.6 0 -8.2 -0.24 -8.2 -0.24s-0.48 -65.04 -0.48 -68.88c0 -3.84 -5.28 -6.52 -11.56 -6.28 -5.8 0.24 -8.44 0 -13 6.04 -3.72 4.88 -45.44 69.44 -48.92 74.68 -4.56 7 -8.92 19.52 3.84 20.96 12.76 1.44 43.36 0 43.36 0l0 24.32c0 2.4 0.72 4.32 4.56 4.32l18.56 0c2.4 0 3.6 -1.2 3.6 -6.04l0 -22.64s10.12 0.24 13 0c2.88 -0.24 3.6 -4.56 3.6 -7s0.56 -11.08 0.08 -17.08zm-58.52 -1.24 14.92 -24.32c-0.48 0 0 23.84 0 23.84l-14.92 0.48z" fill="#FFFFFF" stroke-width="1"></path><path d="M356.56 317.16h92.12V388H356.56Z" fill="#A7D0D6" stroke-width="1"></path><path d="M66.52 318.12h91.64v71.32H66.52Z" fill="#A7D0D6" stroke-width="1"></path></svg>