<svg version="1.1" id="Credit-Card--Streamline-Noto-Emoji.svg" xmlns="http://www.w3.org/2000/svg" xmlns:xlink="http://www.w3.org/1999/xlink" x="0" y="0" viewBox="0 0 512 512" xml:space="preserve" enable-background="new 0 0 128 128" height="512" width="512"><desc>Credit Card Streamline Emoji: https://streamlinehq.com</desc><g><path d="M465.36 407.8H46.68c-16.8 0 -30.52 -13.72 -30.52 -30.52V134.72c0 -16.8 13.72 -30.52 30.52 -30.52h418.68c16.8 0 30.52 13.72 30.52 30.52v242.56c0 16.8 -13.72 30.52 -30.52 30.52z" fill="#FFC107" stroke-width="1"></path><path d="M16.12 155.52h479.8v64.28H16.12Z" fill="#424242" stroke-width="1"></path><path d="M456.8 296.56H55.48c-3.92 0 -7.16 -3.2 -7.16 -7.16v-33.64c0 -3.92 3.2 -7.16 7.16 -7.16H456.8c3.92 0 7.16 3.2 7.16 7.16v33.64c-0.04 3.92 -3.24 7.16 -7.16 7.16z" fill="#FFFFFF" stroke-width="1"></path><path d="M95.92 281.96c2.24 -4.32 2.84 -9.36 4.84 -13.8 2 -4.44 6.36 -8.56 11.16 -7.8 4.44 0.72 7.2 5.16 8.84 9.32 2.28 5.8 3.52 12 3.68 18.24 0.04 1.28 -0.04 2.68 -0.88 3.68 -1.48 1.68 -4.52 0.84 -5.68 -1.08 -1.16 -1.92 -0.88 -4.36 -0.36 -6.56 2.48 -10.2 10.48 -18.88 20.44 -22.16 1.04 -0.36 2.12 -0.64 3.2 -0.44 2.32 0.44 3.6 2.84 4.64 4.92 2.44 4.76 5.4 9.28 8.8 13.4 1.36 1.68 2.92 3.32 5 3.96 6.84 2 10.8 -8.08 17.4 -10.76 7.92 -3.2 15.64 5.16 24.04 6.72 12.28 2.28 18.8 -7.28 29.56 -9.72 1.44 -0.32 3 -0.52 4.44 -0.12 2.64 0.76 4.28 3.28 5.84 5.56 3.64 5.36 8.84 10.64 15.32 10.68 4.12 0.04 7.92 -2.08 11.68 -3.88 13.32 -6.36 29.04 -9 42.96 -4.12" fill="none" stroke="#424242" stroke-width="1" stroke-linecap="round" stroke-linejoin="round" stroke-miterlimit="10"></path></g></svg>