<svg version="1.1" id="Deciduous-Tree--Streamline-Noto-Emoji.svg" xmlns="http://www.w3.org/2000/svg" xmlns:xlink="http://www.w3.org/1999/xlink" x="0" y="0" viewBox="0 0 512 512" xml:space="preserve" enable-background="new 0 0 128 128" height="512" width="512"><desc>Deciduous Tree Streamline Emoji: https://streamlinehq.com</desc><path d="M125.2828 94.2928s10.0832 -30.2912 33.8596 -49.2956 244.1964 62.408 244.1964 62.408 38.5072 13.7348 61.2876 50.1256c15.3116 24.482 23.8596 60.6652 7.6352 104.3592 -38.6732 104.0688 -139.0072 92.0352 -165.1492 86.1016 -12.2824 -2.7804 -42.2 -10.7056 -42.2 -10.7056S196.5708 393.7188 114.328 350.4396c-62.6152 -32.9468 -54.856 -82.2008 -54.856 -82.2008S17.3136 226.08 35.5712 167.3652c21.992 -70.7072 89.7116 -73.0724 89.7116 -73.0724Z" fill="#5B9821" stroke-width="1"></path><path d="M267.9 220.2292c57.0552 -9.502 74.8564 -33.8596 90.334 -56.4328 17.0544 -24.8968 12.49 -45.7684 24.3576 -46.3496s21.328 20.8304 8.2988 58.2172c-18.4236 52.8644 -56.3084 60.6236 -57.0552 74.8564 -0.5808 11.2868 40.3328 12.0752 77.2632 -5.9336 53.4868 -26.1416 53.4868 -87.3464 53.4868 -87.3464s-9.5024 -19.6272 -27.926 -33.2788 -32.1172 -20.7888 -32.1172 -20.7888 -21.992 -82.5744 -121.7868 -96.268 -140.8332 55.8936 -140.8332 55.8936 3.5688 22.5732 20.7888 48.7148c13.7348 20.8716 27.926 20.208 26.7228 32.0752 -0.7884 7.718 -25.5608 10.0832 -51.7024 -1.2032 -23.818 -10.2908 -29.7104 -24.3576 -36.2248 -24.3576s-60.5408 30.084 -38.0092 93.8612c17.8428 50.4992 76.8068 59.96 87.3464 61.7856 30.9136 5.3528 48.7148 -14.8552 26.7224 -30.9136S131.2164 217.2 136.5692 201.1832c5.768 -17.3448 26.3492 0.7468 51.08 11.4524 24.4404 10.5812 54.0264 11.992 80.2508 7.5936Z" fill="#8BC02B" stroke-width="1"></path><path d="M154.4536 286.4548s13.6932 -0.7884 19.3364 -2.4068c5.6432 -1.618 13.2784 -6.4316 13.2784 -6.4316s52.9056 55.354 58.3832 60.0016c5.3528 4.5228 11.66 -64.4416 11.66 -64.4416s12.0748 1.8676 23.3612 0.0832c14.8552 -2.3652 24.98 -7.0956 24.98 -7.0956s-7.22 42.4492 -10.0416 58.5488c-1.7844 10.3324 -2.4068 39.0468 -2.4068 39.0468l-38.6732 32.2 -29.4196 -19.7516s-0.0832 -7.7596 -4.44 -13.0296c-13.5272 -16.3488 -66.018 -76.7236 -66.018 -76.7236Z" fill="#6D4B41" stroke-width="1"></path><path d="m289.3528 381.1044 29.42 -35.4364s10.4564 0.7884 18.1332 0.7884c7.6348 0 20.9548 -1.6184 20.9548 -1.6184s-24.15 32.6148 -37.0548 48.7148c-12.9048 16.1 -29.7932 36.2664 -29.7932 36.2664l-16.1 -46.7232 14.44 -1.9916Z" fill="#6D4B41" stroke-width="1"></path><path d="M268.4396 352.888c-12.0336 1.0788 -43.4864 23.3616 -43.4864 23.3616s1.618 37.8432 0.4148 59.2128 -9.6268 56.2668 -1.8672 65.1052c6.722 7.6352 63.238 9.0872 71.6612 0.2076 8.4652 -8.88 0.2492 -45.5612 0.2492 -69.338s-2.4068 -67.6776 -2.4068 -67.6776 -10.8716 -12.0752 -24.5648 -10.8716Z" fill="#865B50" stroke-width="1"></path></svg>