<svg version="1.1" id="E-Mail--Streamline-Noto-Emoji.svg" xmlns="http://www.w3.org/2000/svg" xmlns:xlink="http://www.w3.org/1999/xlink" x="0" y="0" viewBox="0 0 512 512" xml:space="preserve" enable-background="new 0 0 128 128" height="512" width="512"><desc>E Mail Streamline Emoji: https://streamlinehq.com</desc><g><path d="M470.56 409.24H41.44c-10.96 0 -15.32 -6.84 -15.32 -15.32V118.08c0 -8.48 6.84 -15.32 15.32 -15.32h429.08c8.48 0 15.32 6.84 15.32 15.32v275.84c0.04 8.48 -6.84 15.32 -15.28 15.32z" fill="#FFFFFF" stroke-width="1"></path><g><path d="M483.76 112.48c-2.04 -2.44 -5.64 -2.76 -8.08 -0.76L328.92 235.24v25.4L344 246.92l129 154.92c2.68 2.6 4.96 3.6 7.32 1.88 1.48 -1.08 1.16 -3.12 -1 -5.48l-118.28 -166.8 122 -110.88c2.4 -2 2.76 -5.64 0.72 -8.08z" fill="#6FBFF0" stroke="#6FBFF0" stroke-width="1" stroke-miterlimit="10"></path><path d="M188.16 239.48 36.32 111.72c-2.44 -2.04 -6.08 -1.68 -8.08 0.76 -2.04 2.44 -1.68 6.08 0.76 8.08l122 110.88L32.68 398.28c-2.12 2.36 -2.44 4.4 -1 5.48 2.36 1.72 4.64 0.72 7.32 -1.88L168 246.92l20.16 18.32v-25.76z" fill="#6FBFF0" stroke="#6FBFF0" stroke-width="1" stroke-miterlimit="10"></path></g><path d="M470.56 409.24H41.44c-10.96 0 -15.32 -6.84 -15.32 -15.32V118.08c0 -8.48 6.84 -15.32 15.32 -15.32h429.08c8.48 0 15.32 6.84 15.32 15.32v275.84c0.04 8.48 -6.84 15.32 -15.28 15.32z" fill="none" stroke="#6FBFF0" stroke-width="1" stroke-miterlimit="10"></path><g><g><path d="m206.08 167.84 102 -9.16 0.12 0h5.56c1.16 0 2.28 0.52 3 1.44l5.8 7.4c0.2 0.28 0.32 0.6 0.32 0.92v31.28c0 0.84 -0.68 1.52 -1.52 1.52h-80c-0.84 0 -1.52 0.68 -1.52 1.52v39.96c0 0.92 0.8 1.6 1.72 1.48l60.96 -9 0.2 0h2.48c1.28 0 2.48 0.6 3.24 1.56l5.72 7.28c0.2 0.28 0.32 0.6 0.32 0.92v31.28c0 0.84 -0.68 1.52 -1.52 1.52H241.4c-0.84 0 -1.52 0.68 -1.52 1.52v39.92c0 0.92 0.84 1.64 1.76 1.48l52.52 -8.96c0.08 0 0.16 -0.04 0.24 -0.04h19.2c1.28 0 2.48 0.6 3.28 1.6l5.68 7.28c0.2 0.28 0.32 0.6 0.32 0.92v31.28c0 0.84 -0.68 1.52 -1.52 1.52H205.52c-0.48 0 -0.88 -0.2 -1.2 -0.56l-6.48 -8.28c-0.2 -0.28 -0.32 -0.64 -0.32 -1l7.2 -175.12c0.04 -0.8 0.64 -1.44 1.36 -1.48z" fill="#0D47A1" stroke-width="1"></path></g><g><path d="M200.16 158.68h112.84c1.48 0 2.64 1.2 2.64 2.64v28c0 1.48 -1.2 2.64 -2.64 2.64H235.28c-1.48 0 -2.64 1.2 -2.64 2.64v37.88c0 1.48 1.2 2.64 2.64 2.64h69.36c1.48 0 2.64 1.2 2.64 2.64v28c0 1.48 -1.2 2.64 -2.64 2.64H235.28c-1.48 0 -2.64 1.2 -2.64 2.64v37.88c0 1.48 1.2 2.64 2.64 2.64h77.72c1.48 0 2.64 1.2 2.64 2.64v28c0 1.48 -1.2 2.64 -2.64 2.64H200.16c-1.48 0 -2.64 -1.2 -2.64 -2.64V161.32c0 -1.48 1.2 -2.64 2.64 -2.64z" fill="#2196F3" stroke-width="1"></path></g></g></g></svg>