<svg version="1.1" id="Factory--Streamline-Noto-Emoji.svg" xmlns="http://www.w3.org/2000/svg" xmlns:xlink="http://www.w3.org/1999/xlink" x="0" y="0" viewBox="0 0 128 128" xml:space="preserve" enable-background="new 0 0 128 128" height="512" width="512" stroke-width="1"><desc>Factory Streamline Emoji: https://streamlinehq.com</desc><linearGradient id="SVGID_1_" gradientUnits="userSpaceOnUse" x1="31.515" y1="7.821" x2="37.452" y2="35.575"><stop offset=".368" stop-color="#E0E0E0"></stop><stop offset=".616" stop-color="#C8C8C8"></stop><stop offset=".777" stop-color="#B6B6B6"></stop></linearGradient><path d="M31.28 36.83s-1.18-6.21 3-10.16 7.6-3.1 12.88-5.97c5.07-2.75 8.06-7.84 7.25-8.42-.81-.59-1.8.98-5.86 1.54-4.76.66-11.49.12-18.68.73-7.87.66-12.92 2.86-15.27 9.13-2.01 5.37 1.51 11.59 1.51 11.59l15.17 1.56z" opacity=".7" fill="url(#SVGID_1_)"></path><linearGradient id="SVGID_2_" gradientUnits="userSpaceOnUse" x1="67.667" y1="9.75" x2="73.092" y2="35.109"><stop offset=".415" stop-color="#E0E0E0"></stop><stop offset=".635" stop-color="#C8C8C8"></stop><stop offset=".777" stop-color="#B6B6B6"></stop></linearGradient><path d="M52.36 35.16s-2.46-7.81 1.71-13.05c3.98-5.01 8.15-6.09 15.73-6.95 8.57-.97 11.66-.43 14.6-1.36 1.36-.43 4-2.02 4.64-1.16.64.86-2.63 6.79-9.91 10.22-6.23 2.93-8.76 4.46-9.62 8.1-.74 3.16-1.28 5.13-1.28 5.13l-15.87-.93z" opacity=".7" fill="url(#SVGID_2_)"></path><path d="M32.83 39.43s1.17-.62 1.09-2.93c-.08-1.99-1.57-2.61-2.63-2.68-1.06-.07-15.26-.14-15.97-.14s-2.2.78-2.27 3.12c-.06 1.99 1.28 2.63 1.28 2.63l-3.34 28.53L22.2 79.8l14.55.35-3.92-40.72z" fill="#CC1935"></path><path d="M51.18 39.46s-1.4-.8-1.29-2.99c.1-2.11 1.61-2.75 2.18-2.75s16.71.07 17.28.12c.64.05 1.61.98 1.57 2.94-.04 2-1.45 2.84-1.45 2.84l4.69 41.83-25.49-11.73 2.51-30.26z" fill="#CC1935"></path><path d="m13.67 44.94 19.69.01.77 8.02-21.4-.01c.01.01.94-8.1.94-8.02z" fill="#F1EDEC"></path><path d="m11.54 63.24 23.59.05.79 8.25-25.53.04z" fill="#F1EDEC"></path><path d="m50.71 45 19.36.03.88 7.78-20.89.01z" fill="#F1EDEC"></path><path d="m49.22 63 22.88.04.96 8.54-24.63.08z" fill="#F1EDEC"></path><path d="M4.19 85.46s.02-19.16.02-20.16.82-1.1 1.57-.85c.75.25 2.06 1.04 2.06 1.04l10.82 17.13 21.01-1.06s.16-16.08.16-17.14c0-1.06 1.13-.8 1.82-.49.69.31 1.85.95 1.85.95l5.23 25.75L6.5 89.37l-2.31-3.91z" fill="#848486"></path><path d="m7.77 85.49.07-20.01 31.83 16.07.06 5.53-31.79.02z" fill="#B2B2B2"></path><path d="m42.93 86.86.6-1.4-.12-20.64 37.65 18.82 0-58.55 42.77 0 0 94.31-21.73 1.62-28.53.15z" fill="#B2B2B2"></path><path d="m80.23 119.58 9.3.03 0-31.59c0-1.3.48-2.09 2.09-2.09l22.46 0c1.16 0 2.05.65 2.05 2.91l0 30.57 7.69-.01s-.04 2.3-.11 3.05c-.07.82-.21 1.37-1.85 1.37s-43.05-.02-43.05-.02l1.42-4.22z" fill="#848486"></path><path d="M90.17 81.11V26.55l11.5-2.85 13.09 3.17v54.14s-24.74-.05-24.59.1z" fill="#F2EEED"></path><path d="M93.45 30.04h18.08v13.77H93.45Z" fill="#A7D0D6"></path><path d="M93.55 47.24h17.94V61.7H93.55Z" fill="#A7D0D6"></path><path d="M93.45 65.07h18.05v12.77H93.45Z" fill="#A7D0D6"></path><path d="M78.86 21.55c-.3.25-.23 5.55.15 5.55.39 0 46.01.35 46.36 0 .35-.35.23-5.25-.08-5.63-.15-.19-10.9-.23-21.98-.15-12 .08-24.2.03-24.45.23z" fill="#848486"></path><path d="M71.92 85.47h9.06v34.79h-9.06Z" fill="#F6B99D"></path><path d="M4.18 85.46h73.81v35.1H4.18Z" fill="#E14536"></path><path d="M39.72 85.45h3.8v36.41h-3.8Z" fill="#F6B99D"></path><path d="m80.98 119.57-76.84.27 0 2.14c0 .69.14 1.72 1.65 1.83s75.15 0 75.15 0 .07-4.16.04-4.24z" fill="#A41916"></path><path d="M16.52 97.03c.04.85.05 8.28.05 8.98 0 1.15.65 1.66 1.86 1.71 1.25.05 8.53.02 9.28-.05 1.15-.1 1.15-1.35 1.1-2.31-.05-.95-.05-7.58-.05-8.33s-.38-1.58-1.69-1.58c-1.3 0-8.59-.06-9.25-.03-.55.03-1.35.4-1.3 1.61z" fill="#F1EBEE"></path><path d="M56.65 95.57c-1.2.05-1.42.89-1.42 1.84 0 .95-.1 7.43-.05 8.19.05.71.26 1.96 1.57 1.91s8.13.23 9.28.1c1.48-.16 1.25-1.46 1.29-2.36.05-1.1.06-6.93.09-7.88.03-1.16-.48-1.79-1.73-1.79s-7.93-.06-9.03-.01z" fill="#F1EBEE"></path><path d="M57.28 97.46h8v8.08h-8Z" fill="#A7D0D6"></path><path d="M18.44 97.53h8.36v8.08h-8.36Z" fill="#A7D0D6"></path></svg>