<svg version="1.1" id="Five-O’Clock--Streamline-Noto-Emoji.svg" xmlns="http://www.w3.org/2000/svg" xmlns:xlink="http://www.w3.org/1999/xlink" x="0" y="0" viewBox="0 0 512 512" xml:space="preserve" enable-background="new 0 0 128 128" height="512" width="512"><desc>Five O’clock Streamline Emoji: https://streamlinehq.com</desc><g><g><path d="M16 256a240 240 0 1 0 480 0A240 240 0 1 0 16 256" fill="#98C0D0" stroke-width="1"></path><path d="M63.44 256a192.56 192.56 0 1 0 385.12 0 192.56 192.56 0 1 0 -385.12 0" fill="#FCEBCD" stroke-width="1"></path><path d="M201.2 60.24c-25.68 7.44 -61.64 18.84 -100.12 64.8 -38 45.48 -45.84 98.32 -48.28 134.76 0 0 -21.96 27.48 -23 22.36 -8.28 -39.8 8.44 -128.76 52.16 -175.8C132.84 51.64 199 32.24 222.92 28.6c4.12 -0.64 -13.92 29.4 -21.72 31.64z" fill="#C2E3F0" stroke-width="1"></path><g><path d="M73.64 256a182.36 182.36 0 1 0 364.72 0 182.36 182.36 0 1 0 -364.72 0" fill="#FFFFFF" stroke-width="1"></path></g></g><g><path d="m256 140 0 116" fill="none" stroke="#563428" stroke-width="1" stroke-linecap="round" stroke-miterlimit="10"></path><path d="M235.76 256a20.24 20.24 0 1 0 40.48 0 20.24 20.24 0 1 0 -40.48 0" fill="#563428" stroke-width="1"></path><path d="M298.96 329.24 256 256" fill="none" stroke="#563428" stroke-width="1" stroke-linecap="round" stroke-miterlimit="10"></path></g><g><path d="m256 400 0 20" fill="none" stroke="#6596A3" stroke-width="1" stroke-miterlimit="10"></path><path d="m256 92 0 20" fill="none" stroke="#6596A3" stroke-width="1" stroke-miterlimit="10"></path><path d="m256 400 0 20" fill="none" stroke="#6596A3" stroke-width="1" stroke-miterlimit="10"></path><path d="m256 92 0 20" fill="none" stroke="#6596A3" stroke-width="1" stroke-miterlimit="10"></path><path d="m112 256 -20 0" fill="none" stroke="#6596A3" stroke-width="1" stroke-miterlimit="10"></path><path d="m420 256 -20 0" fill="none" stroke="#6596A3" stroke-width="1" stroke-miterlimit="10"></path><path d="m112 256 -20 0" fill="none" stroke="#6596A3" stroke-width="1" stroke-miterlimit="10"></path><path d="m420 256 -20 0" fill="none" stroke="#6596A3" stroke-width="1" stroke-miterlimit="10"></path><path d="m184 380.72 -10 17.32" fill="none" stroke="#B0BEC5" stroke-width="1" stroke-miterlimit="10"></path><path d="M338 113.96 328 131.28" fill="none" stroke="#B0BEC5" stroke-width="1" stroke-miterlimit="10"></path><path d="m184 380.72 -10 17.32" fill="none" stroke="#B0BEC5" stroke-width="1" stroke-miterlimit="10"></path><path d="M338 113.96 328 131.28" fill="none" stroke="#B0BEC5" stroke-width="1" stroke-miterlimit="10"></path><path d="m328 380.72 10 17.32" fill="none" stroke="#B0BEC5" stroke-width="1" stroke-miterlimit="10"></path><path d="m174 113.96 10 17.32" fill="none" stroke="#B0BEC5" stroke-width="1" stroke-miterlimit="10"></path><path d="m328 380.72 10 17.32" fill="none" stroke="#B0BEC5" stroke-width="1" stroke-miterlimit="10"></path><path d="m174 113.96 10 17.32" fill="none" stroke="#B0BEC5" stroke-width="1" stroke-miterlimit="10"></path><path d="m380.72 328 17.32 10" fill="none" stroke="#B0BEC5" stroke-width="1" stroke-miterlimit="10"></path><path d="m113.96 174 17.32 10" fill="none" stroke="#B0BEC5" stroke-width="1" stroke-miterlimit="10"></path><path d="m380.72 328 17.32 10" fill="none" stroke="#B0BEC5" stroke-width="1" stroke-miterlimit="10"></path><path d="m113.96 174 17.32 10" fill="none" stroke="#B0BEC5" stroke-width="1" stroke-miterlimit="10"></path><path d="m131.28 328 -17.32 10" fill="none" stroke="#B0BEC5" stroke-width="1" stroke-miterlimit="10"></path><path d="M398.04 174 380.72 184" fill="none" stroke="#B0BEC5" stroke-width="1" stroke-miterlimit="10"></path><path d="m131.28 328 -17.32 10" fill="none" stroke="#B0BEC5" stroke-width="1" stroke-miterlimit="10"></path><path d="M398.04 174 380.72 184" fill="none" stroke="#B0BEC5" stroke-width="1" stroke-miterlimit="10"></path></g></g></svg>