<svg version="1.1" id="Front-Facing-Baby-Chick--Streamline-Noto-Emoji.svg" xmlns="http://www.w3.org/2000/svg" xmlns:xlink="http://www.w3.org/1999/xlink" x="0" y="0" viewBox="0 0 128 128" xml:space="preserve" enable-background="new 0 0 128 128" height="512" width="512" stroke-width="1"><desc>Front Facing Baby Chick Streamline Emoji: https://streamlinehq.com</desc><path d="m78.49 99.47-5.35.56s-.57 13.78.99 16.75c1.55 2.96 6.41 3.68 10.56 3.24 3.94-.42 4.22-2.96 3.66-4.79-.56-1.83-3.1-3.52-5.21-4.79-1.71-1.02-2.11-4.36-2.39-9.15-.15-2.52-2.26-1.82-2.26-1.82z" fill="#FE8F01"></path><path d="m56.25 99.8-8.12.52s.23 6.62-.19 9.15c-.51 3.05-6.08 3.2-7.74 5.54-1.27 1.78.31 4.92 3.85 5.35 2.35.28 8.54.66 10.65-3.14 1.84-3.33 1.55-17.42 1.55-17.42z" fill="#FE8F01"></path><path d="M29.97 50.06s-3.94-16.33 9.39-31.72 37.54-12.96 49.74.37S98.86 51 98.86 51s4.88 9.2 12.39 15.39c5.12 4.23 14.27 11.07 12.2 15.39-2.06 4.32-4.13 3.38-7.7 3.19s-14.27-5.44-14.27-5.44-2.44 26.65-36.04 27.41-38.85-27.23-38.85-27.23-13.89 4.32-16.14 4.32-6.18-.99-6.01-5.44c.19-4.69 9.2-9.2 12.95-12.76 3.76-3.57 9.95-9.2 12.58-15.77z" fill="#FFB903"></path><path transform="rotate(-86.084 81.972 36.919)" d="M76.7 36.92a5.27 4.59 0 1 0 10.54 0 5.27 4.59 0 1 0-10.54 0" fill="#2E302D"></path><path transform="rotate(-7.607 46.349 37.068)" d="M41.77 37.06a4.59 5.27 0 1 0 9.18 0 4.59 5.27 0 1 0-9.18 0" fill="#2E302D"></path><path d="M63.99 40.34c-7.04.16-9.15 3.64-9.15 5.91 0 2.67 6.76 8.59 9.01 8.59s9.15-6.19 9.22-8.59c.07-2.25-2.74-6.05-9.08-5.91z" fill="#FE8F01"></path><path d="M122.11 83.91s-2.37 3.03-6.03 3.31c-3.95.3-10.42-.7-14.36-4.22S96.8 71.88 98.2 70.33c1.41-1.55 3.52 4.96 9.15 8.45 6.1 3.77 14.76 5.13 14.76 5.13z" fill="#FE8F01"></path><path d="M18.52 79.9c5.34-2.41 13.06-11.8 13.94-10.84 1.55 1.69-.03 9.6-4.79 13.66-4.79 4.08-12.01 4.69-18.07 2.16-3.32-1.39-4.41-2.91-4.88-3.85-1.13-2.27 6.62 2.11 13.8-1.13z" fill="#FE8F01"></path></svg>