<svg version="1.1" id="Handshake-Light-Skin-Tone-Medium-Skin-Tone--Streamline-Noto-Emoji.svg" xmlns="http://www.w3.org/2000/svg" xmlns:xlink="http://www.w3.org/1999/xlink" x="0" y="0" viewBox="0 0 512 512" xml:space="preserve" enable-background="new 0 0 128 128" height="512" width="512"><desc>Handshake Light Skin Tone Medium Skin Tone Streamline Emoji: https://streamlinehq.com</desc><path d="M428.3072 317.9736c-11.0804 -17.2268 -65.646 -76.1412 -77.3536 -91.3612S309.1408 124.5892 280.1644 115.9336c-28.9764 -8.6968 -57.5764 -6.4392 -87.8492 2.5088 -30.2724 8.948 -58.5796 8.112 -92.1972 -1.4216 -33.6176 -9.5332 -69.4932 -32.0284 -69.4932 -32.0284 -15.596 11.9164 -23.624 45.1996 -25.2968 92.2808C3.6556 224.3544 12.52 249.944 15.614 257.7212c3.0944 7.7772 26.342 19.276 52.5172 39.5132 2.2576 1.7144 188.0744 128.6584 192.0048 130.4564 28.3908 12.92 46.454 -13.2128 46.454 -13.2128s15.0528 8.6132 29.6036 0c17.7704 -10.5372 15.6796 -23.6244 15.6796 -23.6244s17.2272 2.8016 27.6384 -4.014c19.8612 -13.004 13.464 -28.0148 13.464 -28.0148s17.7284 5.6868 28.1816 -3.6796 18.1888 -19.9448 7.15 -37.1716Z" fill="#F9DDBD" stroke-width="1"></path><path d="M232.5812 389.7244c-0.2508 -0.6688 -0.5016 -1.338 -0.878 -2.0068 -8.112 -15.68 -23.5408 -15.0528 -24.2096 -15.5964 -0.8784 -0.6688 -0.7108 -12.3764 -1.6728 -16.934 -5.1012 -23.8752 -32.6976 -23.248 -33.4084 -23.7496 -0.9616 -0.6272 4.0976 -16.9344 -11.8748 -30.6908 -3.8052 -3.3032 -9.5752 -2.9688 -14.5928 -2.3832 -14.0908 1.714 -20.53 8.3204 -21.5336 8.1116 -2.3832 -0.46 0.2928 -17.9376 -17.018 -18.5232 -12.5856 -0.418 -20.8228 5.7284 -27.7636 15.2616 -7.1084 9.7844 -11.5404 19.694 -3.4704 31.276 10.1604 14.5928 21.2828 10.6624 21.2828 10.6624s-3.3452 17.854 6.8988 27.3876 30.9 8.948 30.9 8.948 -1.7144 21.0736 13.1708 31.1088 32.7396 0.9196 32.7396 0.9196 6.9412 17.9796 27.2204 15.3456c17.7704 -2.258 30.9416 -21.45 24.2096 -39.1372Z" fill="#BA8D68" stroke-width="1"></path><path d="M431.1088 323.4092c-0.7528 -1.1708 -1.38 -2.1324 -1.4636 -3.554 -0.0836 -1.5888 -42.4816 -57.8272 -60.336 -80.448 3.596 10.328 8.7808 20.154 15.3872 28.8928 10.6624 14.1328 25.6316 27.3876 25.924 45.0744 0.1256 8.6968 -3.7212 17.394 -10.286 23.1224 -6.5644 5.7284 -15.6796 8.4044 -24.2932 7.0664 -2.7596 -0.418 -6.7316 -0.418 -7.0664 2.3416 -0.1252 0.7944 0.2092 1.5888 0.46 2.3832 2.7596 8.53 -0.6272 18.4812 -7.61 24.0844 -6.9828 5.6444 -16.934 6.9408 -25.422 4.014 -2.216 -0.7528 -5.1432 -1.6308 -6.5228 0.2508 -1.0872 1.4632 -0.3764 3.4704 0.1252 5.1848 2.6344 9.366 -3.5956 19.7356 -12.5436 23.5824 -8.9064 3.8468 -19.5684 2.0072 -27.9312 -2.9268 -1.8396 -1.0872 -4.7668 -2.0488 -5.6864 -0.0836 -0.2928 0.5852 -0.2092 1.296 -0.1672 1.9232 0.3344 6.4812 -2.718 13.0876 -7.9028 17.018s-12.3348 5.1012 -18.5232 3.0104l-1.5468 0.9616c1.8396 1.0872 3.3868 1.8816 4.39 2.3416 28.3912 12.9204 46.4544 -13.2128 46.4544 -13.2128s15.0524 8.6132 29.6036 0c17.7704 -10.5368 15.6796 -23.6244 15.6796 -23.6244s17.2268 2.8016 27.6384 -4.014c19.8612 -13.0036 13.4636 -28.0148 13.4636 -28.0148s17.7288 5.6868 28.182 -3.6792c2.5924 -2.3 5.0592 -4.7248 7.192 -7.4428 4.1812 -5.352 6.3136 -11.7076 4.892 -18.4812 -0.418 -2.0072 -1.0036 -4.056 -2.0908 -5.7704Z" fill="#FFD29C" stroke-width="1"></path><path d="M296.2204 405.948c12.6276 7.8608 17.7288 11.2896 17.7288 11.2896 -4.5576 0.5436 -14.5092 2.4252 -38.3008 -15.9728 -6.5644 -5.0592 -32.7392 -25.2968 -20.6136 -30.2724 8.948 -3.6796 23.4152 23.9168 41.1856 34.9556Z" fill="#DBA870" stroke-width="1"></path><path d="M351.4972 392.4844c-7.8608 -0.6692 -38.7188 -18.6068 -62.636 -43.2764 -2.5088 -2.5924 -4.85 -4.8088 -6.8152 -6.6904 -2.3836 -2.2996 -2.4672 -6.1044 -0.1676 -8.5296 2.3 -2.4252 6.1048 -2.4672 8.53 -0.1672 2.0072 1.9232 4.3484 4.2232 6.9408 6.8156 5.436 5.3936 19.3176 20.99 46.7052 39.8056 6.1464 4.2232 13.882 8.488 20.99 10.788 0.7944 0.2508 -5.7284 1.9232 -13.5472 1.2544Z" fill="#DBA870" stroke-width="1"></path><path d="M383.484 355.7724c-16.6416 -7.3172 -32.8648 -22.3696 -60.796 -58.2036 -2.0488 -2.634 -1.7144 -6.3972 0.878 -8.488 2.5924 -2.0904 6.3976 -1.714 8.488 0.8784 8.948 10.9548 18.1468 21.7424 28.0148 31.9032 3.8884 4.014 21.9936 19.5684 24.2932 21.1988 21.7008 15.0528 30.6072 16.0564 30.6072 16.0564 -2.5508 1.0452 -12.4188 5.0176 -31.4852 -3.3452Z" fill="#DBA870" stroke-width="1"></path><path d="M24.3948 267.3384c-1.8816 -1.38 -0.1672 -4.3068 1.9236 -3.3452 12.2508 5.5192 29.478 13.5892 42.5236 20.2376 12.0004 6.1044 19.3592 9.7424 19.3592 9.7424l-12.084 11.7492 -51.7224 -38.384Z" fill="#DBA870" stroke-width="1"></path><path d="M503.9888 158.792c-6.1884 -41.1856 -14.342 -69.2004 -20.4048 -75.974 -6.9408 -7.6936 -18.8576 7.61 -44.0708 16.558s-70.622 12.3348 -70.622 12.3348 -79.4028 -0.1672 -107.2084 7.61c-21.9516 6.1464 -49.13 23.5404 -71.96 37.3388 -18.2304 11.0384 -34.6628 18.272 -36.0424 26.2584 -1.2964 7.61 7.15 24.628 28.14 26.342 34.0776 2.8016 70.12 -18.732 70.12 -18.732 11.666 -6.6064 16.0144 -7.4008 39.3044 -7.4008s47.2904 17.7704 49.0048 20.6136c17.394 28.642 33.032 43.1928 49.0044 62.594 11.666 14.1744 39.0952 51.6808 39.0952 51.6808s30.816 -36.4192 38.6768 -44.8236 37.0044 -29.6872 37.0044 -29.6872 6.4392 -41.6036 -0.0416 -84.7128Z" fill="#BA8D68" stroke-width="1"></path><path d="M429.5616 284.9416c-2.5504 -15.3036 -9.9512 -30.3144 -6.4392 -45.3252 0.5436 -2.216 1.0456 -4.4324 1.2964 -6.69 1.1708 -11.9588 -10.1188 -6.732 -11.7912 -6.5648 -4.3068 0.46 -53.8132 -1.38 -48.294 4.2232l63.9736 86.5524s2.5088 -0.7944 3.0944 -6.9824c0.6272 -6.272 -1.6308 -23.9172 -1.84 -25.2132Z" fill="#A47B62" stroke-width="1"></path><path d="m389.254 231.5464 -51.388 -17.8124c6.7736 6.6904 12.4184 13.924 18.8576 20.572 19.5684 22.788 49.1304 61.5068 71.1236 83.584 0.92 0.92 2.3836 -0.2508 1.7144 -1.338 -12.2092 -19.2756 -43.5688 -69.0748 -45.1996 -73.9668 -3.094 -9.4916 4.892 -11.0388 4.892 -11.0388Z" fill="#DBA870" stroke-width="1"></path><path d="M295.426 191.7824c19.0248 3.3868 24.7112 7.9444 40.3076 19.8612 38.3008 29.1852 73.2144 18.1048 77.6884 16.7252 24.586 -7.234 -20.112 -7.234 -27.1364 -9.9516 -56.4892 -13.2128 -60.0852 -54.524 -128.5332 -35.8336 -23.1224 8.446 -60.8376 38.844 -90.3992 17.812 -4.2232 -3.0104 -10.9968 -9.0732 -10.2444 -15.8052 1.4216 -13.0456 35.9592 -20.8644 50.8864 -34.2864 20.3628 -15.7636 45.8688 -27.8892 70.8312 -34.3284 -12.2512 -1.38 -26.1752 1.2544 -36.3356 4.5576 -27.22 8.906 -46.0776 29.4364 -75.054 40.8928 -23.9588 9.45 -21.91 17.478 -21.8684 23.0392 0.042 5.5608 4.4324 20.112 17.6868 27.262 50.0084 26.8856 85.6748 -28.2656 132.1708 -19.9448Z" fill="#7A4F38" stroke-width="1"></path><path d="M235.3828 410.0876c-1.5056 3.7632 -7.8608 10.244 -11.164 11.3312 0 0 9.9932 -21.8264 4.5992 -31.6524 -3.3032 -8.2788 -13.1712 -11.3312 -21.3244 -9.4916 -13.1292 4.2232 -21.3248 24.2932 -23.4988 36.67 -0.5856 3.2196 -4.098 -2.5924 -3.596 -9.0736 1.7144 -21.9096 18.5232 -30.3976 20.3628 -49.6736 1.1708 -11.9168 -10.244 -20.53 -21.9516 -18.0632 -15.262 1.7144 -22.3284 16.3488 -29.6456 28.224 -3.2196 5.6864 -9.7424 16.5576 -10.4112 23.0388 -0.5856 5.6448 -1.9652 6.8156 -3.3032 -0.2092 -5.812 -29.8124 31.6524 -55.5276 29.3524 -71.7092 -2.4252 -17.1432 -15.0108 -20.2372 -25.882 -15.2616 -16.2236 7.4844 -32.1124 33.8684 -38.2588 46.3288 -1.7564 2.5088 -3.136 9.324 -3.136 9.324 -5.854 -14.3836 6.732 -33.492 13.0036 -42.5652 2.718 -4.5996 8.6136 -10.1188 6.1468 -15.7216 -3.8052 -8.6972 -10.286 -8.488 -15.5544 -7.4428 -13.5892 2.7176 -28.8928 22.1608 -28.8928 22.1608 -0.502 -4.934 5.6448 -14.718 10.4112 -20.3212 11.8748 -14.3 37.4644 -16.8924 46.4124 4.8924 24.3352 -16.6416 50.1756 -6.6904 49.2136 24.4604 0.962 2.8432 11.624 -0.5436 24.5444 9.366 12.962 9.9096 8.948 32.4052 8.948 32.4052s12.962 1.3796 20.112 10.3696c6.6064 8.3208 7.6516 23.8752 3.512 32.614Z" fill="#7A4F38" stroke-width="1"></path><path d="M422.1192 304.6352s30.6068 -30.6488 41.6036 -37.7152 27.0532 -16.7252 27.5964 -14.0072 -25.5892 21.1156 -35.4152 32.656c-9.7844 11.582 -26.2588 30.9416 -26.2588 30.9416l-7.526 -11.8752Z" fill="#7A4F38" stroke-width="1"></path></svg>