<svg version="1.1" id="Herb--Streamline-Noto-Emoji.svg" xmlns="http://www.w3.org/2000/svg" xmlns:xlink="http://www.w3.org/1999/xlink" x="0" y="0" viewBox="0 0 512 512" xml:space="preserve" enable-background="new 0 0 128 128" height="512" width="512"><desc>Herb Streamline Emoji: https://streamlinehq.com</desc><path d="M338.3616 148.6548s-45.4192 11.9872 -108.6324 106.8076C180.9088 328.672 176.014 386.0372 135.1576 424.488c-20.7808 19.5364 -54.2956 32.934 -54.2956 32.934s-26.8364 -0.6224 -28.6616 0.622c-1.8252 1.2028 -7.176 14.642 2.862 31.1504 8.2956 13.6468 20.9468 17.0892 25.2192 17.67 4.272 0.6224 12.1944 -17.7112 15.264 -20.1584 3.0696 -2.4472 39.1144 -16.3012 64.7068 -44.5484 52.4704 -57.9868 51.6408 -108.3008 89.7184 -174.542 42.1008 -73.21 93.9904 -108.6328 93.9904 -108.6328l-5.5996 -10.328Z" fill="#5B9821" stroke-width="1"></path><path d="M496.7688 5.5536c-1.618 -1.7836 -105.1072 -0.2076 -158.2412 47.7832 -63.1304 56.9916 -46.0412 135.884 -46.0412 135.884s73.7076 17.4628 129.3304 -32.8924c64.8724 -58.6924 76.5696 -148.9916 74.952 -150.7748Z" fill="#5B9821" stroke-width="1"></path><path d="M288.1724 283.8752c3.4012 2.6548 8.2956 5.7656 15.3056 9.2496 39.6536 19.8268 89.1792 8.9596 113.4444 -0.6636 33.722 -13.3976 83.8284 -53.7148 83.8284 -56.784 0 -3.0696 -22.8136 -14.02 -55.2496 -23.6844s-75.7816 -10.1208 -108.7156 3.9404c-30.1964 12.9 -44.258 35.5888 -52.0144 49.1936 0 0 -12.0288 1.908 -20.7392 3.4012 -15.3472 2.6132 -27.1684 7.8812 -27.1684 7.8812l-11.8216 24.5552s24.0992 -10.9504 36.3768 -13.6048 26.7536 -3.4844 26.7536 -3.4844Z" fill="#5B9821" stroke-width="1"></path><path d="M213.1376 27.7032c-3.8576 0.788 -22.108 29.2836 -33.3076 56.5352 -8.8348 21.4444 -17.6696 76.238 -1.8664 110.0016s34.0956 40.1512 34.0956 40.1512 2.2396 9.8304 1.9908 23.0208c-0.1244 7.466 -0.8708 28.0392 -0.8708 28.0392l18.0432 -7.8392s1.2028 -17.2552 1.1196 -25.634c-0.1244 -8.8348 -1.2028 -19.9928 -1.2028 -19.9928s29.8232 -27.9148 32.0216 -71.26c1.742 -34.1784 -1.908 -65.9096 -20.7392 -100.1296 -14.7664 -26.6708 -27.0856 -33.3076 -29.284 -32.8928Z" fill="#5B9821" stroke-width="1"></path><path d="M11.9244 94.9816c-4.4796 5.1016 5.6828 17.96 6.5952 46.912 0.7052 23.6844 4.8116 103.9044 28.496 145.0924s56.5352 51.3092 67.0708 54.7936c10.5356 3.5256 33.3076 3.9404 33.3076 3.9404s9.6644 8.3372 13.1488 20.1584c3.5256 11.8216 7.0096 29.3672 7.0096 29.3672l16.6744 -24.5556s-4.8112 -19.2876 -9.6644 -28.0396c-4.8116 -8.752 -6.5952 -11.8212 -6.5952 -11.8212s10.66 -66.3244 -7.466 -120.9932c-21.4444 -64.8728 -58.2776 -89.428 -92.456 -103.9044S14.994 91.4972 11.9244 94.9816Z" fill="#5B9821" stroke-width="1"></path><path d="M196.5048 377.2852s7.8392 -4.77 21.8592 -5.102c12.8996 -0.2904 20.9052 2.1156 20.9052 2.1156s24.0992 -27.6664 51.06 -35.5888c25.4264 -7.466 58.9828 -14.1444 118.09 10.3696 59.19 24.5556 93.2024 48.3644 92.7876 55.8304 -0.4564 7.466 -58.6092 34.0956 -82.7084 42.3912 -24.0992 8.3372 -79.39 25.8412 -131.2384 5.8068 -41.1884 -15.9276 -50.3968 -53.922 -50.3968 -53.922s-9.54 -5.268 -20.4904 -4.6456c-20.034 1.0784 -36.916 16.052 -36.916 16.052l17.048 -33.3072Z" fill="#5B9821" stroke-width="1"></path><path d="M311.276 152.0976c6.5124 4.0232 22.8132 -36.8332 38.5752 -55.6644s45.1704 -38.1188 42.1008 -46.456 -37.704 3.5256 -61.3884 34.1784c-23.6428 30.694 -24.97 64.4576 -19.2876 67.942Z" fill="#8DC02C" stroke-width="1"></path><path d="M315.7144 255.006c4.7284 6.5124 26.422 -9.0008 48.2396 -14.0196 22.44 -5.1848 46.456 2.1152 45.5852 -10.0796 -0.8296 -11.5308 -32.8928 -12.6924 -53.9224 -7.0096s-45.5852 23.1864 -39.9024 31.1088Z" fill="#8DC02C" stroke-width="1"></path><path d="M197.3756 192.9956c8.0056 -0.332 5.268 -24.9704 5.6828 -48.2396s4.3964 -58.3192 -4.3968 -58.734c-8.752 -0.4564 -16.1352 22.6888 -16.6744 50.3964 -0.4148 22.8136 4.8528 56.992 15.3884 56.5772Z" fill="#8DC02C" stroke-width="1"></path><path d="M38.222 149.36c-5.2676 1.742 -1.5348 14.0196 -1.3272 19.7436 1.3272 37.7044 14.0196 96.0232 34.6344 121.4496 16.0108 19.744 34.1784 34.1784 46.4564 25.4264 12.2776 -8.752 -11.0748 -27.666 -22.8132 -46.456 -18.8316 -30.238 -30.6944 -68.8132 -36.8332 -87.686s-10.2036 -35.796 -20.1172 -32.4776Z" fill="#8DC02C" stroke-width="1"></path><path d="M267.4748 373.2616c0.788 11.4896 25.758 5.4752 52.2216 2.862s48.2396 -6.2632 47.2024 -15.9692c-0.954 -9.0424 -30.528 -9.9964 -53.8808 -8.3372 -23.3524 1.6592 -46.2484 11.1992 -45.5432 21.4444Z" fill="#8DC02D" stroke-width="1"></path></svg>