<svg version="1.1" id="High-Voltage--Streamline-Noto-Emoji.svg" xmlns="http://www.w3.org/2000/svg" xmlns:xlink="http://www.w3.org/1999/xlink" x="0" y="0" viewBox="0 0 512 512" xml:space="preserve" enable-background="new 0 0 128 128" height="512" width="512"><desc>High Voltage Streamline Emoji: https://streamlinehq.com</desc><path d="M281.9368 213.556s118.7256 -190.1988 121.4304 -194.9528c2.7048 -4.754 3.2788 -13.4832 -4.18 -13.4832s-192.412 188.8056 -192.412 188.8056L75.4268 271.7916s-8.8112 5.41 -7.4588 12.172 7.254 7.0488 9.9588 7.0488 142.8232 -0.7376 150.9788 -0.9836c10.1228 -0.2868 7.6228 14.098 7.6228 14.098l-88.6856 139.422s-38.7284 53.6048 -38.7284 57.252c0 5.3688 6.4752 8.0328 12.4996 4.426 4.672 -2.7868 306.7116 -258.7212 320.0308 -276.3024 3.6064 -4.7948 5.4504 -17.4176 -9.426 -17.4176s-133.3564 34.5072 -133.3564 34.5072l-16.9256 -32.458Z" fill="#FEB804" stroke-width="1"></path><path d="M261.1588 198.4336c-3.6476 4.9996 -4.6312 13.36 3.2376 13.852 7.8276 0.4508 167.8224 -0.7376 167.8224 -0.7376S317.9192 316.5856 283.33 347.9368s-149.1344 132.9056 -156.8392 140.0776c-7.5408 7.0488 -14.3848 13.524 -17.1716 12.6224 -0.4508 -0.1228 -1.0244 -2.5408 9.754 -20.286 9.8356 -16.188 104.2588 -174.4208 107.9472 -180.404 3.6884 -5.9836 6.926 -11.0656 8.7704 -13.852 1.844 -2.7868 7.8276 -17.9916 -4.6312 -17.9916s-155.7328 3.6884 -155.7328 3.6884 98.9724 -83.9724 127.578 -106.5536S393.7364 5.12 399.1872 5.12s-134.34 188.2728 -138.0284 193.3136Z" fill="#FFC927" stroke-width="1"></path><path d="M256.4048 282.0372c7.3768 -10.6144 14.6308 -11.3928 19.0156 -8.77 5.6556 3.4016 6.2296 11.2292 -0.9016 20.696 -11.2292 14.9996 -93.7672 125.4468 -96.9228 129.34 -5.9836 7.3768 -14.7948 4.1392 -9.0572 -6.5572 4.7948 -8.852 80.2432 -123.7252 87.866 -134.7088Z" fill="#FFE567" stroke-width="1"></path><path d="M139.1132 260.4808c-14.1388 9.4668 -27.294 -4.672 -17.8272 -15.0408s71.596 -62.088 84.1776 -72.7844S291.4856 98.068 297.182 93.478c7.5408 -6.0656 12.2128 0.0816 7.4588 6.3932 -4.7128 6.3112 -56.6376 58.1948 -79.5464 79.2596 -17.7044 16.3108 -72.5388 72.3336 -85.9812 81.35Z" fill="#FFE567" stroke-width="1"></path></svg>