<svg version="1.1" id="Incoming-Envelope--Streamline-Noto-Emoji.svg" xmlns="http://www.w3.org/2000/svg" xmlns:xlink="http://www.w3.org/1999/xlink" x="0" y="0" viewBox="0 0 512 512" xml:space="preserve" enable-background="new 0 0 128 128" height="512" width="512"><desc>Incoming Envelope Streamline Emoji: https://streamlinehq.com</desc><g><g><path d="M423.12 377.12H90.16c-8.48 0 -11.88 -5.44 -11.88 -12.12l56.48 -218.04c0 -6.68 5.32 -12.12 11.88 -12.12h332.96c6.56 0 11.88 5.44 11.88 12.12l-56.48 218.04c0 6.72 -5.32 12.12 -11.88 12.12z" fill="#FFFFFF" stroke-width="1"></path><path d="M491.28 144.24s-4.32 -4.8 -10 -0.28L307.36 259.08c-12 9.72 -28.48 9.68 -40.48 -0.08L145.72 141.96c-1.88 -1.6 -4.72 -1.32 -6.28 0.6 -1.56 1.92 -1.32 4.8 0.6 6.4l71.72 78.8 -129.56 140.72c-1.64 1.88 -1.92 3.48 -0.76 4.32 1.84 1.36 3 5 5.08 2.96L224.72 242l34.72 38.16c15.72 13.88 38.64 13.68 54.16 -0.48l38.68 -29.88 71.6 121.52c2.08 2.04 3.84 2.84 5.68 1.48 1.16 -0.84 6.16 -3.72 4.52 -5.6L367.64 237.92l118.08 -91.16c1.88 -1.64 5.56 -2.52 5.56 -2.52z" fill="#6FBFF0" stroke="#6FBFF0" stroke-width="1" stroke-miterlimit="10"></path><path d="M423.12 377.12H90.16c-8.48 0 -11.88 -5.44 -11.88 -12.12l56.48 -218.04c0 -6.68 5.32 -12.12 11.88 -12.12h332.96c6.56 0 11.88 5.44 11.88 12.12l-56.48 218.04c0 6.72 -5.32 12.12 -11.88 12.12z" fill="none" stroke="#6FBFF0" stroke-width="1" stroke-miterlimit="10"></path></g><path d="m20.52 144.44 86.24 0" fill="none" stroke="#B0BEC5" stroke-width="1" stroke-linecap="round" stroke-linejoin="round" stroke-miterlimit="10"></path><path d="m20.52 189.24 61.8 0" fill="none" stroke="#B0BEC5" stroke-width="1" stroke-linecap="round" stroke-linejoin="round" stroke-miterlimit="10"></path><path d="m20.52 189.24 50.08 0" fill="none" stroke="#B0BEC5" stroke-width="1" stroke-linecap="round" stroke-linejoin="round" stroke-miterlimit="10"></path><path d="m20.52 230.04 25.04 0" fill="none" stroke="#B0BEC5" stroke-width="1" stroke-linecap="round" stroke-linejoin="round" stroke-miterlimit="10"></path></g></svg>