<svg version="1.1" id="Laptop--Streamline-Noto-Emoji.svg" xmlns="http://www.w3.org/2000/svg" xmlns:xlink="http://www.w3.org/1999/xlink" x="0" y="0" viewBox="0 0 128 128" xml:space="preserve" enable-background="new 0 0 128 128" height="512" width="512" stroke-width="1"><desc>Laptop Streamline Emoji: https://streamlinehq.com</desc><g><path d="M106 24.79H22.15c-1.92 0-3.48 1.56-3.48 3.48v57.59c0 1.92 1.56 3.48 3.48 3.48H106c1.92 0 3.48-1.56 3.48-3.48V28.27c0-1.92-1.55-3.48-3.48-3.48z" fill="#B7D5E5"></path><radialGradient id="SVGID_1_" cx="48.408" cy="13.024" r="75.465" gradientTransform="matrix(1 0 0 1.0843 0 -10.19)" gradientUnits="userSpaceOnUse"><stop offset="0" stop-color="#2F7889"></stop><stop offset="1" stop-color="#424242"></stop></radialGradient><path d="m104.75 83.2-81.35 0 .96-52.27 79.43 0z" fill="url(#SVGID_1_)"></path><g><g><path d="M121.09 123.82H7.59c-.43 0-.83-.03-1.2-.09-2.88-.44-4.21-4.18-2.5-6.74l.39-.59h119.59l.4.6c1.86 2.78.12 6.76-3.04 6.81-.04.01-.09.01-.14.01z" fill="#2F7889"></path><path d="M106.84 90.41H20.6c-1.27 0-2.54.77-3.25 1.99l-14 25.48c-.59.88-.01 2.12.99 2.12H123.8c1 0 1.58-1.24.99-2.12l-14.71-25.63c-.7-1.08-1.97-1.84-3.24-1.84z" fill="#EEEEEE"></path></g><path d="m86.36 115.52-44.56 0 2.85-7.98 39.07 0z" fill="#B7D5E5"></path><g opacity=".57"><g><path d="m72.69 94.84-.27-2.2-3.44 0 .13 2.2z" fill="#69A1BA"></path><path d="m67.14 94.84-.14-2.2-3.45 0 0 2.2z" fill="#69A1BA"></path><path d="m93.61 94.84-.81-2.2-3.26 0 .68 2.2z" fill="#69A1BA"></path><path d="m88.36 94.84-.68-2.2-3.32 0 .54 2.2z" fill="#69A1BA"></path><path d="m83.18 94.84-.54-2.2-3.37 0 .41 2.2z" fill="#69A1BA"></path><path d="m102.11 94.84-.95-2.2-6.71 0 .82 2.2z" fill="#69A1BA"></path><path d="m77.61 94.84-.41-2.2-3.41 0 .28 2.2z" fill="#69A1BA"></path><path d="m33.76 94.84.68-2.2-3.26 0-.81 2.2z" fill="#69A1BA"></path><path d="m50.51 94.84.27-2.2-3.41 0-.4 2.2z" fill="#69A1BA"></path><path d="m39.35 94.84.54-2.2-3.32 0-.67 2.2z" fill="#69A1BA"></path><path d="m28.17 94.84.81-2.2-3.18 0-.95 2.2z" fill="#69A1BA"></path><path d="m44.93 94.84.41-2.2-3.37 0-.54 2.2z" fill="#69A1BA"></path><path d="m56.08 94.84.14-2.2-3.44 0-.27 2.2z" fill="#69A1BA"></path><path d="m61.65 94.84 0-2.2-3.45 0-.14 2.2z" fill="#69A1BA"></path></g><g><path d="m83.78 103.73-39.42 0-.75 2.2 41.08 0z" fill="#69A1BA"></path><path d="m102.15 105.93-1.21-2.2 6.54 0 .95 2.2z" fill="#69A1BA"></path><path d="m86.75 105.93-.83-2.2 6.29 0 .96 2.2z" fill="#69A1BA"></path><path d="m95.39 105.93-.96-2.2 4.31 0 1.1 2.2z" fill="#69A1BA"></path><path d="m25.67 105.93 1.21-2.2-6.54 0-.95 2.2z" fill="#69A1BA"></path><path d="m41.07 105.93.83-2.2-6.29 0-.96 2.2z" fill="#69A1BA"></path><path d="m32.42 105.93.97-2.2-4.31 0-1.11 2.2z" fill="#69A1BA"></path></g><g><path d="m29.71 98.51.82-2.19-6.67 0-.95 2.19z" fill="#69A1BA"></path><path d="m97.95 98.51-.81-2.19 6.66 0 .95 2.19z" fill="#69A1BA"></path><g><path d="m96.25 98.51-.96-2.19-3.85 0 .82 2.19z" fill="#69A1BA"></path><path d="m86.23 98.51-.65-2.19 3.85 0 .78 2.19z" fill="#69A1BA"></path><path d="m80.19 98.51-.47-2.19 3.85 0 .6 2.19z" fill="#69A1BA"></path><path d="m74.15 98.51-.28-2.19 3.84 0 .43 2.19z" fill="#69A1BA"></path><path d="m68.12 98.51-.11-2.19 3.85 0 .24 2.19z" fill="#69A1BA"></path><path d="m62.08 98.51.07-2.19 3.85 0 .06 2.19z" fill="#69A1BA"></path><path d="m56.04 98.51.25-2.19 3.85 0-.11 2.19z" fill="#69A1BA"></path><path d="m50.01 98.51.42-2.19 3.85 0-.29 2.19z" fill="#69A1BA"></path><path d="m43.97 98.51.6-2.19 3.85 0-.47 2.19z" fill="#69A1BA"></path><path d="m37.93 98.51.78-2.19 3.85 0-.64 2.19z" fill="#69A1BA"></path><path d="m31.9 98.51.95-2.19 3.85 0-.82 2.19z" fill="#69A1BA"></path></g></g><g><path d="m29.7 102.22.81-2.2-8.75 0-.95 2.2z" fill="#69A1BA"></path><g><path d="m95.87 102.22-.77-2.2-4.17 0 .64 2.2z" fill="#69A1BA"></path><path d="m84.93 102.22-.48-2.2 4.16 0 .62 2.2z" fill="#69A1BA"></path><path d="m78.28 102.22-.32-2.2 4.17 0 .45 2.2z" fill="#69A1BA"></path><path d="m71.64 102.22-.17-2.2 4.17 0 .3 2.2z" fill="#69A1BA"></path><path d="m65 102.22-.01-2.2 4.16 0 .15 2.2z" fill="#69A1BA"></path><path d="m58.36 102.22.14-2.2 4.17 0-.01 2.2z" fill="#69A1BA"></path><path d="m51.71 102.22.3-2.2 4.17 0-.17 2.2z" fill="#69A1BA"></path><path d="m45.07 102.22.46-2.2 4.16 0-.32 2.2z" fill="#69A1BA"></path><path d="m38.43 102.22.61-2.2 4.17 0-.48 2.2z" fill="#69A1BA"></path><path d="m31.78 102.22.77-2.2 4.17 0-.63 2.2z" fill="#69A1BA"></path></g><path d="m97.47 102.22-.82-2.2 8.75 0 .95 2.2z" fill="#69A1BA"></path></g></g></g></g><path d="M124.73 117.88 110.39 92.4c-.71-1.07-1.98-1.84-3.25-1.84 0 0 1.22 1.1 1.59 1.63l12.59 23.59c.56 1.02-.18 2.26-1.34 2.26H7.96c-1.15 0-1.89-1.23-1.35-2.24l11.95-23.18c.35-.6 1.88-1.99 1.88-1.99h-.45c-1.27 0-2.54.77-3.25 1.99L3.28 117.88c-.59.88-.01 2.12.99 2.12h119.46c1.01 0 1.59-1.24 1-2.12z" fill="#B7D5E5"></path><path d="m25.97 28.02 13.21 0" fill="none" stroke="#EEEEEE" stroke-width="2.936" stroke-linecap="round" stroke-miterlimit="10"></path><path d="M109.37 30.11c0-1.04-1.01-1.12-1.01.11l0 55.8c0 1.34-1.09 2.43-2.43 2.43H22.08c-1.34 0-2.43-1.09-2.43-2.43l0-55.8c0-1.23-1.01-1.15-1.01-.11l-.95 55.91c0 2.42 1.24 4.39 4.39 4.39h83.85c2.73 0 4.39-1.97 4.39-4.39l-.95-55.91z" fill="#75A7BC"></path></svg>