<svg version="1.1" id="Light-Bulb--Streamline-Noto-Emoji.svg" xmlns="http://www.w3.org/2000/svg" xmlns:xlink="http://www.w3.org/1999/xlink" x="0" y="0" viewBox="0 0 512 512" xml:space="preserve" enable-background="new 0 0 128 128" height="512" width="512"><desc>Light Bulb Streamline Emoji: https://streamlinehq.com</desc><g><g><path d="M207.64 467.48a48.36 28.52 0 1 0 96.72 0 48.36 28.52 0 1 0 -96.72 0" fill="#424242" stroke-width="1"></path><path d="M256 16C171.68 16 103.28 78.68 103.28 155.96c0 20.16 6.08 41.72 15 60.72 12.52 26.72 26.16 46.48 30.16 53.76 11.12 20.24 9.52 41.56 12.6 54.92 5.8 24.96 23.16 34 94.92 34s87.2 -8.6 93.64 -31.6c4.4 -15.64 0.12 -32.72 11.2 -52.92 4 -7.28 20.28 -31.4 32.84 -58.16 8.92 -19 15 -40.56 15 -60.72C408.72 78.68 340.32 16 256 16z" fill="#FFD600" stroke-width="1"></path><path d="M168.24 344.52a87.76 17.84 0 1 0 175.52 0 87.76 17.84 0 1 0 -175.52 0" fill="#B26500" stroke-width="1"></path><path d="M168.24 344.52a87.76 17.84 0 1 0 175.52 0 87.76 17.84 0 1 0 -175.52 0" fill="#B26500" stroke-width="1"></path><path d="M192.04 344.52a63.96 8.24 0 1 0 127.92 0 63.96 8.24 0 1 0 -127.92 0" fill="#FFA000" stroke-width="1"></path><g><path d="M213.2 227.08c-2.48 6.24 -8.92 19.08 -5.56 24.84 7.8 13.4 26.4 18.2 26.4 30.52 0 18.8 -13.68 79.72 -13.68 79.72" fill="none" stroke="#B26500" stroke-width="1" stroke-miterlimit="10"></path><path d="M296.12 224.84s8.96 19.2 5.16 27.8c-2.84 6.4 -19.92 16.72 -22.12 18.44 -10.2 8 3.36 91.12 3.36 91.12" fill="none" stroke="#B26500" stroke-width="1" stroke-miterlimit="10"></path><path d="M213.2 227.08c13.76 -27.2 20.84 -89.28 3.36 -86.12 -29.48 5.32 6.84 107.32 24.72 95.6s40.04 -95.4 12.84 -95.72c-27.2 -0.32 1.84 106.64 20.32 94.76 14.6 -9.4 50.24 -94.64 20.96 -94.64 -24.92 0 0.76 83.88 0.76 83.88" fill="none" stroke="#FFFFFF" stroke-width="1" stroke-miterlimit="10"></path></g><path d="M343.56 348.24S320.52 359.36 256 359.36s-87.56 -11.12 -87.56 -11.12 -1.44 20.56 3.32 29.88c5.72 11.2 10.12 15.08 10.12 15.08l2.4 11.4 -0.96 3c-1.24 3.92 -0.36 8.24 2.4 11.32l2.08 2.32 2.32 10.96 -0.8 2.2c-1.52 4.2 -0.48 8.88 2.64 12.08l1.52 1.56 1.88 8.96s9.52 20.32 60.64 20.32 60.64 -20.32 60.64 -20.32l0.16 -0.76 1.04 -1.04c2.08 -2.04 2.76 -5.08 1.76 -7.8l-0.6 -1.56 2.48 -11.84 4.36 -4.6c2.16 -2.28 2.64 -5.64 1.24 -8.44l-2 -3.96 2.52 -11.88 1.6 -1.24c2.36 -2.6 2.4 -6.52 1.36 -9.2 -0.8 -2.12 -0.16 -4.52 1.48 -6.08 2.52 -2.4 5.76 -6.04 8.16 -10.56 4.92 -9.16 3.36 -29.8 3.36 -29.8z" fill="#82AEC0" stroke-width="1"></path><g><g><path d="m181.88 393.2 2.16 11.48c23.28 -0.12 54.36 1.04 114 -8.44 10.76 -2.44 23.68 -7.28 9.4 -5.28 0 -0.04 -54.76 5.2 -125.56 2.24z" fill="#2F7889" stroke-width="1"></path></g><g><path d="M189.88 432.28c25.76 -0.44 78.4 -3 134.96 -15.28l2.52 -11.88c-59.16 13.44 -114.8 15.84 -139.8 16.16l2.32 11z" fill="#2F7889" stroke-width="1"></path></g></g><path d="M321.24 433.96c-52.36 11.36 -101.36 14.28 -127.88 14.92l1.72 8.16s0.84 25.32 60.64 25.32 60.64 -25.32 60.64 -25.32 -25.52 7.28 -56.92 3.72c-3.2 -0.36 -3.24 -4.64 -0.04 -5.04 18.76 -2.48 41.16 -6.16 59.36 -9.92l2.48 -11.84z" fill="#2F7889" stroke-width="1"></path><path d="M168.72 348.24s25.84 11.12 87.04 11.12 87.52 -11.12 87.52 -11.12" fill="none" stroke="#82AEC0" stroke-width="1" stroke-linecap="round" stroke-miterlimit="10"></path><path d="M199.52 41.28c15.64 -3.84 32 -1.92 43.2 11.68 3.16 3.84 5.6 8.4 6.16 13.36 1.12 9.56 -4.8 18.6 -11.84 25.24 -20.08 18.96 -48.6 28.16 -61.56 54.32 -3.04 6.12 -5.44 12.72 -10.08 17.72 -4.64 5 -12.36 8.04 -18.4 4.84 -3.2 -1.68 -5.4 -4.84 -7.2 -8 -11.36 -20.24 -10.52 -46.04 -0.52 -67 11 -22.96 35.12 -46 60.24 -52.16z" fill="#FFFF8D" stroke-width="1"></path><path d="M185.8 367.72c-3.52 -1.6 -2.12 -6.88 1.72 -6.6 12.88 1 34.8 2.24 63.8 2.24 30.56 0 57.44 -2.28 73.12 -3.96 3.88 -0.4 5.36 4.92 1.8 6.56 -12.08 5.68 -34.2 12.16 -72.12 12.16 -37 0 -57.4 -5.48 -68.32 -10.4z" fill="#FFD600" stroke-width="1"></path><path d="M207.76 408.12c-2.68 0.96 -5.44 2.28 -6.8 4.76 -0.48 0.92 -0.76 1.96 -0.56 3 0.32 1.52 1.72 2.6 3.12 3.28 2.8 1.36 5.96 1.72 9.04 1.76 6.36 0.08 12.68 -1.12 18.96 -2.32 1.88 -0.36 3.8 -0.72 5.48 -1.64 1.68 -0.92 3.12 -2.48 3.4 -4.36 0.4 -2.52 -1.4 -4.96 -3.6 -6.16 -7.6 -4.2 -21.36 -1.08 -29.04 1.68z" fill="#94D1E0" stroke-width="1"></path><path d="M213.72 434.48c-2.68 0.96 -5.44 2.28 -6.8 4.76 -0.48 0.92 -0.76 1.96 -0.56 3 0.32 1.52 1.72 2.6 3.12 3.28 2.8 1.36 5.96 1.72 9.04 1.76 6.36 0.08 12.68 -1.12 18.96 -2.32 1.88 -0.36 3.8 -0.72 5.48 -1.64 1.68 -0.92 3.12 -2.48 3.4 -4.36 0.4 -2.52 -1.4 -4.96 -3.6 -6.16 -7.6 -4.16 -21.4 -1.04 -29.04 1.68z" fill="#94D1E0" stroke-width="1"></path><path d="M200.04 336.8c3.64 0.36 7.48 0.04 10.56 -1.92s5.04 -5.96 3.8 -9.4c-0.64 -1.8 -2.04 -3.24 -3.4 -4.6 -3 -2.96 -6 -5.92 -8.96 -8.88 -3.32 -3.32 -6.64 -6.6 -10.24 -9.6 -5.56 -4.64 -13.04 -9 -20.36 -5.6 -6.24 2.88 -7.72 8.56 -4.96 14.52 5.88 12.52 19.56 24.04 33.56 25.48z" fill="#FFFF8D" stroke-width="1"></path></g></g></svg>