<svg version="1.1" id="Mobile-Phone--Streamline-Noto-Emoji.svg" xmlns="http://www.w3.org/2000/svg" xmlns:xlink="http://www.w3.org/1999/xlink" x="0" y="0" viewBox="0 0 512 512" xml:space="preserve" enable-background="new 0 0 128 128" height="512" width="512"><desc>Mobile Phone Streamline Emoji: https://streamlinehq.com</desc><g><path d="M349.6 496H162.4c-18.8 0 -34.4 -15.2 -34.4 -34.4V50.4C128 31.6 143.6 16 162.4 16h187.2c18.8 0 34.4 15.2 34.4 34.4v411.6c0 18.8 -15.6 34 -34.4 34z" fill="#424242" stroke-width="1"></path><g><path d="M347.08 480.44H159.72c-8.6 0 -15.56 -6.96 -15.56 -15.56V78.6c0 -8.56 6.96 -15.52 15.52 -15.52h192.6c8.6 0 15.56 6.96 15.56 15.56v383.72c0 3.72 -5.6 18.08 -20.76 18.08z" stroke-width="1"></path></g><path d="M294.6 46.36h-76.8c-2.8 0 -4.8 -2.4 -4.8 -4.8s2.4 -4.8 4.8 -4.8h76.4c2.8 0 4.8 2.4 4.8 4.8s-2 4.8 -4.4 4.8z" fill="#212121" stroke-width="1"></path><g><path d="M349.6 24c14.56 0 26.4 11.84 26.4 26.4v411.6c0 14.32 -11.84 26 -26.4 26H162.4c-14.56 0 -26.4 -11.84 -26.4 -26.4V50.4C136 36.08 148.08 24 162.4 24h187.2m0 -8H162.4C143.6 16 128 31.6 128 50.4v411.2c0 19.2 15.6 34.4 34.4 34.4h187.2c18.8 0 34.4 -15.2 34.4 -34V50.4C384 31.2 368.4 16 349.6 16z" fill="#757575" stroke-width="1"></path></g><g><path d="M193.4 119.84h-25.44c-2.92 0 -5.28 -2.36 -5.28 -5.28v-25.44c0 -2.92 2.36 -5.28 5.28 -5.28h25.44c2.92 0 5.28 2.36 5.28 5.28v25.44c0 2.92 -2.36 5.28 -5.28 5.28z" fill="#EAB56E" stroke-width="1"></path><path d="M243.6 119.84h-25.44c-2.92 0 -5.28 -2.36 -5.28 -5.28v-25.44c0 -2.92 2.36 -5.28 5.28 -5.28h25.44c2.92 0 5.28 2.36 5.28 5.28v25.44c0 2.92 -2.36 5.28 -5.28 5.28z" fill="#FB8C00" stroke-width="1"></path><path d="M293.8 119.84H268.4c-2.92 0 -5.28 -2.36 -5.28 -5.28v-25.44c0 -2.92 2.36 -5.28 5.28 -5.28h25.44c2.92 0 5.28 2.36 5.28 5.28v25.44c0 2.92 -2.36 5.28 -5.32 5.28z" fill="#FF80AB" stroke-width="1"></path><path d="M344.04 119.84h-25.44c-2.92 0 -5.28 -2.36 -5.28 -5.28v-25.44c0 -2.92 2.36 -5.28 5.28 -5.28h25.44c2.92 0 5.28 2.36 5.28 5.28v25.44c0 2.92 -2.36 5.28 -5.28 5.28z" fill="#0288D1" stroke-width="1"></path><path d="M193.4 176.48h-25.44c-2.92 0 -5.28 -2.36 -5.28 -5.28v-25.44c0 -2.92 2.36 -5.28 5.28 -5.28h25.44c2.92 0 5.28 2.36 5.28 5.28v25.44c0 2.92 -2.36 5.28 -5.28 5.28z" fill="#00BFA5" stroke-width="1"></path><path d="M243.6 176.48h-25.44c-2.92 0 -5.28 -2.36 -5.28 -5.28v-25.44c0 -2.92 2.36 -5.28 5.28 -5.28h25.44c2.92 0 5.28 2.36 5.28 5.28v25.44c0 2.92 -2.36 5.28 -5.28 5.28z" fill="#81D4FA" stroke-width="1"></path><path d="M293.8 176.48H268.4c-2.92 0 -5.28 -2.36 -5.28 -5.28v-25.44c0 -2.92 2.36 -5.28 5.28 -5.28h25.44c2.92 0 5.28 2.36 5.28 5.28v25.44c0 2.92 -2.36 5.28 -5.32 5.28z" fill="#FB8C00" stroke-width="1"></path><path d="M344.04 176.48h-25.44c-2.92 0 -5.28 -2.36 -5.28 -5.28v-25.44c0 -2.92 2.36 -5.28 5.28 -5.28h25.44c2.92 0 5.28 2.36 5.28 5.28v25.44c0 2.92 -2.36 5.28 -5.28 5.28z" fill="#EAB56E" stroke-width="1"></path><path d="M193.4 233.12h-25.44c-2.92 0 -5.28 -2.36 -5.28 -5.28V202.4c0 -2.92 2.36 -5.28 5.28 -5.28h25.44c2.92 0 5.28 2.36 5.28 5.28v25.44c0 2.92 -2.36 5.28 -5.28 5.28z" fill="#FB8C00" stroke-width="1"></path><path d="M243.6 233.12h-25.44c-2.92 0 -5.28 -2.36 -5.28 -5.28V202.4c0 -2.92 2.36 -5.28 5.28 -5.28h25.44c2.92 0 5.28 2.36 5.28 5.28v25.44c0 2.92 -2.36 5.28 -5.28 5.28z" fill="#FF80AB" stroke-width="1"></path><path d="M293.8 233.12H268.4c-2.92 0 -5.28 -2.36 -5.28 -5.28V202.4c0 -2.92 2.36 -5.28 5.28 -5.28h25.44c2.92 0 5.28 2.36 5.28 5.28v25.44c0 2.92 -2.36 5.28 -5.32 5.28z" fill="#00BFA5" stroke-width="1"></path><path d="M344.04 233.12h-25.44c-2.92 0 -5.28 -2.36 -5.28 -5.28V202.4c0 -2.92 2.36 -5.28 5.28 -5.28h25.44c2.92 0 5.28 2.36 5.28 5.28v25.44c0 2.92 -2.36 5.28 -5.28 5.28z" fill="#0288D1" stroke-width="1"></path><path d="M193.4 289.76h-25.44c-2.92 0 -5.28 -2.36 -5.28 -5.28v-25.44c0 -2.92 2.36 -5.28 5.28 -5.28h25.44c2.92 0 5.28 2.36 5.28 5.28v25.44c0 2.92 -2.36 5.28 -5.28 5.28z" fill="#0288D1" stroke-width="1"></path><path d="M243.6 289.76h-25.44c-2.92 0 -5.28 -2.36 -5.28 -5.28v-25.44c0 -2.92 2.36 -5.28 5.28 -5.28h25.44c2.92 0 5.28 2.36 5.28 5.28v25.44c0 2.92 -2.36 5.28 -5.28 5.28z" fill="#81D4FA" stroke-width="1"></path><path d="M193.4 459.68h-25.44c-2.92 0 -5.28 -2.36 -5.28 -5.28v-25.44c0 -2.92 2.36 -5.28 5.28 -5.28h25.44c2.92 0 5.28 2.36 5.28 5.28v25.44c0 2.88 -2.36 5.28 -5.28 5.28z" fill="#81D4FA" stroke-width="1"></path><path d="M243.6 459.68h-25.44c-2.92 0 -5.28 -2.36 -5.28 -5.28v-25.44c0 -2.92 2.36 -5.28 5.28 -5.28h25.44c2.92 0 5.28 2.36 5.28 5.28v25.44c0 2.88 -2.36 5.28 -5.28 5.28z" fill="#0288D1" stroke-width="1"></path><path d="M293.8 459.68H268.4c-2.92 0 -5.28 -2.36 -5.28 -5.28v-25.44c0 -2.92 2.36 -5.28 5.28 -5.28h25.44c2.92 0 5.28 2.36 5.28 5.28v25.44c0 2.88 -2.36 5.28 -5.32 5.28z" fill="#00BFA5" stroke-width="1"></path><path d="M344.04 459.68h-25.44c-2.92 0 -5.28 -2.36 -5.28 -5.28v-25.44c0 -2.92 2.36 -5.28 5.28 -5.28h25.44c2.92 0 5.28 2.36 5.28 5.28v25.44c0 2.88 -2.36 5.28 -5.28 5.28z" fill="#FF80AB" stroke-width="1"></path></g></g></svg>