<svg version="1.1" xmlns="http://www.w3.org/2000/svg" xmlns:xlink="http://www.w3.org/1999/xlink" x="0" y="0" viewBox="0 0 128 128" xml:space="preserve" enable-background="new 0 0 128 128" id="Money-Bag--Streamline-Noto-Emoji.svg" height="512" width="512" stroke-width="1"><desc>Money Bag Streamline Emoji: https://streamlinehq.com</desc><g id="Layer_1" display="none"><linearGradient id="SVGID_1_" gradientUnits="userSpaceOnUse" x1="63.888" y1="123.969" x2="63.888" y2="4.018"><stop offset="0" stop-color="#FFB74D"></stop><stop offset="1" stop-color="#FFE0B2"></stop></linearGradient><path d="M107.8 75.85c-1.58-2.84-3.49-5.53-5.48-8.11-2.92-3.8-6.04-7.45-8.71-11.42-2.67-3.96-4.69-8.13-8.1-11.6-3.07-3.22-6.95-5.39-11.04-6.33-1.54-.55-2.96-1.48-3.98-2.47H71v-3.99h-.76c.01-1 .12-1.32.35-1.89 1.55-4.45 2.97-8.86 4.52-13.31.36-1.08.71-2.09 1.43-2.93.83-1.08 2.14-1.83 3.09-2.91.95-1.08 1.31-2.9.12-3.86-2.02-.36-4.16-.13-6.07.72.59-1.08-.12-2.53-1.19-3.13-1.07-.6-2.38-.6-3.57-.6-2.86 0-5.83.12-8.68.12-1.31 0-2.86.12-3.69 1.08-.48.48-.59 1.08-1.07 1.56-1.31 1.44-3.57.96-5.47.6s-4.4-.12-5 1.8c-.12.72 0 1.32.12 2.04 1.55 6.25 4.37 13.22 8.17 18.38.61 1.01.66 1.32 1.03 2.32H54v3.54c0 .54-2.15 1.48-2.55 1.7-4.71 2.57-8.98 6.85-12.75 10.61-3.99 3.97-7.63 8.28-10.89 12.87-5.38 7.57-11.08 16.46-11.71 25.93-.34 5.03.76 10.3 3.31 14.67 2.93 5.02 7.48 9.22 11.94 12.89 4.45 3.66 9.65 6.43 15.18 8.06.06.02.11.03.17.05 11.8 3.45 25.38 1.33 36.69-3.03 7.62-2.94 14.37-7.4 20.24-13.07 2.98-2.88 5.55-6.26 6.97-10.15 2.48-6.89.66-13.93-2.8-20.14z" display="inline" fill="url(#SVGID_1_)"></path><g display="inline" opacity=".2"><path d="M68.92 7.02c.62 0 1.36 0 1.82.12-.19.93.06 1.92.73 2.64.58.63 1.39.97 2.21.97.41 0 .82-.08 1.21-.26.37-.16.76-.29 1.15-.39-.61.5-1.27 1.08-1.84 1.81-1.01 1.22-1.5 2.53-1.93 3.83-.78 2.24-1.54 4.5-2.27 6.69-.72 2.15-1.47 4.38-2.23 6.56-.35.89-.52 1.57-.53 2.9-.01.75.26 1.48.76 2.03v.31c-.11.17-.21.35-.29.55-.46 1.13-.19 2.42.68 3.28 1.39 1.36 3.19 2.48 5.07 3.15.11.04.23.07.34.1 3.62.83 6.92 2.72 9.57 5.5 2.15 2.19 3.73 4.77 5.41 7.49.74 1.21 1.51 2.45 2.34 3.69 1.91 2.83 4.03 5.51 6.08 8.09.91 1.14 1.84 2.32 2.74 3.49 2.28 2.97 3.95 5.43 5.24 7.74 3.61 6.49 4.48 12.43 2.58 17.66-1.12 3.07-3.21 6.11-6.23 9.02-5.74 5.54-12.21 9.72-19.24 12.43-7.71 2.97-15.63 4.55-22.9 4.55-4.24 0-8.23-.54-11.86-1.6l-.16-.05c-5.1-1.5-9.99-4.09-14.13-7.5-3.99-3.28-8.45-7.29-11.25-12.08-2.18-3.74-3.21-8.34-2.9-12.96.56-8.42 5.7-16.7 11.16-24.4 3.16-4.44 6.71-8.64 10.56-12.48l.08-.08c3.61-3.6 7.7-7.68 11.99-10.02.05-.03.13-.07.23-.11 1.73-.85 3.89-1.91 3.89-4.22V33.3c.38-.74.44-1.61.15-2.4-.06-.18-.12-.33-.17-.47-.28-.8-.49-1.34-1.12-2.37-.05-.08-.1-.15-.15-.22-3.23-4.38-6.01-10.65-7.65-17.21l-.01-.04c-.02-.11-.04-.21-.05-.3.14-.02.31-.04.52-.04.29 0 .61.03.92.09l.17.03c.98.19 2.09.4 3.25.4 2 0 3.61-.64 4.79-1.91.5-.52.79-1.05.98-1.4.03-.05.06-.11.09-.16.15-.05.54-.15 1.51-.15 1.46 0 2.96-.03 4.4-.06 1.43-.04 2.89-.07 4.29-.07m0-3c-2.86 0-5.83.12-8.68.12-1.31 0-2.86.12-3.69 1.08-.48.48-.59 1.08-1.07 1.56-.68.75-1.61.98-2.61.98-.94 0-1.94-.2-2.86-.38-.47-.09-.97-.14-1.47-.14-1.54 0-3.07.49-3.52 1.94-.12.72 0 1.32.12 2.04 1.55 6.25 4.37 13.22 8.17 18.38.61 1.01.66 1.32 1.03 2.32H54v3.54c0 .54-2.15 1.48-2.55 1.7-4.71 2.57-8.98 6.85-12.75 10.61-3.99 3.97-7.63 8.28-10.89 12.87-5.38 7.57-11.08 16.47-11.71 25.93-.34 5.03.76 10.3 3.31 14.67 2.93 5.02 7.48 9.22 11.94 12.89 4.45 3.66 9.65 6.43 15.18 8.06.06.02.11.03.17.05 4.08 1.19 8.37 1.72 12.71 1.72 8.21 0 16.58-1.89 23.98-4.75 7.62-2.94 14.37-7.4 20.24-13.07 2.98-2.88 5.55-6.26 6.97-10.15 2.51-6.9.68-13.94-2.78-20.15-1.58-2.84-3.49-5.53-5.48-8.11-2.92-3.8-6.04-7.45-8.71-11.42-2.67-3.96-4.69-8.13-8.1-11.6-3.07-3.22-6.95-5.39-11.04-6.33-1.54-.55-2.96-1.48-3.98-2.47H71v-3.99h-.76c.01-1 .12-1.32.35-1.89 1.55-4.45 2.97-8.86 4.52-13.31.36-1.08.71-2.09 1.43-2.93.83-1.08 2.14-1.83 3.09-2.91.95-1.08 1.31-2.9.12-3.86-.61-.11-1.23-.16-1.86-.16-1.44 0-2.88.29-4.21.88.59-1.08-.12-2.53-1.19-3.13-1.07-.59-2.38-.59-3.57-.59z" fill="#424242"></path></g><path d="M65.17 35.14c-3.04-3.76-.85-4.21-1.94-7.55-.96-2.95-2.85-5.84-5.7-8.6-.07.31.36 1.62.4 1.93.72 3.03-.56 5.99.74 9.06 1.05 2.47 3.43 3.7 6.13 6.06.14-.3.65-.55.37-.9z" display="inline" opacity=".2" fill="#212121"></path><g display="inline"><path d="M71.26 36.7H53.57c-1.48 0-2.69-1.21-2.69-2.69s1.21-2.69 2.69-2.69h17.69c1.48 0 2.69 1.21 2.69 2.69s-1.21 2.69-2.69 2.69z" fill="#6D4C41"></path></g><g display="inline" opacity=".2"><g><path d="M71.26 32.32c.93 0 1.69.76 1.69 1.69s-.76 1.69-1.69 1.69H53.57c-.93 0-1.69-.76-1.69-1.69s.76-1.69 1.69-1.69h17.69m0-1H53.57c-1.48 0-2.69 1.21-2.69 2.69s1.21 2.69 2.69 2.69h17.69c1.48 0 2.69-1.21 2.69-2.69s-1.21-2.69-2.69-2.69z" fill="#424242"></path></g></g><linearGradient id="SVGID_3_" gradientUnits="userSpaceOnUse" x1="62.417" y1="112" x2="62.417" y2="50"><stop offset=".002" stop-color="#5D4037"></stop><stop offset="1" stop-color="#795548"></stop></linearGradient><path d="M77.39 92.77c0-2.28-.44-4.26-1.3-5.96-.87-1.7-2.22-3.18-4.06-4.46-1.66-1.15-3.91-2.22-6.74-3.2l.19-16.28c1.35.41 2.48 1.19 3.41 2.34 1.23 1.53 1.94 3.3 2.11 5.75.05.7.6 1.04 1.31 1.04h3.32c.74 0 1.35-.39 1.31-1.12-.19-3.77-.95-6.68-2.75-8.95C72.18 59.4 69 58 66 57.51v-5.59c0-.83-1.13-1.91-1.96-1.91h-1.81C61.41 50 61 51.09 61 51.91v4.1l-.15 1.46c-3.58.43-6.46 1.77-8.5 4.02-2.05 2.25-3.11 5.14-3.11 8.66 0 3.46 1.03 6.31 3.12 8.55 1.79 1.92 4.48 3.52 8.08 4.82l-.19 16.7c-1.87-.31-3.38-1.06-4.54-2.24-1.36-1.39-2.13-3.35-2.31-5.77-.05-.67-.63-1.22-1.3-1.22h-3.35c-.74 0-1.35.66-1.31 1.4.22 3.62 1.24 6.56 3.26 8.77 2.27 2.48 5.29 3.92 9.29 4.29v4.66c0 .83.86 1.89 1.69 1.89h1.78c.83 0 1.54-1.06 1.54-1.89v-3.29l0-1.36c3.92-.41 6.96-1.72 9.14-3.93 2.17-2.21 3.25-5.13 3.25-8.76zM57.31 75.29c-1.43-1.3-2.14-3.05-2.14-5.24 0-2.37.68-4.21 2.03-5.53.89-.87 2.05-1.45 3.47-1.75l-.17 14.55c-1.34-.64-2.41-1.32-3.19-2.03zm11.71 23.08c-1.06.89-2.39 1.49-3.98 1.79l.18-14.89c1.81.8 3.2 1.66 4.14 2.57 1.38 1.35 2.08 3.02 2.08 4.99-.01 2.34-.81 4.19-2.42 5.54z" display="inline" fill="url(#SVGID_3_)"></path></g><g id="Layer_1_copy"><g><linearGradient id="SVGID_4_" gradientUnits="userSpaceOnUse" x1="90.788" y1="52.233" x2="90.788" y2="52.233" gradientTransform="rotate(7.146 174.793 -143.38)"><stop offset=".002" stop-color="#5D4037"></stop><stop offset="1" stop-color="#795548"></stop></linearGradient><path d="M67.11 40.26" fill="none" stroke="url(#SVGID_4_)" stroke-width="6.521" stroke-linecap="round" stroke-miterlimit="10"></path><g><g><path d="M93.46 39.45c6.71-1.49 15.45-8.15 16.78-11.43.78-1.92-3.11-4.92-4.15-6.13-2.38-2.76-1.42-4.12-.5-7.41 1.05-3.74-1.44-7.87-4.97-9.49s-7.75-1.11-11.3.47-6.58 4.12-9.55 6.62c-2.17-1.37-5.63-7.42-11.23-3.49-3.87 2.71-4.22 8.61-3.72 13.32 1.17 10.87 3.85 16.51 8.9 18.03 6.38 1.92 13.44.91 19.74-.49z" fill="#FFCA28"></path><path d="M104.36 8.18c-.85 14.65-15.14 24.37-21.92 28.65l4.4 3.78s2.79.06 6.61-1.16c6.55-2.08 16.12-7.96 16.78-11.43.97-5.05-4.21-3.95-5.38-7.94-.61-2.11 2.97-6.1-.49-11.9z" fill="#E2A610"></path><path d="M79.78 12.09s-2.55-2.61-4.44-3.8c-.94 1.77-1.61 3.69-1.94 5.67-.59 3.48 0 8.42 1.39 12.1.22.57 1.04.48 1.13-.12 1.2-7.91 3.86-13.85 3.86-13.85z" fill="#E2A610"></path></g><path d="M61.96 38.16S30.77 41.53 16.7 68.61s-2.11 43.5 10.55 49.48c12.66 5.98 44.56 8.09 65.31 3.17s25.94-15.12 24.97-24.97c-1.41-14.38-14.77-23.22-14.77-23.22s.53-17.76-13.25-29.29c-12.23-10.24-27.55-5.62-27.55-5.62z" fill="#FFCA28"></path></g><path d="M74.76 83.73c-6.69-8.44-14.59-9.57-17.12-12.6-1.38-1.65-2.19-3.32-1.88-5.39.33-2.2 2.88-3.72 4.86-4.09 2.31-.44 7.82-.21 12.45 4.2 1.1 1.04.7 2.66.67 4.11-.08 3.11 4.37 6.13 7.97 3.53 3.61-2.61.84-8.42-1.49-11.24-1.76-2.13-8.14-6.82-16.07-7.56-2.23-.21-11.2-1.54-16.38 8.31-1.49 2.83-2.04 9.67 5.76 15.45 1.63 1.21 10.09 5.51 12.44 8.3 4.07 4.83 1.28 9.08-1.9 9.64-8.67 1.52-13.58-3.17-14.49-5.74-.65-1.83.03-3.81-.81-5.53-.86-1.77-2.62-2.47-4.48-1.88-6.1 1.94-4.16 8.61-1.46 12.28 2.89 3.93 6.44 6.3 10.43 7.6 14.89 4.85 22.05-2.81 23.3-8.42.92-4.11.82-7.67-1.8-10.97z" fill="#6B4B46"></path><path d="M71.16 48.99c-12.67 27.06-14.85 61.23-14.85 61.23" fill="none" stroke="#6B4B46" stroke-width="5" stroke-miterlimit="10"></path><path d="M81.67 31.96c8.44 2.75 10.31 10.38 9.7 12.46-.73 2.44-10.08-7.06-23.98-6.49-4.86.2-3.45-2.78-1.2-4.5 2.97-2.27 7.96-3.91 15.48-1.47z" fill="#6D4C41"></path><path d="M81.67 31.96c8.44 2.75 10.31 10.38 9.7 12.46-.73 2.44-10.08-7.06-23.98-6.49-4.86.2-3.45-2.78-1.2-4.5 2.97-2.27 7.96-3.91 15.48-1.47z" fill="#6B4B46"></path></g><path d="M96.49 58.86c1.06-.73 4.62.53 5.62 7.5.49 3.41.64 6.71.64 6.71s-4.2-3.77-5.59-6.42c-1.75-3.35-2.43-6.59-.67-7.79z" fill="#E2A610"></path></g><g id="Layer_2" display="none"><g display="inline"><g opacity=".6"><path d="M36 64a28 28 0 1 0 56 0 28 28 0 1 0-56 0" opacity=".61" fill="none" stroke="#000000" stroke-width=".263" stroke-miterlimit="10"></path><path d="m83.5 0 0 128" opacity=".61" fill="none" stroke="#000000" stroke-miterlimit="10"></path><path d="m43.5 0 0 128" opacity=".61" fill="none" stroke="#000000" stroke-miterlimit="10"></path><path d="m63.5 0 0 128" opacity=".61" fill="none" stroke="#000000" stroke-miterlimit="10"></path><path d="m128 64.5-128 0" opacity=".61" fill="none" stroke="#000000" stroke-miterlimit="10"></path><path d="m128 44.5-128 0" opacity=".61" fill="none" stroke="#000000" stroke-miterlimit="10"></path><path d="m128 83.5-128 0" opacity=".61" fill="none" stroke="#000000" stroke-miterlimit="10"></path><path d="M128 128 0 0" opacity=".61" fill="none" stroke="#000000" stroke-width=".25" stroke-miterlimit="10"></path><path d="M0 128 128 0" opacity=".61" fill="none" stroke="#000000" stroke-width=".25" stroke-miterlimit="10"></path><g opacity=".61"><g><path d="M64 4.26c32.94 0 59.74 26.8 59.74 59.74S96.94 123.74 64 123.74 4.26 96.94 4.26 64 31.06 4.26 64 4.26M64 4C30.86 4 4 30.86 4 64s26.86 60 60 60 60-26.86 60-60S97.14 4 64 4z"></path></g></g><path d="M115.5 108.47c0 4.43-3.59 8.03-8.03 8.03H19.53c-4.43 0-8.03-3.59-8.03-8.03V20.53c0-4.43 3.59-8.03 8.03-8.03h87.94c4.43 0 8.03 3.59 8.03 8.03v87.94z" opacity=".61" fill="none" stroke="#000000" stroke-miterlimit="10"></path><path d="M107.5 116.5c0 4.42-3.58 8-8 8h-72c-4.42 0-8-3.58-8-8v-104c0-4.42 3.58-8 8-8h72c4.42 0 8 3.58 8 8v104z" opacity=".61" fill="none" stroke="#000000" stroke-miterlimit="10"></path><path d="M123.5 98.27c0 5.65-4.58 10.23-10.23 10.23H13.73c-5.65 0-10.23-4.58-10.23-10.23V30.73c0-5.65 4.58-10.23 10.23-10.23h99.54c5.65 0 10.23 4.58 10.23 10.23v67.54z" opacity=".61" fill="none" stroke="#000000" stroke-miterlimit="10"></path></g><g><g opacity=".2"><defs><path id="SVGID_2_" d="M0 0h128v128H0Z" opacity=".2"></path></defs><clipPath id="SVGID_5_"><use xlink:href="#SVGID_2_" overflow="visible"></use></clipPath><g clip-path="url(#SVGID_5_)"><g><path d="m-28.5 160 0-192" fill="none" stroke="#000000" stroke-miterlimit="10"></path><path d="m-24.5 160 0-192" fill="none" stroke="#000000" stroke-miterlimit="10"></path><path d="m-20.5 160 0-192" fill="none" stroke="#000000" stroke-miterlimit="10"></path><path d="m-16.5 160 0-192" fill="none" stroke="#000000" stroke-miterlimit="10"></path><path d="m-12.5 160 0-192" fill="none" stroke="#000000" stroke-miterlimit="10"></path><path d="m-8.5 160 0-192" fill="none" stroke="#000000" stroke-miterlimit="10"></path><path d="m-4.5 160 0-192" fill="none" stroke="#000000" stroke-miterlimit="10"></path><path d="m-.5 160 0-192" fill="none" stroke="#000000" stroke-miterlimit="10"></path><path d="m3.5 160 0-192" fill="none" stroke="#000000" stroke-miterlimit="10"></path><path d="m7.5 160 0-192" fill="none" stroke="#000000" stroke-miterlimit="10"></path><path d="m11.5 160 0-192" fill="none" stroke="#000000" stroke-miterlimit="10"></path><path d="m15.5 160 0-192" fill="none" stroke="#000000" stroke-miterlimit="10"></path><path d="m19.5 160 0-192" fill="none" stroke="#000000" stroke-miterlimit="10"></path><path d="m23.5 160 0-192" fill="none" stroke="#000000" stroke-miterlimit="10"></path><path d="m27.5 160 0-192" fill="none" stroke="#000000" stroke-miterlimit="10"></path><path d="m31.5 160 0-192" fill="none" stroke="#000000" stroke-miterlimit="10"></path><path d="m35.5 160 0-192" fill="none" stroke="#000000" stroke-miterlimit="10"></path><path d="m39.5 160 0-192" fill="none" stroke="#000000" stroke-miterlimit="10"></path><path d="m43.5 160 0-192" fill="none" stroke="#000000" stroke-miterlimit="10"></path><path d="m47.5 160 0-192" fill="none" stroke="#000000" stroke-miterlimit="10"></path><path d="m51.5 160 0-192" fill="none" stroke="#000000" stroke-miterlimit="10"></path><path d="m55.5 160 0-192" fill="none" stroke="#000000" stroke-miterlimit="10"></path><path d="m59.5 160 0-192" fill="none" stroke="#000000" stroke-miterlimit="10"></path><path d="m63.5 160 0-192" fill="none" stroke="#000000" stroke-miterlimit="10"></path><path d="m67.5 160 0-192" fill="none" stroke="#000000" stroke-miterlimit="10"></path><path d="m71.5 160 0-192" fill="none" stroke="#000000" stroke-miterlimit="10"></path><path d="m75.5 160 0-192" fill="none" stroke="#000000" stroke-miterlimit="10"></path><path d="m79.5 160 0-192" fill="none" stroke="#000000" stroke-miterlimit="10"></path><path d="m83.5 160 0-192" fill="none" stroke="#000000" stroke-miterlimit="10"></path><path d="m87.5 160 0-192" fill="none" stroke="#000000" stroke-miterlimit="10"></path><path d="m91.5 160 0-192" fill="none" stroke="#000000" stroke-miterlimit="10"></path><path d="m95.5 160 0-192" fill="none" stroke="#000000" stroke-miterlimit="10"></path><path d="m99.5 160 0-192" fill="none" stroke="#000000" stroke-miterlimit="10"></path><path d="m103.5 160 0-192" fill="none" stroke="#000000" stroke-miterlimit="10"></path><path d="m107.5 160 0-192" fill="none" stroke="#000000" stroke-miterlimit="10"></path><path d="m111.5 160 0-192" fill="none" stroke="#000000" stroke-miterlimit="10"></path><path d="m115.5 160 0-192" fill="none" stroke="#000000" stroke-miterlimit="10"></path><path d="m119.5 160 0-192" fill="none" stroke="#000000" stroke-miterlimit="10"></path><path d="m123.5 160 0-192" fill="none" stroke="#000000" stroke-miterlimit="10"></path><path d="m127.5 160 0-192" fill="none" stroke="#000000" stroke-miterlimit="10"></path><path d="m131.5 160 0-192" fill="none" stroke="#000000" stroke-miterlimit="10"></path><path d="m135.5 160 0-192" fill="none" stroke="#000000" stroke-miterlimit="10"></path><path d="m136.5 166 0-192" fill="none" stroke="#000000" stroke-miterlimit="10"></path><path d="m143.5 160 0-192" fill="none" stroke="#000000" stroke-miterlimit="10"></path><path d="m147.5 160 0-192" fill="none" stroke="#000000" stroke-miterlimit="10"></path><path d="m151.5 160 0-192" fill="none" stroke="#000000" stroke-miterlimit="10"></path><path d="m155.5 160 0-192" fill="none" stroke="#000000" stroke-miterlimit="10"></path></g><g><path d="m-32-27.5 192 0" fill="none" stroke="#000000" stroke-miterlimit="10"></path><path d="m-32-23.5 192 0" fill="none" stroke="#000000" stroke-miterlimit="10"></path><path d="m-32-19.5 192 0" fill="none" stroke="#000000" stroke-miterlimit="10"></path><path d="m-32-15.5 192 0" fill="none" stroke="#000000" stroke-miterlimit="10"></path><path d="m-32-11.5 192 0" fill="none" stroke="#000000" stroke-miterlimit="10"></path><path d="m-32-7.5 192 0" fill="none" stroke="#000000" stroke-miterlimit="10"></path><path d="m-32-3.5 192 0" fill="none" stroke="#000000" stroke-miterlimit="10"></path><path d="m-32 .5 192 0" fill="none" stroke="#000000" stroke-miterlimit="10"></path><path d="m-32 4.5 192 0" fill="none" stroke="#000000" stroke-miterlimit="10"></path><path d="m-32 8.5 192 0" fill="none" stroke="#000000" stroke-miterlimit="10"></path><path d="m-32 12.5 192 0" fill="none" stroke="#000000" stroke-miterlimit="10"></path><path d="m-32 16.5 192 0" fill="none" stroke="#000000" stroke-miterlimit="10"></path><path d="m-32 20.5 192 0" fill="none" stroke="#000000" stroke-miterlimit="10"></path><path d="m-32 24.5 192 0" fill="none" stroke="#000000" stroke-miterlimit="10"></path><path d="m-32 28.5 192 0" fill="none" stroke="#000000" stroke-miterlimit="10"></path><path d="m-32 32.5 192 0" fill="none" stroke="#000000" stroke-miterlimit="10"></path><path d="m-32 36.5 192 0" fill="none" stroke="#000000" stroke-miterlimit="10"></path><path d="m-32 40.5 192 0" fill="none" stroke="#000000" stroke-miterlimit="10"></path><path d="m-32 44.5 192 0" fill="none" stroke="#000000" stroke-miterlimit="10"></path><path d="m-32 48.5 192 0" fill="none" stroke="#000000" stroke-miterlimit="10"></path><path d="m-32 52.5 192 0" fill="none" stroke="#000000" stroke-miterlimit="10"></path><path d="m-32 56.5 192 0" fill="none" stroke="#000000" stroke-miterlimit="10"></path><path d="m-32 60.5 192 0" fill="none" stroke="#000000" stroke-miterlimit="10"></path><path d="m-32 64.5 192 0" fill="none" stroke="#000000" stroke-miterlimit="10"></path><path d="m-32 68.5 192 0" fill="none" stroke="#000000" stroke-miterlimit="10"></path><path d="m-32 72.5 192 0" fill="none" stroke="#000000" stroke-miterlimit="10"></path><path d="m-32 76.5 192 0" fill="none" stroke="#000000" stroke-miterlimit="10"></path><path d="m-32 80.5 192 0" fill="none" stroke="#000000" stroke-miterlimit="10"></path><path d="m-32 84.5 192 0" fill="none" stroke="#000000" stroke-miterlimit="10"></path><path d="m-32 88.5 192 0" fill="none" stroke="#000000" stroke-miterlimit="10"></path><path d="m-32 92.5 192 0" fill="none" stroke="#000000" stroke-miterlimit="10"></path><path d="m-32 96.5 192 0" fill="none" stroke="#000000" stroke-miterlimit="10"></path><path d="m-32 100.5 192 0" fill="none" stroke="#000000" stroke-miterlimit="10"></path><path d="m-32 104.5 192 0" fill="none" stroke="#000000" stroke-miterlimit="10"></path><path d="m-32 108.5 192 0" fill="none" stroke="#000000" stroke-miterlimit="10"></path><path d="m-32 112.5 192 0" fill="none" stroke="#000000" stroke-miterlimit="10"></path><path d="m-32 116.5 192 0" fill="none" stroke="#000000" stroke-miterlimit="10"></path><path d="m-32 120.5 192 0" fill="none" stroke="#000000" stroke-miterlimit="10"></path><path d="m-32 124.5 192 0" fill="none" stroke="#000000" stroke-miterlimit="10"></path><path d="m-32 128.5 192 0" fill="none" stroke="#000000" stroke-miterlimit="10"></path><path d="m-32 132.5 192 0" fill="none" stroke="#000000" stroke-miterlimit="10"></path><path d="m-32 136.5 192 0" fill="none" stroke="#000000" stroke-miterlimit="10"></path><path d="m-32 140.5 192 0" fill="none" stroke="#000000" stroke-miterlimit="10"></path><path d="m-32 144.5 192 0" fill="none" stroke="#000000" stroke-miterlimit="10"></path><path d="m-32 148.5 192 0" fill="none" stroke="#000000" stroke-miterlimit="10"></path><path d="m-32 152.5 192 0" fill="none" stroke="#000000" stroke-miterlimit="10"></path><path d="m-32 156.5 192 0" fill="none" stroke="#000000" stroke-miterlimit="10"></path></g><g><path d="M160-32v192H-32V-32h192m0 0H-32v192h192V-32z"></path></g></g></g><g><path d="M0 0h4v128H0Z" opacity=".3" fill="#F44336"></path><path d="M124 0h4v128h-4Z" opacity=".3" fill="#F44336"></path><path transform="rotate(90 64 2)" d="M62-58h4V62h-4Z" opacity=".3" fill="#F44336"></path><path transform="rotate(90 64 126)" d="M62 66h4v120h-4Z" opacity=".3" fill="#F44336"></path></g></g></g></g></svg>