<svg version="1.1" id="Office-Building--Streamline-Noto-Emoji.svg" xmlns="http://www.w3.org/2000/svg" xmlns:xlink="http://www.w3.org/1999/xlink" x="0" y="0" viewBox="0 0 512 512" xml:space="preserve" enable-background="new 0 0 128 128" height="512" width="512"><desc>Office Building Streamline Emoji: https://streamlinehq.com</desc><path d="M24.0476 100.1552s-14.7368 -23.2816 -17.6264 -29.5148c-3.7152 -8.008 0.3716 -9.9484 14.2412 -10.0308 8.8752 -0.0412 94.1168 0 94.1168 0h77.1096s-0.578 -27.7396 0 -29.2256c0.578 -1.4448 130.3184 -0.2892 130.8964 0 0.578 0.2888 0.2888 29.2256 0.2888 29.2256h177.7072c4.0864 0 8.3384 3.7564 4.7472 10.8976s-13.5812 20.9288 -13.5812 20.9288l-1.1144 361.7296 -28.6892 16.0164 -415.9704 -1.6512 -22.0844 -12.6728 -0.0412 -355.7028Z" fill="#C8C8C8" stroke-width="1"></path><path d="M113.6232 459.9448V90.4544l135.974 -20.722 150.0084 21.9192v368.2932l-140.8444 7.3064Z" fill="#E1E1E1" stroke-width="1"></path><path d="m113.6648 60.5684 286.1472 0.0412 -0.2064 31.042 -285.9824 -1.1972Z" fill="#9A9A9A" stroke-width="1"></path><path d="m24.0888 455.858 165.0756 -1.1144s-0.2064 -127.594 0 -132.7128c0.1236 -3.7152 1.032 -6.7696 5.7792 -7.1s114.8384 -0.33 118.9252 -0.33c4.0452 0 7.1 2.3528 7.1 8.132v131.8044s169.9464 -1.5688 169.864 -0.2892c-0.124 1.28 0.2064 18.906 0.2064 21.3004 0 2.3528 -1.032 5.7788 -7.4716 5.7788H29.5788c-2.7244 0 -5.4076 -2.7244 -5.4076 -6.1092s-0.0824 -19.36 -0.0824 -19.36Z" fill="#9A9A9A" stroke-width="1"></path><path d="M220 103.3336h74.1372v43.9212H220Z" fill="#6CA4AB" stroke-width="1"></path><path d="M219.6284 174.664h74.8804v42.1876H219.6284Z" fill="#6CA4AB" stroke-width="1"></path><path d="M218.9268 246.036h75.582v45.3244H218.9268Z" fill="#6CA4AB" stroke-width="1"></path><path d="M331.4124 104.7372c-0.3716 1.0732 0 43.5908 0 43.5908l45.242 -0.124s0.6192 -42.9304 -0.2476 -43.7972 -44.664 -0.7428 -44.9944 0.3304Z" fill="#6CA4AB" stroke-width="1"></path><path d="m332.1144 173.2604 0.33 43.2196 42.8892 -0.3304 0.7016 -42.1872Z" fill="#6CA4AB" stroke-width="1"></path><path d="M334.2196 246.366s-1.0732 41.816 -0.3716 42.8892 41.4856 1.0732 42.8892 0c1.4032 -1.0732 0 -42.5176 0 -42.5176l-42.5176 -0.3716Z" fill="#6CA4AB" stroke-width="1"></path><path d="m334.426 316.1692 0.33 43.4672s40.4952 0.9492 41.4444 0 1.8988 -42.5176 0.6192 -43.4672c-1.2796 -0.9496 -42.3936 0 -42.3936 0Z" fill="#6CA4AB" stroke-width="1"></path><path d="m335.5816 386.9632 0.578 43.178s39.9172 0.33 40.784 -0.2892 0.908 -41.3204 0.33 -42.5588 -41.692 -0.33 -41.692 -0.33Z" fill="#6CA4AB" stroke-width="1"></path><path d="M425.364 429.4808c0.4952 0.6192 43.0544 0.6192 43.0544 0.6192s1.3208 -42.5176 -0.2064 -43.1368c-1.1148 -0.4956 -43.2196 -1.1148 -43.7976 -0.6192 -1.3208 1.1968 0.578 42.6824 0.9496 43.1368Z" fill="#6CA4AB" stroke-width="1"></path><path d="M424.7448 318.3156c-0.6604 1.6512 -1.2384 43.4672 -0.3304 43.7972 0.9496 0.3304 41.6096 0.6192 42.848 0 1.2384 -0.6192 2.1876 -42.2284 0.9496 -43.178s-42.848 -2.1464 -43.4672 -0.6192Z" fill="#6CA4AB" stroke-width="1"></path><path d="M423.8368 290.7c1.1144 1.4036 41.2792 1.2384 42.5176 0.6192 1.2384 -0.6192 0.6192 -40.9904 -0.3304 -42.5176s-41.2792 -0.6192 -42.2288 0.33 -1.1968 39.9996 0.0416 41.5684Z" fill="#6CA4AB" stroke-width="1"></path><path d="M425.0752 177.0584c-0.7844 1.5684 0 40.3708 0.6192 41.6092 0.6192 1.2384 40.99 1.2384 41.6092 0.3304 0.6192 -0.9496 0.9496 -40.66 0.3304 -41.6096 -0.6604 -0.9492 -41.9396 -1.5684 -42.5588 -0.33Z" fill="#6CA4AB" stroke-width="1"></path><path d="M425.9832 147.874c1.1144 1.1144 41.6096 0.33 42.5176 0 0.9496 -0.3304 0.6192 -41.2792 0.3304 -42.848 -0.3304 -1.5684 -41.8984 -0.6192 -43.1784 0 -1.1968 0.6192 -1.1968 41.2792 0.3304 42.848Z" fill="#6CA4AB" stroke-width="1"></path><path d="M133.8088 103.2096c-0.3716 1.0732 0 43.5908 0 43.5908l44.9944 -0.7016s0.8668 -42.3524 0 -43.2192c-0.8668 -0.9084 -44.6228 -0.7432 -44.9944 0.33Z" fill="#6CA4AB" stroke-width="1"></path><path d="M134.8408 174.4988s-1.1144 42.1464 0.2892 42.848c1.4032 0.7016 41.692 1.0732 43.0952 0 1.4036 -1.0732 0.248 -43.2604 0.248 -43.2604l-43.6324 0.4128Z" fill="#6CA4AB" stroke-width="1"></path><path d="M135.5428 246.4488c-0.7844 0.5776 -1.0736 41.8156 -0.3716 42.8888 0.7016 1.0732 41.4856 1.0732 42.8892 0 1.4032 -1.0732 1.0732 -41.4856 0 -42.5176s-41.1144 -1.4032 -42.5176 -0.3712Z" fill="#6CA4AB" stroke-width="1"></path><path d="M134.1392 316.7884c-1.1148 1.1144 -0.6192 42.5176 0.33 43.4672s41.4444 0 41.4444 0l0.6192 -43.4672s-41.1552 -1.2384 -42.3936 0Z" fill="#6CA4AB" stroke-width="1"></path><path d="M134.3868 385.8484v43.5496l40.536 -0.3716 0.9084 -42.8476Z" fill="#6CA4AB" stroke-width="1"></path><path d="m47.164 429.0268 42.5176 -0.3304 0.2888 -43.2608s-42.848 -1.1144 -43.756 0.4544c-0.908 1.5272 0.9496 43.1368 0.9496 43.1368Z" fill="#6CA4AB" stroke-width="1"></path><path d="M46.5448 317.8616c-0.6608 1.6512 -1.2384 43.4672 -0.3304 43.7972 0.9496 0.3304 41.6096 0.6192 42.848 0 1.238 -0.6192 2.1876 -42.2284 0.9492 -43.178s-42.8476 -2.1876 -43.4668 -0.6192Z" fill="#6CA4AB" stroke-width="1"></path><path d="M45.5952 290.246c1.1144 1.4032 41.2792 1.2384 42.5176 0.6192 1.2384 -0.6192 0.6192 -40.9904 -0.3304 -42.5176 -0.9492 -1.5688 -41.2792 -0.6192 -42.2284 0.33 -0.8668 0.8672 -1.1972 39.9996 0.0412 41.5684Z" fill="#6CA4AB" stroke-width="1"></path><path d="M46.8336 176.6044c-0.7844 1.5684 0 40.3708 0.6192 41.6092 0.6192 1.2384 40.9904 1.2384 41.6096 0.3304 0.6192 -0.9496 0.9492 -40.66 0.33 -41.6096 -0.6192 -0.9492 -41.9396 -1.5684 -42.5588 -0.33Z" fill="#6CA4AB" stroke-width="1"></path><path d="M47.7828 147.4196c1.1148 1.1148 41.6096 0.3304 42.5176 0 0.9496 -0.33 0.6192 -41.2792 0.3304 -42.8476s-41.8984 -0.6192 -43.178 0c-1.2384 0.6192 -1.2384 41.2792 0.3304 42.8476Z" fill="#6CA4AB" stroke-width="1"></path><path d="M207.74 455.982c-0.2892 -0.2892 -0.8668 -82.4348 0.2888 -83.9208 1.1972 -1.486 94.282 -0.578 95.1488 0.2892s0.578 83.0536 0.2888 83.6316 -95.7264 0 -95.7264 0Z" fill="#E1E1E1" stroke-width="1"></path><path d="M216.4912 380.0696h34.9636v68.7712h-34.9636Z" fill="#536F7B" stroke-width="1"></path><path d="M260.4536 379.9456H296.16v68.7712h-35.7064Z" fill="#536F7B" stroke-width="1"></path></svg>