<svg version="1.1" id="Plus--Streamline-Noto-Emoji.svg" xmlns="http://www.w3.org/2000/svg" xmlns:xlink="http://www.w3.org/1999/xlink" x="0" y="0" viewBox="0 0 512 512" xml:space="preserve" enable-background="new 0 0 128 128" height="512" width="512"><desc>Plus Streamline Emoji: https://streamlinehq.com</desc><path d="M19.16 288.04s0.08 15.04 0.2 17.8c0.2 5.36 3.16 7.8 9 7.68 5.84 -0.16 168.32 1.72 168.32 1.72l2.64 -51 -180.16 23.8z" fill="#464C4F" stroke-width="1"></path><path d="m301.56 281.12 10.2 32.84s164.24 0 170.28 0.32c6.04 0.32 9.24 -1.92 9.56 -7.64 0.32 -5.76 0.88 -28.88 0.88 -28.88L377.44 262l-75.88 19.12z" fill="#464C4F" stroke-width="1"></path><path d="M189.6 456.32s-0.12 22 -0.16 26.48c-0.08 8.44 2.08 15.48 19 15.48s85.48 -0.32 92.48 -0.64 12.56 -4.12 12.88 -12.08c0.32 -7.96 2.12 -38.28 -1.08 -37.96 -3.2 0.32 -74.32 0.32 -74.32 0.32l-48.8 8.4z" fill="#464C4F" stroke-width="1"></path><path d="M31.48 194.36c-9.56 0.36 -12.12 3.84 -12.44 14.36 -0.32 10.52 0 69.2 0 74.64s0.32 13.4 7.32 13.72c7 0.32 163.28 0.32 163.28 0.32l0 158.8c0 8.6 6.36 19.44 23.6 20.72s67.28 0.64 79.08 0.64c11.8 0 21.36 -4.48 22 -14.68 0.64 -10.2 0.64 -165.52 0.64 -165.52s155.92 -0.92 163.6 -0.96c10.84 -0.04 13.72 -6.04 14.04 -20.72 0.32 -14.68 -0.64 -60.28 -0.64 -68.24 0 -7.96 -5.12 -12.76 -17.24 -12.12 -12.12 0.64 -161.36 -0.64 -161.36 -0.64l0 -167.64c0 -7.64 -2.96 -12 -15.96 -11.88 -8.92 0.08 -87.8 -0.16 -94.52 -0.32 -8.48 -0.2 -12.36 5.72 -12.28 15.28 0.08 9.24 -0.64 164.88 -0.64 164.88s-149.88 -0.96 -158.48 -0.64z" fill="#616266" stroke-width="1"></path><path d="M38.8 212.56c-6.36 7 -7.64 48.48 3.84 48.48 12.84 0 8.6 -20.08 26.16 -26.8s25.76 -10.2 26.16 -17.52c0.6 -11.84 -49.12 -11.92 -56.16 -4.16z" fill="#9A9A9A" stroke-width="1"></path><path d="M262 36.08c0.52 8.44 -21.2 12.04 -29.72 20.2 -8.56 8.16 -14 21.2 -20.4 21 -6.4 -0.2 -10.88 -12.24 -9.32 -25.84s13.04 -21.76 30.12 -22.92 28.92 1.16 29.32 7.56z" fill="#9A9A9A" stroke-width="1"></path></svg>