<svg version="1.1" id="Robot--Streamline-Noto-Emoji.svg" xmlns="http://www.w3.org/2000/svg" xmlns:xlink="http://www.w3.org/1999/xlink" x="0" y="0" viewBox="0 0 128 128" xml:space="preserve" enable-background="new 0 0 128 128" height="512" width="512" stroke-width="1"><desc>Robot Streamline Emoji: https://streamlinehq.com</desc><g id="facial_expressions"><g id="robot"><path d="M12.53 53.05c-4.57.01-8.28 3.72-8.28 8.29v38.38c.01 4.57 3.71 8.27 8.28 8.28h5.55V53l-5.55.05z" fill="#C62828"></path><path d="M115.72 53.05c4.57.01 8.28 3.72 8.28 8.29v38.38c-.01 4.57-3.71 8.28-8.28 8.29h-5.55v-55l5.55.04z" fill="#C62828"></path><path d="m113.17 54.41-.12-10c-.03-4.3-3.53-7.77-7.83-7.75H67.05V23.25c5.11-1.69 7.89-7.2 6.2-12.31-1.69-5.11-7.2-7.89-12.31-6.2s-7.89 7.2-6.2 12.31c.97 2.93 3.27 5.24 6.2 6.2v13.46H22.78c-4.28.01-7.75 3.47-7.78 7.75v71.78c.03 4.28 3.5 7.74 7.78 7.76h82.44c4.3.01 7.8-3.46 7.83-7.76v-7.37h.12l0-54.46z" fill="#90A4AE"></path><path d="M64 18c-2.21 0-4-1.79-4-4s1.79-4 4-4 4 1.79 4 4-1.79 4-4 4z" fill="#C62828"></path></g><g id="robot-face"><g id="mouth"><linearGradient id="SVGID_1_" gradientUnits="userSpaceOnUse" x1="64.005" y1="22.44" x2="64.005" y2="35.55" gradientTransform="matrix(1 0 0 -1 0 130)"><stop offset=".12" stop-color="#E0E0E0"></stop><stop offset=".52" stop-color="#FFFFFF"></stop><stop offset="1" stop-color="#EAEAEA"></stop></linearGradient><path d="M44.15 94.45h39.71c3.46 0 6.27 2.81 6.27 6.27v.57c0 3.46-2.81 6.27-6.27 6.27H44.15c-3.46 0-6.27-2.81-6.27-6.27v-.57c0-3.46 2.81-6.27 6.27-6.27z" fill="url(#SVGID_1_)"></path><linearGradient id="SVGID_2_" gradientUnits="userSpaceOnUse" x1="54.85" y1="22.44" x2="54.85" y2="35.53" gradientTransform="matrix(1 0 0 -1 0 130)"><stop offset="0" stop-color="#333333"></stop><stop offset=".55" stop-color="#666666"></stop><stop offset="1" stop-color="#333333"></stop></linearGradient><path d="M53.67 94.47h2.36v13.09h-2.36Z" fill="url(#SVGID_2_)"></path><linearGradient id="SVGID_3_" gradientUnits="userSpaceOnUse" x1="64.06" y1="22.44" x2="64.06" y2="35.53" gradientTransform="matrix(1 0 0 -1 0 130)"><stop offset="0" stop-color="#333333"></stop><stop offset=".55" stop-color="#666666"></stop><stop offset="1" stop-color="#333333"></stop></linearGradient><path d="M62.88 94.47h2.36v13.09h-2.36Z" fill="url(#SVGID_3_)"></path><linearGradient id="SVGID_4_" gradientUnits="userSpaceOnUse" x1="73.15" y1="22.44" x2="73.15" y2="35.53" gradientTransform="matrix(1 0 0 -1 0 130)"><stop offset="0" stop-color="#333333"></stop><stop offset=".55" stop-color="#666666"></stop><stop offset="1" stop-color="#333333"></stop></linearGradient><path d="M71.97 94.47h2.36v13.09h-2.36Z" fill="url(#SVGID_4_)"></path><linearGradient id="SVGID_5_" gradientUnits="userSpaceOnUse" x1="82.8" y1="22.44" x2="82.8" y2="35.53" gradientTransform="matrix(1 0 0 -1 0 130)"><stop offset="0" stop-color="#333333"></stop><stop offset=".55" stop-color="#666666"></stop><stop offset="1" stop-color="#333333"></stop></linearGradient><path d="M81.62 94.47h2.36v13.09h-2.36Z" fill="url(#SVGID_5_)"></path><linearGradient id="SVGID_6_" gradientUnits="userSpaceOnUse" x1="45.2" y1="22.46" x2="45.2" y2="35.55" gradientTransform="matrix(1 0 0 -1 0 130)"><stop offset="0" stop-color="#333333"></stop><stop offset=".55" stop-color="#666666"></stop><stop offset="1" stop-color="#333333"></stop></linearGradient><path d="M44.02 94.45h2.36v13.09h-2.36Z" fill="url(#SVGID_6_)"></path></g><g id="nose"><path d="M64 85.33h-5.33c-.55 0-1-.45-1-1 0-.16.04-.31.11-.45l2.74-5.41 2.59-4.78c.26-.49.87-.67 1.35-.41.17.09.31.23.41.41l2.61 5 2.71 5.19c.25.49.06 1.09-.43 1.35-.14.07-.29.11-.45.11L64 85.33z" fill="#C62828"></path></g><g id="eyes"><radialGradient id="SVGID_7_" cx="42.64" cy="63.19" r="11.5" gradientTransform="matrix(1 0 0 -1 0 130)" gradientUnits="userSpaceOnUse"><stop offset=".48" stop-color="#FFFFFF"></stop><stop offset=".77" stop-color="#FDFDFD"></stop><stop offset=".88" stop-color="#F6F6F6"></stop><stop offset=".96" stop-color="#EBEBEB"></stop><stop offset="1" stop-color="#E0E0E0"></stop></radialGradient><path d="M31.14 66.81a11.5 11.5 0 1 0 23 0 11.5 11.5 0 1 0-23 0" fill="url(#SVGID_7_)"></path><linearGradient id="SVGID_8_" gradientUnits="userSpaceOnUse" x1="30.14" y1="63.19" x2="55.14" y2="63.19" gradientTransform="matrix(1 0 0 -1 0 130)"><stop offset="0" stop-color="#333333"></stop><stop offset=".55" stop-color="#666666"></stop><stop offset="1" stop-color="#333333"></stop></linearGradient><path d="M31.14 66.81a11.5 11.5 0 1 0 23 0 11.5 11.5 0 1 0-23 0" fill="none" stroke="url(#SVGID_8_)" stroke-width="2" stroke-miterlimit="10"></path><radialGradient id="SVGID_9_" cx="84.95" cy="63.22" r="11.5" gradientTransform="matrix(1 0 0 -1 0 130)" gradientUnits="userSpaceOnUse"><stop offset=".48" stop-color="#FFFFFF"></stop><stop offset=".77" stop-color="#FDFDFD"></stop><stop offset=".88" stop-color="#F6F6F6"></stop><stop offset=".96" stop-color="#EBEBEB"></stop><stop offset="1" stop-color="#E0E0E0"></stop></radialGradient><path d="M85 55.28c-6.35 0-11.5 5.15-11.5 11.5s5.15 11.5 11.5 11.5 11.5-5.15 11.5-11.5c-.01-6.35-5.15-11.49-11.5-11.5z" fill="url(#SVGID_9_)"></path><linearGradient id="SVGID_10_" gradientUnits="userSpaceOnUse" x1="72.45" y1="63.22" x2="97.45" y2="63.22" gradientTransform="matrix(1 0 0 -1 0 130)"><stop offset="0" stop-color="#333333"></stop><stop offset=".55" stop-color="#666666"></stop><stop offset="1" stop-color="#333333"></stop></linearGradient><path d="M85 55.28c-6.35 0-11.5 5.15-11.5 11.5s5.15 11.5 11.5 11.5 11.5-5.15 11.5-11.5c-.01-6.35-5.15-11.49-11.5-11.5z" fill="none" stroke="url(#SVGID_10_)" stroke-width="2" stroke-miterlimit="10"></path></g></g></g></svg>