<svg version="1.1" id="Rocket--Streamline-Noto-Emoji.svg" xmlns="http://www.w3.org/2000/svg" xmlns:xlink="http://www.w3.org/1999/xlink" x="0" y="0" viewBox="0 0 512 512" xml:space="preserve" enable-background="new 0 0 128 128" height="512" width="512"><desc>Rocket Streamline Emoji: https://streamlinehq.com</desc><path d="m6.1572 284.8772 67.9564 -66.9584 115.7012 -20.5036 -11.4372 60.554L21.9608 306.046l-10.106 -4.3668Z" fill="#CA2C31" stroke-width="1"></path><path d="M85.8836 235.0952 12.1044 302.1368l54.2736 26.4508 82.3884 -42.0468v-19.838l16.8436 -45.4152Z" fill="#A02422" stroke-width="1"></path><path d="m260.4744 353.1668 -35.6416 15.4708 -33.6456 71.3256s29.6112 65.586 30.9424 65.586c1.3308 0 18.1744 1.3308 18.1744 1.3308l59.888 -66.9584 15.1388 -114.37 -54.8564 27.6152Z" fill="#A02422" stroke-width="1"></path><path d="M225.4564 405.9432s19.838 -4.034 33.9784 -10.7716 31.6076 -16.802 31.6076 -16.802l-6.4044 55.854 -62.5916 71.2424s-2.454 -3.036 -12.8512 -25.6604c-8.2764 -18.05 -11.146 -24.496 -11.146 -24.496l27.4072 -49.3664Z" fill="#CA2C31" stroke-width="1"></path><path d="M121.8164 322.0164s-23.872 -1.9964 -50.0316 31.0672c-23.8724 30.1936 -35.0596 79.352 -39.3848 91.9948s-14.6812 15.2216 -11.2292 21.0028 18.3824 5.448 36.8064 3.1608 34.2276 -8.0684 34.2276 -8.0684 -0.79 1.9964 -3.4516 6.3216c-0.9568 1.5388 -4.2836 3.7428 -4.0344 6.0304 0.5824 5.448 47.2452 5.5728 84.5092 -32.7724 40.2584 -41.3812 20.7116 -75.3176 20.7116 -75.3176L121.8164 322.0164Z" fill="#F7D74D" stroke-width="1"></path><path d="M129.0112 341.272s-25.7436 1.3724 -47.0372 34.436 -31.1916 71.3668 -29.154 73.9452c1.9964 2.5788 41.6724 -11.7696 51.1964 -8.9 6.5296 1.9964 3.1608 8.6092 4.9076 10.3556 1.4556 1.4556 18.6732 3.9096 46.538 -26.284 27.9064 -30.194 21.2936 -72.6148 21.2936 -72.6148l-47.744 -10.938Z" fill="#FBF0B4" stroke-width="1"></path><path d="M141.6544 296.148s-12.934 11.52 -17.5504 18.1328c-4.6164 6.6128 -4.6164 7.1948 -4.3256 9.1912 0.2912 1.9964 5.074 23.9136 24.9952 43.128 24.4544 23.5808 46.2888 26.7416 49.4496 26.7416 3.1608 0 24.1632 -23.5808 24.1632 -23.5808L141.6544 296.148Z" fill="#858585" stroke-width="1"></path><path d="M198.8396 366.0176s20.9608 13.766 56.1036 1.9548c48.0356 -16.1368 83.2616 -52.236 126.8884 -97.8176 42.0884 -44.0012 77.3972 -98.608 77.3972 -98.608l-24.7452 -82.8872 -235.644 277.358Z" fill="#437687" stroke-width="1"></path><path d="m273.2424 320.644 5.7808 -17.9668 14.4732 2.038s11.0212 5.1988 19.1308 8.9832c8.11 3.7848 18.5488 6.6544 18.5488 6.6544l-20.5864 17.384s-11.2292 -4.242 -19.4224 -7.8184c-9.2328 -4.0344 -17.9248 -9.2744 -17.9248 -9.2744Z" fill="#3F545F" stroke-width="1"></path><path d="M341.1576 53.6832S301.1488 76.89 243.7972 131.164C192.102 180.0728 153.7984 224.3236 144.524 261.9616c-7.7356 31.5248 -3.618 50.6556 13.974 71.3256 18.5904 21.8756 40.3832 32.7304 40.3832 32.7304s16.386 0.2496 84.7584 -52.3608c85.2996 -65.6692 153.6304 -175.6308 153.6304 -175.6308L341.1576 53.6832Z" fill="#8DAFBF" stroke-width="1"></path><path d="M423.7536 160.5672S388.9436 145.72 364.1148 111.0764c-24.6624 -34.3944 -22.7076 -57.6424 -22.7076 -57.6424s20.628 -16.1784 67 -34.6856c31.1916 -12.4352 73.6544 -18.798 87.6284 -8.4424s-9.5656 62.3004 -9.5656 62.3004l-42.8784 83.012 -19.838 4.9492Z" fill="#D83F22" stroke-width="1"></path><path d="M273.9912 320.9352s-30.0692 -15.3464 -49.2 -37.1808c-36.1824 -41.2148 -43.6688 -86.464 -43.6688 -86.464l18.1748 -21.3352s4.5332 48.0772 43.3356 89.6248c25.2864 27.0744 51.6952 39.468 51.6952 39.468s-5.2816 4.45 -10.9376 8.7752c-3.6184 2.7864 -9.3992 7.112 -9.3992 7.112Z" fill="#6896A5" stroke-width="1"></path><path d="M459.2292 171.5468s18.0496 -21.7512 35.1428 -70.7844c23.872 -68.3728 3.0776 -89.084 3.0776 -89.084s-7.0288 32.5228 -31.4416 77.73c-19.5884 36.224 -43.2944 70.7016 -43.2944 70.7016s13.0592 5.864 20.1292 7.902c8.9 2.5784 16.3864 3.5348 16.3864 3.5348Z" fill="#A02422" stroke-width="1"></path><path d="M156.0444 276.2684c5.4064 5.1568 13.5996 -0.2496 18.9644 -12.8928 5.4068 -12.6432 5.3236 -19.7132 1.1648 -22.7076 -5.1572 -3.7432 -13.8076 4.45 -17.5924 11.728 -4.1588 8.0684 -6.6128 19.9628 -2.5368 23.8724Z" fill="#B3E1EE" stroke-width="1"></path><path d="M343.7776 70.2776s-31.6492 22.7492 -65.4196 53.6912c-30.984 28.4056 -51.5288 50.614 -54.3572 55.7712 -2.9944 5.5312 -3.036 13.35 -0.7068 17.3428s7.486 6.072 12.1856 2.5784c4.6996 -3.5352 38.1788 -40.5496 68.414 -67 27.6568 -24.2048 48.992 -39.5512 48.992 -39.5512s8.6504 -15.3048 7.2364 -18.7984c-1.414 -3.5352 -16.3444 -4.034 -16.3444 -4.034Z" fill="#B3E1EE" stroke-width="1"></path><path d="M343.7776 70.2776s23.3732 -17.9252 48.8256 -30.5264c23.6644 -11.7284 47.2036 -21.5016 51.446 -13.0176 4.034 8.0684 -22.3336 19.048 -45.5404 33.8536 -23.2064 14.8056 -45.54 32.4812 -45.54 32.4812s-3.4104 -6.2384 -5.6144 -12.0192c-2.454 -6.28 -3.5768 -10.7716 -3.5768 -10.7716Z" fill="#ED6A65" stroke-width="1"></path><path d="M363.0748 149.7956c-23.1652 -21.3352 -55.3964 -15.5956 -71.2836 3.3688 -16.3028 19.5468 -15.0968 49.408 4.1588 67.3744 17.5092 16.3028 50.0736 20.0044 69.7036 -2.8696 17.4672 -20.2956 16.386 -50.4476 -2.5788 -67.8736Z" fill="#E1E1E1" stroke-width="1"></path><path d="M303.7688 160.692c-13.766 13.5168 -13.0172 40.3 3.3688 52.5272 14.3068 10.6884 34.602 10.1476 47.3284 -2.8696 12.7264 -13.0176 12.7264 -36.6816 0.79 -48.9088 -13.7244 -14.0156 -35.7248 -16.22 -51.4872 -0.7488Z" fill="#3F545F" stroke-width="1"></path><path d="M198.4236 306.3372s25.7436 -26.118 28.5716 -23.29c2.8284 2.8284 2.454 18.6736 -9.8564 36.3076 -12.352 17.6336 -39.5096 49.0336 -61.0112 70.2024 -21.2104 20.836 -51.1132 44.6668 -53.9412 44.2508 -2.2044 -0.3328 -11.146 -4.7828 -14.7224 -9.108 -3.4936 -4.2836 6.9452 -24.5376 11.1456 -31.2336 4.242 -6.6956 99.814 -87.1292 99.814 -87.1292Z" fill="#A02524" stroke-width="1"></path><path d="M78.7716 410.1436c-0.3324 5.9888 8.8172 14.7228 8.8172 14.7228l139.4064 -141.7776s-6.5292 -7.3612 -25.7436 4.5748c-19.3804 12.0608 -36.3488 26.534 -61.3856 50.7804 -34.8932 33.8536 -60.7616 65.7108 -61.0944 71.6996Z" fill="#CA2C31" stroke-width="1"></path><path d="M69.7468 140.2304c-4.6164 4.6164 -4.8244 12.0192 0.3328 16.2612 4.5748 3.7848 12.0192 1.3308 14.8056 -2.0792s2.454 -10.8132 -1.2476 -14.4732c-3.7012 -3.7016 -11.0628 -2.4952 -13.8908 0.2912Z" fill="#FFFFFF" stroke-width="1"></path><path d="M161.0764 134.8236c-3.4932 3.868 -2.3704 9.6072 0.8736 11.7284s8.11 1.9128 10.4804 -0.9984c2.1212 -2.62 2.3704 -7.8604 -0.8732 -11.104 -2.8284 -2.7868 -8.2348 -2.1212 -10.4808 0.374Z" opacity=".5" fill="#FFFFFF" stroke-width="1"></path><path d="M221.5056 36.008s5.074 -14.4732 8.0684 -14.6392c3.036 -0.1664 7.4028 14.4728 7.4028 14.4728s15.0136 0.1664 16.0116 2.3704c1.2896 2.8284 -9.6068 12.3104 -9.6068 12.3104s3.5348 14.1404 1.8712 15.8456c-1.8712 1.8716 -14.8056 -5.5728 -14.8056 -5.5728s-13.3084 9.274 -16.178 6.7372c-2.4956 -2.204 2.7032 -17.1764 2.7032 -17.1764s-12.4768 -9.108 -11.8112 -11.6448c0.9564 -3.5768 16.3444 -2.7032 16.3444 -2.7032Z" fill="#FFFFFF" stroke-width="1"></path><path d="M393.934 383.0276c5.0324 2.7864 11.354 1.206 13.6828 -4.1588 2.1212 -4.7828 -1.788 -10.4804 -5.3232 -12.0192 -3.5352 -1.5388 -9.732 0.4988 -11.9776 4.5332 -2.2044 3.9924 0.582 9.9812 3.618 11.6448Z" fill="#FFFFFF" stroke-width="1"></path><path d="M465.384 260.3812c-2.8696 -4.45 -9.0664 -5.9056 -13.1004 -2.3288 -3.9092 3.4932 -2.9528 8.9832 -0.7484 11.7696 2.204 2.7864 8.1096 3.826 11.6864 1.5388s3.9092 -8.318 2.1628 -10.9796Z" fill="#FFFFFF" stroke-width="1"></path></svg>