<svg version="1.1" id="Seedling--Streamline-Noto-Emoji.svg" xmlns="http://www.w3.org/2000/svg" xmlns:xlink="http://www.w3.org/1999/xlink" x="0" y="0" viewBox="0 0 512 512" xml:space="preserve" enable-background="new 0 0 128 128" height="512" width="512"><desc>Seedling Streamline Emoji: https://streamlinehq.com</desc><path d="m276.658 183.566 -4.6728 77.7984s15.8292 44.7932 11.4088 107.1416c-4.252 60.0748 -20.2076 90.47 -24.5856 100.9948s-16.6712 23.7016 0 28.964 44.7928 2.652 57.0856 -1.7684c12.2932 -4.378 18.3972 -28.7952 20.2076 -38.6464 4.4204 -24.3752 6.862 -70.4736 -2.1048 -115.94 -6.8624 -34.942 -21.4284 -94.8488 -21.4284 -94.8488l-35.9104 -63.6952Z" fill="#99C23B" stroke-width="1"></path><path d="M273.7532 171.7784s18.0184 -56.5388 59.4436 -99.4376c39.6992 -41.0884 80.2404 -54.56 112.7404 -58.6012 35.826 -4.4628 50.4344 -3.9996 56.5808 0.4208s3.9572 11.3668 4.0836 17.5132c0.8 43.9512 2.4416 100.9108 -49.2556 153.0288 -55.1912 55.5704 -94.5116 65.548 -137.5788 69.9684 -43.0248 4.3784 -38.1412 -15.24 -38.1412 -15.24l-7.8728 -67.6524Z" fill="#99C23B" stroke-width="1"></path><path d="M5.1632 136.6256c-1.5576 7.7044 39.1096 98.1324 117.666 126.5912 84.5764 30.69 164.3116 0 164.3116 0l6.5672 -81.4192 -19.9968 -10.0192s-42.3936 -46.772 -89.502 -64.0324c-48.8344 -17.892 -104.026 -19.2812 -141.6204 0.8 -23.5752 12.6296 -36.5836 23.9964 -37.4256 28.0796Z" fill="#99C23B" stroke-width="1"></path><path d="M357.53 109.8088c-39.152 46.3928 -58.8964 93.1648 -60.9592 105.3732s4.7152 11.7036 8.546 6.5256c6.9044 -9.346 30.9428 -52.0764 66.7268 -92.786 30.9844 -35.1944 78.1352 -73.2516 85.0392 -81.3768 4.2944 -5.052 -0.4208 -11.4088 -6.904 -8.546 -6.4832 2.8204 -52.4128 23.3648 -92.4488 70.81Z" fill="#E6DC9F" stroke-width="1"></path><path d="M167.0328 153.2548c-57.254 -19.7024 -99.1424 -17.05 -107.6884 -14.1872 -8.546 2.8628 -8.1252 12.2084 2.0208 13.4296s51.5288 5.3464 103.3944 23.996c55.36 19.9548 94.8064 50.0556 101.7528 54.1392 6.904 4.0836 11.4088 -4.0836 5.3044 -11.4088 -4.6728 -5.5148 -41.6356 -44.2456 -104.784 -65.9688Z" fill="#E6DC9F" stroke-width="1"></path></svg>