<svg version="1.1" id="Shopping-Bags--Streamline-Noto-Emoji.svg" xmlns="http://www.w3.org/2000/svg" xmlns:xlink="http://www.w3.org/1999/xlink" x="0" y="0" viewBox="0 0 512 512" xml:space="preserve" enable-background="new 0 0 128 128" height="512" width="512"><desc>Shopping Bags Streamline Emoji: https://streamlinehq.com</desc><g><g><path d="M107.84 157.8c-3 -22.72 -8.08 -62.76 -4.72 -84.8s12.16 -42.36 30.52 -50.4c15.88 -6.92 35.68 0.4 47.12 17.52 6.52 9.76 10.24 21.8 13.4 33.72 5.4 20.48 10.56 48.48 13.16 69.56" fill="none" stroke="#00796B" stroke-width="3" stroke-miterlimit="10"></path><path d="M122.84 466.56 26.16 426.28l22.44 -98.96 -4.8 -225.52 244.64 -28.72 0 21.36 58.2 7.36z" fill="#26A69A" stroke-width="3"></path><path d="M367.4 429.76 122.8 466.8l-20.8 -129.52 0 -198.48 244.64 -37 0 198.44z" fill="#61DE9F" stroke-width="3"></path><path d="m102 138.8 0 -22.32 -58.2 -14.68 245.12 -27.2 7.84 17.36 49.88 9.84z" fill="#263238" stroke-width="3"></path><path d="M26.16 426.28c1.68 0 57.92 -44.6 57.92 -44.6l38.72 85.12 -8.32 -135.72 -12.6 -192.28 -16.36 207.8 -59.36 79.68z" fill="#00796B" stroke-width="3"></path><g><path d="m288.2 77.16 5.92 13.68 0.76 1.8 1.88 0.48 29.8 7.64 -220.56 33.4v-20.8l-3.04 -0.76 -37.12 -9.36 222.36 -26.08m2.52 -4.32 -246.88 28.96 58.2 14.68v22.36l244.6 -37.04 -48.84 -12.56 -7.08 -16.4z" fill="#26A69A" stroke-width="3"></path></g><path d="M175.8 153.8C172.8 131.12 141.56 44 201.36 32.88c45.2 -8.4 65.16 87.88 67.8 109" fill="none" stroke="#61DE9F" stroke-width="3" stroke-miterlimit="10"></path><path d="M183.24 160.12c-3.48 -11.72 -7.12 -35.4 -7.28 -36.44l11.84 -1.8c0.04 0.24 4.28 24.4 8.92 35.72l-13.48 2.52z" fill="#26A69A" stroke-width="3"></path><path d="M276.52 145.92c-3.48 -11.72 -7.12 -35.4 -7.28 -36.44l11.84 -1.8c0.04 0.24 4.96 24.8 9.08 35.76l-13.64 2.48z" fill="#26A69A" stroke-width="3"></path><path d="m187.36 457.04 33.6 -58.2 -16.04 -155.16 134.28 -26.12 -72 227.56z" fill="#26A69A" stroke-width="3"></path></g><g><path d="M292.28 228.2s-15.12 -80.28 35.24 -74.96c27.4 2.88 26.28 66.6 26.28 66.6" fill="none" stroke="#D7578A" stroke-width="3" stroke-miterlimit="10"></path><path d="m297.84 495.96 -74.28 -31.08 17.28 -76.08 -3.68 -173.36 188 -22.08 0 16.44 44.72 5.64z" fill="#D7578A" stroke-width="3"></path><path d="m485.84 467.52 -188 28.48 -15.96 -99.56 0 -152.52 188 -28.48 0 152.56z" fill="#FF9F9F" stroke-width="3"></path><path d="m281.88 243.92 -15.04 -11.52 -29.68 -16.96 188 -22.08 17.08 10.76 27.64 11.32z" fill="#263238" stroke-width="3"></path><g><path d="m424.44 197.48 32.2 15.88 -173.92 26.32 -33.96 -21.6 175.68 -20.6m0.72 -4.12 -188 22.08 44.72 28.48 188 -28.48 -44.72 -22.08z" fill="#D7578A" stroke-width="3"></path></g><g><path d="M345.44 259.24c-2.68 -8.96 -5.44 -27.16 -5.56 -27.92l10.56 -1.36c0.04 0.2 2.72 18.52 5.2 26.96l-10.2 2.32z" fill="#D7578A" stroke-width="3"></path></g><g><path d="M417 248.24c-2.68 -8.96 -5.44 -27.16 -5.56 -27.92l10.44 -1.32c0.04 0.2 2.2 19.08 4.68 27.52l-9.56 1.72z" fill="#D7578A" stroke-width="3"></path></g><path d="M339.52 259.64c-2.32 -17.44 -26.08 -90.96 18.72 -97.16 35 -4.84 50.08 67.56 52.12 83.76" fill="none" stroke="#FF9F9F" stroke-width="3" stroke-miterlimit="10"></path></g><path d="m223.56 464.88 37.96 -32.16L297.84 496l-15.88 -98.96 0.16 -152.64 -4.48 -1.84 -14.16 155.16z" fill="#AB2C5E" stroke-width="3"></path></g></svg>