<svg version="1.1" id="Speech-Balloon--Streamline-Noto-Emoji.svg" xmlns="http://www.w3.org/2000/svg" xmlns:xlink="http://www.w3.org/1999/xlink" x="0" y="0" viewBox="0 0 512 512" xml:space="preserve" enable-background="new 0 0 128 128" height="512" width="512"><desc>Speech Balloon Streamline Emoji: https://streamlinehq.com</desc><path d="M256.0048 29.7748C86.8244 30.6476 18.3356 118.8464 17.0268 228.6984 16.3132 290.0492 55.852 343.032 116.4488 375.3532c29.5452 20.8996 -5.6312 89.3884 -33.7884 106.8776 0 0 99.5412 -6.7816 126.9844 -76.936 15.1492 2.2208 30.7348 3.3708 46.7168 3.3708 131.9812 0 238.6212 -70.1152 238.6212 -179.9672S426.8108 28.942 256.0048 29.7748Z" fill="#FFFFFF" stroke="#000000" stroke-width="6" stroke-linejoin="round" stroke-miterlimit="10"></path><g><path d="M101.1412 223.8204c0 24.4232 26.4384 39.6872 47.5892 27.476 9.816 -5.6676 15.8632 -16.1412 15.8632 -27.476 0 -24.4228 -26.4384 -39.6868 -47.5896 -27.4756 -9.816 5.6672 -15.8628 16.1412 -15.8628 27.4756" fill="#54646D" stroke-width="6"></path><path d="M228.046 223.8204c0 24.4232 26.4384 39.6872 47.5892 27.476 9.8164 -5.6676 15.8632 -16.1412 15.8632 -27.476 0 -24.4228 -26.4384 -39.6868 -47.5892 -27.4756 -9.816 5.6672 -15.8632 16.1412 -15.8632 27.4756" fill="#54646D" stroke-width="6"></path><path d="M350.192 223.8204c0 24.4232 26.4384 39.6872 47.5892 27.476 9.8164 -5.6676 15.8632 -16.1412 15.8632 -27.476 0 -24.4228 -26.4384 -39.6868 -47.5892 -27.4756 -9.816 5.6672 -15.8632 16.1412 -15.8632 27.4756" fill="#54646D" stroke-width="6"></path></g></svg>