<svg version="1.1" id="Spiral-Calendar--Streamline-Noto-Emoji.svg" xmlns="http://www.w3.org/2000/svg" xmlns:xlink="http://www.w3.org/1999/xlink" x="0" y="0" viewBox="0 0 128 128" xml:space="preserve" enable-background="new 0 0 128 128" height="512" width="512" stroke-width="1"><desc>Spiral Calendar Streamline Emoji: https://streamlinehq.com</desc><g><path d="M6.81 35.5v75.03c0 3.12 2.9 5.21 6.32 7.61 3.53 2.48 5.48 2.25 7.17 2.25l95.86.62c3.77 0 5.03-2.57 5.03-5.34V35.5H6.81z" fill="#BDBDBD"></path><linearGradient id="SVGID_1_" gradientUnits="userSpaceOnUse" x1="117.05" y1="68.631" x2="117.05" y2="111.352"><stop offset=".337" stop-color="#616161"></stop><stop offset="1" stop-color="#616161" stop-opacity="0"></stop></linearGradient><path d="m121.19 115.66-8.28-8.51 0-71.65 8.28 5.02z" opacity=".29" fill="url(#SVGID_1_)"></path><path d="m121.19 41.22-6.46-4.05L104.62 14l5.44 0c9.65 0 11.13 5.57 11.13 7.47v19.75z" fill="#C62828"></path><path d="M9.75 36.33v72.13c0 2.7 2.19 4.88 4.88 4.88h94.85c2.7 0 5.22-2.01 5.22-4.71v-72.3H9.75z" fill="#FAFAFA"></path><path d="M114.73 37.17H6.81V18.55c0-2.51 2.57-4.55 5.75-4.55h96.59c3.19 0 5.77 2.05 5.75 4.58l-.17 18.59z" fill="#F44336"></path><g><path d="M103.71 116.62c-3.18.39-6.36.55-9.54.83-3.18.2-6.36.38-9.54.49-3.18.16-6.36.19-9.54.28l-9.54.09-9.54-.09c-3.18-.09-6.36-.13-9.54-.28-3.18-.11-6.36-.29-9.54-.49-3.18-.28-6.36-.45-9.54-.83v-.2l38.15-.1 38.15.1v.2z" fill="#757575"></path></g><path d="m42.46 45.08 0 12.12-26.3 0 0 49.25 52.15 0 0-12.27 38.74 0 0-49.1z" fill="#B3E5FC"></path><g><g><path d="M16.15 19.8a2.96 3.3 0 1 0 5.92 0 2.96 3.3 0 1 0-5.92 0" fill="#AF1E1E"></path><path d="M20.48 17.08c-.41-.86-.69-1.93-.69-3.08 0-2.67 1.39-4.93 3.04-4.93 1.65 0 3.04 2.26 3.04 4.93h4.48c0-5.47-3.37-9.93-7.51-9.93S15.33 8.52 15.33 14c0 1.95.43 3.76 1.16 5.3.67 1.39 2.1 2.01 3.37 1.34 1.06-.58 1.2-2.36.62-3.56z" fill="#94D1E0"></path><path d="M30.35 14c0-3.35-1.27-6.31-3.19-8.11.02.06.57 1.49-.21 2.86-.79 1.4-2.43 1.18-2.43 1.18.81.9 1.35 2.4 1.35 4.07h4.48z" fill="#2F7889"></path></g><g><path d="M32.63 19.8a2.96 3.3 0 1 0 5.92 0 2.96 3.3 0 1 0-5.92 0" fill="#AF1E1E"></path><path d="M36.96 17.08c-.41-.86-.69-1.93-.69-3.08 0-2.67 1.39-4.93 3.04-4.93s3.04 2.26 3.04 4.93h4.48c0-5.47-3.37-9.93-7.51-9.93S31.81 8.52 31.81 14c0 1.95.43 3.76 1.16 5.3.67 1.39 2.1 2.01 3.37 1.34 1.06-.58 1.2-2.36.62-3.56z" fill="#94D1E0"></path><path d="M43.64 5.89c.02.06.57 1.49-.21 2.86C42.64 10.14 41 9.93 41 9.93c.81.9 1.35 2.4 1.35 4.07h4.49c0-3.35-1.28-6.31-3.2-8.11z" fill="#2F7889"></path></g><g><path d="M49.1 19.8a2.96 3.3 0 1 0 5.92 0 2.96 3.3 0 1 0-5.92 0" fill="#AF1E1E"></path><path d="M53.44 17.08c-.41-.86-.69-1.93-.69-3.08 0-2.67 1.39-4.93 3.04-4.93 1.65 0 3.04 2.26 3.04 4.93h4.48c0-5.47-3.37-9.93-7.51-9.93S48.29 8.52 48.29 14c0 1.95.43 3.76 1.16 5.3.67 1.39 2.1 2.01 3.37 1.34 1.06-.58 1.2-2.36.62-3.56z" fill="#94D1E0"></path><path d="M60.11 5.89c.02.06.57 1.49-.21 2.86-.79 1.4-2.43 1.18-2.43 1.18.81.9 1.35 2.4 1.35 4.07h4.51c.01-3.35-1.29-6.31-3.22-8.11z" fill="#2F7889"></path></g><g><path d="M65.58 19.8a2.96 3.3 0 1 0 5.92 0 2.96 3.3 0 1 0-5.92 0" fill="#AF1E1E"></path><path d="M69.92 17.08c-.41-.86-.69-1.93-.69-3.08 0-2.67 1.39-4.93 3.04-4.93 1.65 0 3.04 2.26 3.04 4.93h4.48c0-5.47-3.37-9.93-7.51-9.93S64.77 8.52 64.77 14c0 1.95.43 3.76 1.16 5.3.67 1.39 2.1 2.01 3.37 1.34 1.06-.58 1.19-2.36.62-3.56z" fill="#94D1E0"></path><path d="M76.59 5.89c.02.06.57 1.49-.21 2.86-.79 1.4-2.43 1.18-2.43 1.18.81.9 1.35 2.4 1.35 4.07h4.52c.01-3.35-1.3-6.31-3.23-8.11z" fill="#2F7889"></path></g><g><path d="M82.06 19.8a2.96 3.3 0 1 0 5.92 0 2.96 3.3 0 1 0-5.92 0" fill="#AF1E1E"></path><path d="M86.39 17.08c-.41-.86-.69-1.93-.69-3.08 0-2.67 1.39-4.93 3.04-4.93s3.04 2.26 3.04 4.93h4.48c0-5.47-3.37-9.93-7.51-9.93S81.24 8.52 81.24 14c0 1.95.43 3.76 1.16 5.3.67 1.39 2.1 2.01 3.37 1.34 1.06-.58 1.2-2.36.62-3.56z" fill="#94D1E0"></path><path d="M93.07 5.89c.02.06.57 1.49-.21 2.86-.79 1.4-2.43 1.18-2.43 1.18.81.9 1.35 2.4 1.35 4.07h4.54c0-3.35-1.33-6.31-3.25-8.11z" fill="#2F7889"></path></g><g><path d="M98.54 19.8a2.96 3.3 0 1 0 5.92 0 2.96 3.3 0 1 0-5.92 0" fill="#AF1E1E"></path><path d="M102.87 17.08c-.41-.86-.69-1.93-.69-3.08 0-2.67 1.39-4.93 3.04-4.93 1.65 0 3.04 2.26 3.04 4.93h4.48c0-5.47-3.37-9.93-7.51-9.93S97.72 8.52 97.72 14c0 1.95.43 3.76 1.16 5.3.67 1.39 2.1 2.01 3.37 1.34 1.06-.58 1.2-2.36.62-3.56z" fill="#94D1E0"></path><path d="M112.8 14.18c-.15-4.02-1.45-6.6-3.26-8.28.02.06.57 1.49-.21 2.86-.79 1.4-2.43 1.18-2.43 1.18.81.9 1.21 2.4 1.21 4.07l1.53 0c1.27-.02 3.16.17 3.16.17z" fill="#2F7889"></path></g></g><g><g><path d="m16.66 45.12 0 61.33" fill="none" stroke="#1E88E5" stroke-linecap="square" stroke-miterlimit="10"></path><path d="m29.57 45.12 0 61.33" fill="none" stroke="#1E88E5" stroke-linecap="square" stroke-miterlimit="10"></path><path d="m42.48 45.12 0 61.33" fill="none" stroke="#1E88E5" stroke-linecap="square" stroke-miterlimit="10"></path><path d="m55.4 45.12 0 61.33" fill="none" stroke="#1E88E5" stroke-linecap="square" stroke-miterlimit="10"></path><path d="m68.31 45.12 0 61.33" fill="none" stroke="#1E88E5" stroke-linecap="square" stroke-miterlimit="10"></path><path d="m81.22 45.12 0 61.33" fill="none" stroke="#1E88E5" stroke-linecap="square" stroke-miterlimit="10"></path><path d="m94.14 45.12 0 61.33" fill="none" stroke="#1E88E5" stroke-linecap="square" stroke-miterlimit="10"></path><path d="m107.05 45.12 0 61.33" fill="none" stroke="#1E88E5" stroke-linecap="square" stroke-miterlimit="10"></path></g><g><path d="m16.66 106.45 90.39 0" fill="none" stroke="#1E88E5" stroke-linecap="square" stroke-miterlimit="10"></path><path d="m16.66 94.18 90.39 0" fill="none" stroke="#1E88E5" stroke-linecap="square" stroke-miterlimit="10"></path><path d="m16.66 81.92 90.39 0" fill="none" stroke="#1E88E5" stroke-linecap="square" stroke-miterlimit="10"></path><path d="m16.66 69.65 90.39 0" fill="none" stroke="#1E88E5" stroke-linecap="square" stroke-miterlimit="10"></path><path d="m16.66 57.39 90.39 0" fill="none" stroke="#1E88E5" stroke-linecap="square" stroke-miterlimit="10"></path><path d="m16.66 45.12 90.39 0" fill="none" stroke="#1E88E5" stroke-linecap="square" stroke-miterlimit="10"></path></g></g><g><path d="M102.42 48.12a1.26 1.26 0 1 0 2.52 0 1.26 1.26 0 1 0-2.52 0" fill="#1E88E5"></path><path d="M89.44 48.12a1.26 1.26 0 1 0 2.52 0 1.26 1.26 0 1 0-2.52 0" fill="#1E88E5"></path><path d="M76.46 48.12a1.26 1.26 0 1 0 2.52 0 1.26 1.26 0 1 0-2.52 0" fill="#1E88E5"></path><path d="M63.47 48.12a1.26 1.26 0 1 0 2.52 0 1.26 1.26 0 1 0-2.52 0" fill="#1E88E5"></path><path d="M50.49 48.12a1.26 1.26 0 1 0 2.52 0 1.26 1.26 0 1 0-2.52 0" fill="#1E88E5"></path><path d="M37.51 48.12a1.26 1.26 0 1 0 2.52 0 1.26 1.26 0 1 0-2.52 0" fill="#1E88E5"></path><path d="M24.53 48.12a1.26 1.26 0 1 0 2.52 0 1.26 1.26 0 1 0-2.52 0" fill="#1E88E5"></path></g><g><path d="M102.42 60.39a1.26 1.26 0 1 0 2.52 0 1.26 1.26 0 1 0-2.52 0" fill="#1E88E5"></path><path d="M89.44 60.39a1.26 1.26 0 1 0 2.52 0 1.26 1.26 0 1 0-2.52 0" fill="#1E88E5"></path><path d="M76.46 60.39a1.26 1.26 0 1 0 2.52 0 1.26 1.26 0 1 0-2.52 0" fill="#1E88E5"></path><path d="M63.47 60.39a1.26 1.26 0 1 0 2.52 0 1.26 1.26 0 1 0-2.52 0" fill="#1E88E5"></path><path d="M50.49 60.39a1.26 1.26 0 1 0 2.52 0 1.26 1.26 0 1 0-2.52 0" fill="#1E88E5"></path><path d="M37.51 60.39a1.26 1.26 0 1 0 2.52 0 1.26 1.26 0 1 0-2.52 0" fill="#1E88E5"></path><path d="M24.53 60.39a1.26 1.26 0 1 0 2.52 0 1.26 1.26 0 1 0-2.52 0" fill="#1E88E5"></path></g><g><path d="M102.42 72.65a1.26 1.26 0 1 0 2.52 0 1.26 1.26 0 1 0-2.52 0" fill="#1E88E5"></path><path d="M89.44 72.65a1.26 1.26 0 1 0 2.52 0 1.26 1.26 0 1 0-2.52 0" fill="#1E88E5"></path><path d="M76.46 72.65a1.26 1.26 0 1 0 2.52 0 1.26 1.26 0 1 0-2.52 0" fill="#1E88E5"></path><path d="M63.47 72.65a1.26 1.26 0 1 0 2.52 0 1.26 1.26 0 1 0-2.52 0" fill="#1E88E5"></path><path d="M50.49 72.65a1.26 1.26 0 1 0 2.52 0 1.26 1.26 0 1 0-2.52 0" fill="#1E88E5"></path><path d="M37.51 72.65a1.26 1.26 0 1 0 2.52 0 1.26 1.26 0 1 0-2.52 0" fill="#1E88E5"></path><path d="M24.53 72.65a1.26 1.26 0 1 0 2.52 0 1.26 1.26 0 1 0-2.52 0" fill="#1E88E5"></path></g><g><path d="M102.42 97.18a1.26 1.26 0 1 0 2.52 0 1.26 1.26 0 1 0-2.52 0" fill="#1E88E5"></path><path d="M89.44 97.18a1.26 1.26 0 1 0 2.52 0 1.26 1.26 0 1 0-2.52 0" fill="#1E88E5"></path><path d="M76.46 97.18a1.26 1.26 0 1 0 2.52 0 1.26 1.26 0 1 0-2.52 0" fill="#1E88E5"></path><path d="M63.47 97.18a1.26 1.26 0 1 0 2.52 0 1.26 1.26 0 1 0-2.52 0" fill="#1E88E5"></path><path d="M50.49 97.18a1.26 1.26 0 1 0 2.52 0 1.26 1.26 0 1 0-2.52 0" fill="#1E88E5"></path><path d="M37.51 97.18a1.26 1.26 0 1 0 2.52 0 1.26 1.26 0 1 0-2.52 0" fill="#1E88E5"></path><path d="M24.53 97.18a1.26 1.26 0 1 0 2.52 0 1.26 1.26 0 1 0-2.52 0" fill="#1E88E5"></path></g><g><path d="M102.42 84.92a1.26 1.26 0 1 0 2.52 0 1.26 1.26 0 1 0-2.52 0" fill="#1E88E5"></path><path d="M89.44 84.92a1.26 1.26 0 1 0 2.52 0 1.26 1.26 0 1 0-2.52 0" fill="#1E88E5"></path><path d="M76.46 84.92a1.26 1.26 0 1 0 2.52 0 1.26 1.26 0 1 0-2.52 0" fill="#1E88E5"></path><path d="M63.47 84.92a1.26 1.26 0 1 0 2.52 0 1.26 1.26 0 1 0-2.52 0" fill="#1E88E5"></path><path d="M50.49 84.92a1.26 1.26 0 1 0 2.52 0 1.26 1.26 0 1 0-2.52 0" fill="#1E88E5"></path><path d="M37.51 84.92a1.26 1.26 0 1 0 2.52 0 1.26 1.26 0 1 0-2.52 0" fill="#1E88E5"></path><path d="M24.53 84.92a1.26 1.26 0 1 0 2.52 0 1.26 1.26 0 1 0-2.52 0" fill="#1E88E5"></path></g></g></svg>