<svg version="1.1" id="Stopwatch--Streamline-Noto-Emoji.svg" xmlns="http://www.w3.org/2000/svg" xmlns:xlink="http://www.w3.org/1999/xlink" x="0" y="0" viewBox="0 0 128 128" xml:space="preserve" enable-background="new 0 0 128 128" height="512" width="512" stroke-width="1"><desc>Stopwatch Streamline Emoji: https://streamlinehq.com</desc><g><g><g><path transform="rotate(90 63.974 22.64)" d="M58.46 18.29H69.5V27H58.46Z" fill="#607D8B"></path><path d="M55.19 6.84c0-.7.39-1.35 1.02-1.66C57.3 4.63 59.54 4 64 4s6.7.63 7.8 1.18c.63.31 1.02.96 1.02 1.66v9.01c0 1.35-1.26 1.54-2.28 1.54l-13.6-.16c-1.57-.22-1.73-.36-1.73-1.38V6.84z" fill="#B0BEC5"></path></g><path d="M55.35 16.56a8.65 1.56 0 1 0 17.3 0 8.65 1.56 0 1 0-17.3 0" fill="#607D8B"></path><path d="M61.41 12.61c-.1.48-1.23.78-1.48-.32-.31-1.37-.18-4.51.03-6.02.11-.8 1.49-1.07 1.59.42.08 1.21-.04 5.44-.14 5.92z" fill="#FBE9E7"></path><path d="M58.37 12.7c-.08 1.02-1.86 2.3-1.95.53-.12-2.34-.04-4.51.03-5.73.08-1.46 1.89-1.73 1.91-.18.01 1.45.1 4.17.01 5.38z" fill="#FBE9E7"></path><path d="M66.87 12.61c.1.48 1.23.78 1.48-.32.31-1.37.18-4.51-.03-6.02-.11-.8-1.49-1.07-1.59.42-.08 1.21.04 5.44.14 5.92z" fill="#78909C"></path><path d="M69.8 12.7c.08 1.02 1.86 2.3 1.95.53.12-2.34.04-4.51-.03-5.73-.08-1.46-1.89-1.73-1.91-.18-.01 1.45-.1 4.17-.01 5.38z" fill="#607D8B"></path></g><g><g><path transform="rotate(134.999 102.175 37.218)" d="M97.54 33.56h9.27v7.32h-9.27Z" fill="#607D8B"></path><path d="M106.34 22.61c.42-.42 1.03-.57 1.59-.38.98.33 2.68 1.28 5.33 3.93s3.6 4.35 3.93 5.33c.19.56.03 1.17-.38 1.59l-5.35 5.35c-.8.8-1.66.17-2.27-.44l-7.99-8.18c-.8-1.06-.82-1.24-.21-1.85l5.35-5.35z" fill="#B0BEC5"></path></g><path transform="rotate(-45.001 105.802 33.623)" d="M104.49 33.62a1.31 7.27 0 1 0 2.62 0 1.31 7.27 0 1 0-2.62 0" fill="#607D8B"></path><path d="M106.61 29.74c-.35.23-1.19-.27-.69-1.07.63-1 2.57-2.79 3.6-3.56.54-.41 1.52.25.7 1.19-.68.77-3.27 3.21-3.61 3.44z" fill="#FBE9E7"></path><path d="M104.75 27.98c-.65.56-2.47.26-1.48-.84 1.32-1.47 2.66-2.7 3.42-3.39.92-.82 2.15.1 1.24 1.03-.84.87-2.41 2.54-3.18 3.2z" fill="#FBE9E7"></path></g><path d="M13.06 73.06a50.94 50.94 0 1 0 101.88 0 50.94 50.94 0 1 0-101.88 0" fill="#B0BEC5"></path><path d="M23.13 73.06a40.87 40.87 0 1 0 81.74 0 40.87 40.87 0 1 0-81.74 0" fill="#FAFAFA"></path><g><g><g><g><path d="M64 43.08c-.81 0-1.47-.66-1.47-1.47v-4.4c0-.81.66-1.47 1.47-1.47.81 0 1.47.66 1.47 1.47v4.4c0 .82-.66 1.47-1.47 1.47z" fill="#B2947C"></path></g><g><path d="M64 110.67c-.81 0-1.47-.66-1.47-1.47v-4.4c0-.81.66-1.47 1.47-1.47.81 0 1.47.66 1.47 1.47v4.4c0 .81-.66 1.47-1.47 1.47z" fill="#B2947C"></path></g></g><g><g><path d="M99.99 74.68h-4.4c-.81 0-1.47-.66-1.47-1.47 0-.81.66-1.47 1.47-1.47h4.4c.81 0 1.47.66 1.47 1.47 0 .81-.66 1.47-1.47 1.47z" fill="#B2947C"></path></g><g><path d="M32.41 74.68h-4.4c-.81 0-1.47-.66-1.47-1.47 0-.81.66-1.47 1.47-1.47h4.4c.81 0 1.47.66 1.47 1.47 0 .81-.66 1.47-1.47 1.47z" fill="#B2947C"></path></g></g><g><g><path d="M64 43.08c-.81 0-1.47-.66-1.47-1.47v-4.4c0-.81.66-1.47 1.47-1.47.81 0 1.47.66 1.47 1.47v4.4c0 .82-.66 1.47-1.47 1.47z" fill="#B2947C"></path></g><g><path d="M64 110.67c-.81 0-1.47-.66-1.47-1.47v-4.4c0-.81.66-1.47 1.47-1.47.81 0 1.47.66 1.47 1.47v4.4c0 .81-.66 1.47-1.47 1.47z" fill="#B2947C"></path></g></g><g><g><path d="m46.93 46.58-2.2-3.81c-.41-.7-.17-1.6.54-2.01.7-.41 1.6-.17 2.01.54l2.2 3.81c.41.7.17 1.6-.54 2.01-.7.4-1.6.16-2.01-.54z" fill="#B2947C"></path></g><g><path d="m80.73 105.11-2.2-3.81c-.41-.7-.16-1.6.54-2.01.7-.41 1.6-.16 2.01.54l2.2 3.81c.41.7.16 1.6-.54 2.01-.71.41-1.61.17-2.01-.54z" fill="#B2947C"></path></g></g><g><g><path d="m46.93 46.58-2.2-3.81c-.41-.7-.17-1.6.54-2.01.7-.41 1.6-.17 2.01.54l2.2 3.81c.41.7.17 1.6-.54 2.01-.7.4-1.6.16-2.01-.54z" fill="#B2947C"></path></g><g><path d="m80.73 105.11-2.2-3.81c-.41-.7-.16-1.6.54-2.01.7-.41 1.6-.16 2.01.54l2.2 3.81c.41.7.16 1.6-.54 2.01-.71.41-1.61.17-2.01-.54z" fill="#B2947C"></path></g></g><g><g><path d="m35.91 58.68-3.81-2.2c-.7-.41-.94-1.3-.54-2.01.41-.7 1.3-.94 2.01-.54l3.81 2.2c.7.41.94 1.3.54 2.01-.41.71-1.31.95-2.01.54z" fill="#B2947C"></path></g><g><path d="m94.44 92.48-3.81-2.2c-.7-.41-.94-1.3-.54-2.01.41-.7 1.3-.94 2.01-.54l3.81 2.2c.7.41.94 1.3.54 2.01-.41.7-1.31.94-2.01.54z" fill="#B2947C"></path></g></g><g><g><path d="M79.06 47.12c-.7-.41-.94-1.3-.54-2.01l2.2-3.81c.41-.7 1.3-.94 2.01-.54.7.41.94 1.3.54 2.01l-2.2 3.81c-.41.7-1.31.94-2.01.54z" fill="#B2947C"></path></g><g><path d="M45.27 105.65c-.7-.41-.94-1.3-.54-2.01l2.2-3.81c.41-.7 1.3-.94 2.01-.54.7.41.94 1.3.54 2.01l-2.2 3.81c-.41.71-1.31.95-2.01.54z" fill="#B2947C"></path></g></g><g><g><path d="M90.09 58.15c-.41-.7-.17-1.6.54-2.01l3.81-2.2c.7-.41 1.6-.16 2.01.54.41.7.16 1.6-.54 2.01l-3.81 2.2c-.71.4-1.61.16-2.01-.54z" fill="#B2947C"></path></g><g><path d="M31.56 91.94c-.41-.7-.16-1.6.54-2.01l3.81-2.2c.7-.41 1.6-.16 2.01.54.41.7.16 1.6-.54 2.01l-3.81 2.2c-.71.4-1.61.16-2.01-.54z" fill="#B2947C"></path></g></g></g></g><g><path d="M54.21 56.12a9.79 9.79 0 1 0 19.58 0 9.79 9.79 0 1 0-19.58 0" opacity=".42" fill="#82AEC0"></path></g><path d="M65.5 38.63s.17-3.27-1.54-3.27-1.54 3.27-1.54 3.27l-1.16 34.58h5.5L65.5 38.63z" fill="#563428"></path><path d="M59.89 73.16a4.11 4.11 0 1 0 8.22 0 4.11 4.11 0 1 0-8.22 0" fill="#563428"></path><path d="M52.04 31.4c-5.45 1.58-13.09 4-21.25 13.76-8.07 9.65-9.74 20.86-10.25 28.6 0 0-4.66 5.83-4.88 4.74-1.76-8.45 1.79-27.33 11.07-37.31 10.8-11.62 24.85-15.74 29.92-16.51.88-.13-2.95 6.24-4.61 6.72z" opacity=".64" fill="#ECEFF1"></path></g></svg>