<svg version="1.1" id="Warning--Streamline-Noto-Emoji.svg" xmlns="http://www.w3.org/2000/svg" xmlns:xlink="http://www.w3.org/1999/xlink" x="0" y="0" viewBox="0 0 128 128" xml:space="preserve" enable-background="new 0 0 128 128" height="512" width="512" stroke-width="1"><desc>Warning Streamline Emoji: https://streamlinehq.com</desc><g><path d="m57.16 8.42-52 104c-1.94 4.02-.26 8.85 3.75 10.79 1.08.52 2.25.8 3.45.81h104c4.46-.04 8.05-3.69 8.01-8.15-.01-1.19-.29-2.37-.81-3.45l-52-104c-2.01-3.98-6.87-5.57-10.84-3.56-1.54.78-2.78 2.03-3.56 3.56z" fill="#F2A600"></path><path d="m53.56 15.72-48.8 97.4c-1.83 3.77-.25 8.31 3.52 10.14.99.48 2.08.74 3.18.76h97.5c4.17-.04 7.52-3.45 7.48-7.62-.01-1.14-.28-2.26-.78-3.28l-48.7-97.4c-1.79-3.7-6.23-5.25-9.93-3.47-1.52.74-2.74 1.96-3.47 3.47z" fill="#FFCC32"></path><g opacity=".2"><path d="M64.36 34.02c4.6 0 8.3 3.7 8 8l-3.4 48c-.38 2.54-2.74 4.3-5.28 3.92-2.03-.3-3.62-1.89-3.92-3.92l-3.4-48c-.3-4.3 3.4-8 8-8" fill="#424242"></path><path d="M64.36 98.02c3.31 0 6 2.69 6 6s-2.69 6-6 6-6-2.69-6-6 2.69-6 6-6" fill="#424242"></path></g><linearGradient id="SVGID_1_" gradientUnits="userSpaceOnUse" x1="68" y1="-1808.36" x2="68" y2="-1887.05" gradientTransform="matrix(1 0 0 -1 -3.64 -1776.09)"><stop offset="0" stop-color="#424242"></stop><stop offset="1" stop-color="#212121"></stop></linearGradient><path d="M64.36 34.02c4.6 0 8.3 3.7 8 8l-3.4 48c-.38 2.54-2.74 4.3-5.28 3.92-2.03-.3-3.62-1.89-3.92-3.92l-3.4-48c-.3-4.3 3.4-8 8-8z" fill="url(#SVGID_1_)"></path><linearGradient id="SVGID_2_" gradientUnits="userSpaceOnUse" x1="64.36" y1="-1808.36" x2="64.36" y2="-1887.05" gradientTransform="matrix(1 0 0 -1 0 -1772.11)"><stop offset="0" stop-color="#424242"></stop><stop offset="1" stop-color="#212121"></stop></linearGradient><path d="M58.36 104.02a6 6 0 1 0 12 0 6 6 0 1 0-12 0" fill="url(#SVGID_2_)"></path><path d="M53.56 23.02c-1.2 1.5-21.4 41-21.4 41s-1.8 3 .7 4.7c2.3 1.6 4.4-.3 5.3-1.8s19.2-36.9 19.9-38.6c.6-1.87.18-3.91-1.1-5.4-1.3-1.2-2.6-1-3.4.1z" fill="#FFF170"></path><path d="M28.06 75.33a3.3 3.3 0 1 0 6.6 0 3.3 3.3 0 1 0-6.6 0" fill="#FFF170"></path></g></svg>